<svg width="267" height="200" viewBox="0 0 267 200" fill="none" xmlns="http://www.w3.org/2000/svg">
<path d="M194.667 103.52C194.667 103.52 204.554 101.92 203.887 107.967H194.667V103.52Z" fill="#F4A28C"/>
<path d="M172.72 92.5199L169.733 107.02H186.507L184.22 90.3533L172.72 92.5199Z" fill="#C9C9C9"/>
<path d="M211.52 45.7133H144.98V90.9066H211.52V45.7133Z" fill="#24285B"/>
<path d="M189.294 75.5934H168.36V77.56H189.294V75.5934Z" fill="#1E90FF"/>
<path d="M198.62 80.7534H177.687V82.7201H198.62V80.7534Z" fill="#2ED573"/>
<path d="M211.52 87.02H144.98V95.5734H211.52V87.02Z" fill="#E6E6E6"/>
<path d="M180.887 70.84H163.32V72.8066H180.887V70.84Z" fill="#1E90FF"/>
<path d="M202.107 70.84H184.54V72.8066H202.107V70.84Z" fill="#1E90FF"/>
<path d="M184.067 65.3667H168.36V67.3334H184.067V65.3667Z" fill="#2ED573"/>
<path d="M203.86 65.3667H188.153V67.3334H203.86V65.3667Z" fill="#2ED573"/>
<path d="M164.68 75.5934H156.807V77.56H164.68V75.5934Z" fill="white"/>
<path d="M172.52 80.7534H164.646V82.7201H172.52V80.7534Z" fill="white"/>
<path d="M159.64 70.84H151.767V72.8066H159.64V70.84Z" fill="white"/>
<path opacity="0.14" d="M153.673 61.58C153.673 61.58 186.18 58.3133 179.006 95.58L181.48 104.667L171.333 99.16L172.146 95.5867H166.773L153.673 61.58Z" fill="black"/>
<path d="M153.674 51.08C154.186 51.08 154.6 50.6651 154.6 50.1534C154.6 49.6416 154.186 49.2267 153.674 49.2267C153.162 49.2267 152.747 49.6416 152.747 50.1534C152.747 50.6651 153.162 51.08 153.674 51.08Z" fill="#1E90FF"/>
<path d="M156.273 51.08C156.785 51.08 157.2 50.6651 157.2 50.1534C157.2 49.6416 156.785 49.2267 156.273 49.2267C155.762 49.2267 155.347 49.6416 155.347 50.1534C155.347 50.6651 155.762 51.08 156.273 51.08Z" fill="#2ED573"/>
<path d="M159.64 55.8866H151.767V57.8533H159.64V55.8866Z" fill="white"/>
<path d="M164.68 60.8066H156.807V62.7733H164.68V60.8066Z" fill="white"/>
<path d="M184.067 60.8066H168.36V62.7733H184.067V60.8066Z" fill="#2ED573"/>
<path d="M203.86 60.8066H188.153V62.7733H203.86V60.8066Z" fill="#2ED573"/>
<path d="M164.68 65.3667H156.807V67.3334H164.68V65.3667Z" fill="white"/>
<path d="M179.007 55.8866H162.787V57.8533H179.007V55.8866Z" fill="#1E90FF"/>
<path d="M193.914 55.8866H182.4V57.8533H193.914V55.8866Z" fill="#1E90FF"/>
<path d="M179.007 93.4667C180.373 93.4667 181.48 92.3593 181.48 90.9934C181.48 89.6274 180.373 88.52 179.007 88.52C177.641 88.52 176.533 89.6274 176.533 90.9934C176.533 92.3593 177.641 93.4667 179.007 93.4667Z" fill="#A5A5A5"/>
<path d="M84.8734 104.687H51.4268V107.02H84.8734V104.687Z" fill="#C9C9C9"/>
<path d="M64.7601 103.52C64.7601 103.52 54.8734 101.92 55.5401 107.967H64.7601V103.52Z" fill="#F4A28C"/>
<path d="M83.1468 92.5199L80.1602 107.02H96.9335L94.6468 90.3533L83.1468 92.5199Z" fill="#C9C9C9"/>
<path d="M119.16 45.7133H52.6201V90.9066H119.16V45.7133Z" fill="#24285B"/>
<path d="M96.9333 75.5934H76V77.56H96.9333V75.5934Z" fill="#1E90FF"/>
<path d="M119.16 87.02H52.6201V95.5734H119.16V87.02Z" fill="#E6E6E6"/>
<path d="M88.5266 70.84H70.96V72.8066H88.5266V70.84Z" fill="#1E90FF"/>
<path d="M91.7067 65.3667H76V67.3334H91.7067V65.3667Z" fill="#2ED573"/>
<path d="M72.3196 75.5934H64.4463V77.56H72.3196V75.5934Z" fill="white"/>
<path d="M80.1604 80.7534H72.2871V82.7201H80.1604V80.7534Z" fill="white"/>
<path d="M67.2796 70.84H59.4062V72.8066H67.2796V70.84Z" fill="white"/>
<path d="M58.5605 51.08C59.0722 51.08 59.4871 50.6651 59.4871 50.1534C59.4871 49.6416 59.0722 49.2267 58.5605 49.2267C58.0487 49.2267 57.6338 49.6416 57.6338 50.1534C57.6338 50.6651 58.0487 51.08 58.5605 51.08Z" fill="white"/>
<path d="M61.3134 51.08C61.8252 51.08 62.2401 50.6651 62.2401 50.1534C62.2401 49.6416 61.8252 49.2267 61.3134 49.2267C60.8016 49.2267 60.3867 49.6416 60.3867 50.1534C60.3867 50.6651 60.8016 51.08 61.3134 51.08Z" fill="#1E90FF"/>
<path d="M63.913 51.08C64.4248 51.08 64.8397 50.6651 64.8397 50.1534C64.8397 49.6416 64.4248 49.2267 63.913 49.2267C63.4012 49.2267 62.9863 49.6416 62.9863 50.1534C62.9863 50.6651 63.4012 51.08 63.913 51.08Z" fill="#2ED573"/>
<path d="M67.2796 55.8866H59.4062V57.8533H67.2796V55.8866Z" fill="white"/>
<path d="M72.3196 60.8066H64.4463V62.7733H72.3196V60.8066Z" fill="white"/>
<path d="M91.7067 60.8066H76V62.7733H91.7067V60.8066Z" fill="#2ED573"/>
<path d="M72.3196 65.3667H64.4463V67.3334H72.3196V65.3667Z" fill="white"/>
<path d="M86.6468 55.8866H70.4268V57.8533H86.6468V55.8866Z" fill="#1E90FF"/>
<path opacity="0.45" d="M130.707 175.393C190.169 175.393 238.373 169.146 238.373 161.44C238.373 153.734 190.169 147.487 130.707 147.487C71.244 147.487 23.04 153.734 23.04 161.44C23.04 169.146 71.244 175.393 130.707 175.393Z" fill="#E6E6E6"/>
<path d="M114.413 60.0934C114.413 60.0934 91.2064 61.6867 89.4264 74.5734C88.4398 81.7334 90.3998 88.2067 92.3398 92.5734C92.6355 93.2368 92.7722 93.96 92.7392 94.6856C92.7062 95.4111 92.5042 96.1189 92.1495 96.7527C91.7947 97.3865 91.2969 97.9287 90.6957 98.3362C90.0945 98.7437 89.4065 99.0053 88.6864 99.1L64.7598 102.433V108L98.0531 107.013C101.431 106.914 104.654 105.578 107.112 103.259C109.57 100.94 111.091 97.7994 111.386 94.4334L114.413 60.0934Z" fill="#1E90FF"/>
<path d="M144.98 60.0934C144.98 60.0934 168.187 61.6867 169.967 74.5734C170.954 81.7334 168.994 88.2067 167.054 92.5734C166.758 93.2368 166.621 93.96 166.654 94.6856C166.687 95.4111 166.889 96.1189 167.244 96.7527C167.599 97.3865 168.097 97.9287 168.698 98.3362C169.299 98.7437 169.987 99.0053 170.707 99.1L194.634 102.433V108L161.334 106.98C157.957 106.879 154.734 105.542 152.277 103.224C149.819 100.905 148.298 97.7656 148 94.4001L144.98 60.0934Z" fill="#1E90FF"/>
<path opacity="0.46" d="M114.413 60.0934C114.413 60.0934 91.2064 61.6867 89.4264 74.5734C88.4398 81.7334 90.3998 88.2067 92.3398 92.5734C92.6355 93.2368 92.7722 93.96 92.7392 94.6856C92.7062 95.4111 92.5042 96.1189 92.1495 96.7527C91.7947 97.3865 91.2969 97.9287 90.6957 98.3362C90.0945 98.7437 89.4065 99.0053 88.6864 99.1L64.7598 102.433V108L98.0531 107.013C101.431 106.914 104.654 105.578 107.112 103.259C109.57 100.94 111.091 97.7994 111.386 94.4334L114.413 60.0934Z" fill="white"/>
<path opacity="0.46" d="M144.98 60.0934C144.98 60.0934 168.187 61.6867 169.967 74.5734C170.954 81.7334 168.994 88.2067 167.054 92.5734C166.758 93.2368 166.621 93.96 166.654 94.6856C166.687 95.4111 166.889 96.1189 167.244 96.7527C167.599 97.3865 168.097 97.9287 168.698 98.3362C169.299 98.7437 169.987 99.0053 170.707 99.1L194.634 102.433V108L161.334 106.98C157.957 106.879 154.734 105.542 152.277 103.224C149.819 100.905 148.298 97.7656 148 94.4001L144.98 60.0934Z" fill="white"/>
<path d="M217.54 112.167H42.54V161.447H217.54V112.167Z" fill="#C9C9C9"/>
<path d="M217.54 107.02H42.54V119.067H217.54V107.02Z" fill="#E6E6E6"/>
<path d="M127.554 60.0932L130.387 47.7399C130.387 47.7399 130.48 41.9532 134.194 43.2999C137.907 44.6466 139.02 51.3532 137.02 53.6199C135.02 55.8866 133.687 52.7932 133.687 52.7932V59.6266L127.554 60.0932Z" fill="#F4A28C"/>
<path opacity="0.1" d="M176.533 107.433C176.533 107.433 161.153 110.707 167.58 116.913C174.007 123.12 170.46 131.847 166.007 134.367C161.553 136.887 143.107 139.927 149 161.187H128.207L126.673 149.853L113.34 135.773L119.167 122.193L135.56 99.9066L146.667 109.113L152.747 107.02L176.533 107.433Z" fill="black"/>
<path d="M123.853 59.5266C123.853 59.5266 100.72 57.4666 97.6996 73.0866C94.6796 88.7066 116.206 118.187 116.206 118.187L146.206 117.02C146.206 117.02 192.813 51.5533 123.853 59.5266Z" fill="#1E90FF"/>
<path d="M126.667 149.833C126.667 149.833 128 151.593 127.127 153.26C126.254 154.927 127.514 156.34 128.834 155.18C130.154 154.02 130.7 149.18 130.7 149.18L127.72 147.44L126.667 149.833Z" fill="#1E90FF"/>
<path d="M116.207 118.187C116.207 118.187 114.207 128.687 118.707 129.187C123.207 129.687 155.04 131.107 160.373 126.647C165.707 122.187 164.373 116.02 146.207 117.02L116.207 118.187Z" fill="#24285B"/>
<path d="M115.946 120C115.946 120 102.04 130.867 109.206 138.867C116.373 146.867 126.706 151.533 126.706 151.533L128.206 147.7C128.206 147.7 106.54 130.867 127.04 127.533L115.946 120Z" fill="#24285B"/>
<path d="M133.747 84.6333H125.567C117.143 84.6333 110.313 91.4625 110.313 99.8866C110.313 108.311 117.143 115.14 125.567 115.14H133.747C142.171 115.14 149 108.311 149 99.8866C149 91.4625 142.171 84.6333 133.747 84.6333Z" fill="#2ED573"/>
<path d="M133.293 99.8866H125.68V130.44H133.293V99.8866Z" fill="#2ED573"/>
<path opacity="0.08" d="M133.293 99.8866H125.68V130.44H133.293V99.8866Z" fill="black"/>
<path d="M144.98 126.647H114.413V135.773H144.98V126.647Z" fill="#2ED573"/>
<path d="M128.427 51.7867L128.473 48.86C128.493 48.1864 128.377 47.5157 128.132 46.888C127.887 46.2603 127.518 45.6885 127.047 45.2067C126.853 45.0556 126.69 44.8676 126.569 44.6536C126.448 44.4397 126.371 44.2039 126.341 43.9598C126.311 43.7157 126.33 43.4682 126.396 43.2314C126.462 42.9946 126.575 42.7732 126.727 42.58C128.26 40.3867 129.553 41.8067 131.1 39.8667C132.647 37.9267 133.813 37.5467 135.62 39.8667C137.427 42.1867 138.847 39.48 139.88 42.32C140.913 45.16 140.007 46.58 136.007 46.84C132.607 47.06 133.66 50.9133 130.507 52.94C130.303 53.0781 130.064 53.157 129.818 53.168C129.572 53.1789 129.328 53.1215 129.113 53.002C128.897 52.8826 128.719 52.7058 128.598 52.4912C128.477 52.2767 128.418 52.0328 128.427 51.7867Z" fill="#24285B"/>
<path d="M131.92 135.767H127.066V156.853H131.92V135.767Z" fill="#2ED573"/>
<path opacity="0.08" d="M131.92 135.767H127.066V156.853H131.92V135.767Z" fill="black"/>
<path d="M127.066 156.853L117.68 165.52H142.04L131.913 156.853H127.066Z" fill="#2ED573"/>
<path d="M208.76 123.353H190.76V154.52H208.76V123.353Z" fill="#A5A5A5"/>
<path d="M186.54 119.067H182.32V161.447H186.54V119.067Z" fill="#E6E6E6"/>
<path d="M217.54 119.067H213.32V161.447H217.54V119.067Z" fill="#E6E6E6"/>
<path d="M217.547 154.52H186.127V161.44H217.547V154.52Z" fill="#E6E6E6"/>
<path d="M51.4267 119.067H42.54V161.447H51.4267V119.067Z" fill="#E6E6E6"/>
<path opacity="0.42" d="M76.7601 149.46H51.4268V154.52H76.7601V149.46Z" fill="#A5A5A5"/>
<path d="M89.5868 154.32H51.4268V161.44H89.5868V154.32Z" fill="#A5A5A5"/>
<path d="M101.553 55.8866H90.04V57.8533H101.553V55.8866Z" fill="#1E90FF"/>
<path d="M88.3669 93.4667C89.7329 93.4667 90.8402 92.3593 90.8402 90.9934C90.8402 89.6274 89.7329 88.52 88.3669 88.52C87.0009 88.52 85.8936 89.6274 85.8936 90.9934C85.8936 92.3593 87.0009 93.4667 88.3669 93.4667Z" fill="#A5A5A5"/>
<path d="M150.92 51.08C151.432 51.08 151.847 50.6651 151.847 50.1534C151.847 49.6416 151.432 49.2267 150.92 49.2267C150.408 49.2267 149.993 49.6416 149.993 50.1534C149.993 50.6651 150.408 51.08 150.92 51.08Z" fill="white"/>
<path d="M223.274 35.6666H197.44V53.4266H223.274V35.6666Z" fill="#2ED573"/>
<path d="M206.887 48.0333C206.754 48.0339 206.625 47.9892 206.52 47.9066L202.667 44.8466C202.597 44.7905 202.541 44.7195 202.501 44.6388C202.462 44.5581 202.441 44.4697 202.44 44.38C202.44 44.2898 202.46 44.2006 202.498 44.1187C202.536 44.0369 202.591 43.9645 202.66 43.9066L206.534 40.7933C206.658 40.6992 206.814 40.6571 206.969 40.6761C207.124 40.695 207.265 40.7735 207.363 40.8948C207.461 41.0161 207.508 41.1708 207.494 41.3261C207.479 41.4813 207.405 41.625 207.287 41.7266L203.994 44.3933L207.28 46.9866C207.343 47.0348 207.395 47.0949 207.434 47.1635C207.472 47.232 207.497 47.3075 207.506 47.3857C207.516 47.4639 207.509 47.5431 207.488 47.6188C207.466 47.6945 207.43 47.7652 207.38 47.8266C207.32 47.8977 207.244 47.9535 207.159 47.9895C207.073 48.0254 206.98 48.0404 206.887 48.0333Z" fill="white"/>
<path d="M213.9 48.0333C213.81 48.0339 213.722 48.0137 213.641 47.9744C213.56 47.9351 213.489 47.8777 213.434 47.8067C213.385 47.7452 213.348 47.6746 213.326 47.5989C213.305 47.5232 213.298 47.4439 213.308 47.3657C213.317 47.2875 213.342 47.212 213.381 47.1435C213.419 47.075 213.471 47.0149 213.534 46.9667L216.814 44.3733L213.527 41.7067C213.458 41.6606 213.399 41.6006 213.354 41.5305C213.309 41.4604 213.279 41.3817 213.266 41.2994C213.253 41.2171 213.258 41.1331 213.279 41.0526C213.3 40.9721 213.338 40.8969 213.39 40.8319C213.442 40.7668 213.507 40.7133 213.581 40.6748C213.655 40.6363 213.736 40.6135 213.819 40.608C213.902 40.6025 213.986 40.6144 214.064 40.6428C214.142 40.6713 214.214 40.7157 214.274 40.7733L218.154 43.8867C218.223 43.9445 218.279 44.0169 218.317 44.0988C218.355 44.1806 218.374 44.2698 218.374 44.36C218.373 44.4497 218.352 44.5381 218.313 44.6188C218.274 44.6995 218.217 44.7705 218.147 44.8267L214.274 47.8867C214.17 47.9769 214.038 48.0287 213.9 48.0333Z" fill="white"/>
<path d="M208.774 48.0333C208.686 48.0348 208.6 48.0166 208.52 47.98C208.377 47.9133 208.265 47.7924 208.21 47.6438C208.155 47.4952 208.161 47.3308 208.227 47.1866L211.047 41.0066C211.08 40.9348 211.126 40.8702 211.184 40.8165C211.242 40.7627 211.31 40.7209 211.384 40.6933C211.458 40.6658 211.537 40.6531 211.615 40.6559C211.694 40.6588 211.772 40.6771 211.844 40.71C211.915 40.7428 211.98 40.7894 212.034 40.8473C212.088 40.9051 212.129 40.9729 212.157 41.0469C212.185 41.1208 212.197 41.1995 212.194 41.2784C212.192 41.3573 212.173 41.4348 212.14 41.5066L209.334 47.6866C209.286 47.7938 209.207 47.8842 209.107 47.946C209.007 48.0078 208.891 48.0382 208.774 48.0333Z" fill="white"/>
<path opacity="0.58" d="M62.6665 141.913C62.6665 141.913 56.5265 140.233 55.1865 134.52C55.1865 134.52 64.7065 132.6 64.9732 142.42L62.6665 141.913Z" fill="#1E90FF"/>
<path opacity="0.73" d="M63.3863 141.333C63.3863 141.333 59.0929 134.547 62.8729 128.207C62.8729 128.207 70.1063 132.8 66.8729 141.347L63.3863 141.333Z" fill="#1E90FF"/>
<path d="M64.4932 141.333C64.4932 141.333 66.7598 134.173 73.6132 132.813C73.6132 132.813 74.8932 137.48 69.1732 141.353L64.4932 141.333Z" fill="#1E90FF"/>
<path d="M60.04 141.147L61.28 149.667L69.12 149.7L70.28 141.193L60.04 141.147Z" fill="#24285B"/>
<path d="M202.807 132.793C204.081 132.793 205.113 131.761 205.113 130.487C205.113 129.213 204.081 128.18 202.807 128.18C201.533 128.18 200.5 129.213 200.5 130.487C200.5 131.761 201.533 132.793 202.807 132.793Z" fill="white"/>
<path opacity="0.18" d="M206.386 135.767H193.833V151.52H206.386V135.767Z" fill="white"/>
</svg>
