<svg width="267" height="200" viewBox="0 0 267 200" fill="none" xmlns="http://www.w3.org/2000/svg">
<path opacity="0.45" d="M138.774 181.52C186.745 181.52 225.634 175.93 225.634 169.033C225.634 162.137 186.745 156.547 138.774 156.547C90.8021 156.547 51.9136 162.137 51.9136 169.033C51.9136 175.93 90.8021 181.52 138.774 181.52Z" fill="#E6E6E6"/>
<path d="M98.0002 71.3334L96.5668 73.3334C96.486 73.4464 96.435 73.5779 96.4185 73.7159C96.4019 73.8538 96.4204 73.9937 96.4723 74.1226C96.5241 74.2515 96.6076 74.3653 96.715 74.4534C96.8224 74.5415 96.9503 74.6011 97.0868 74.6267L99.0535 74.9934L98.0002 71.3334Z" fill="#F4A28C"/>
<path d="M204.433 157.233H166V167.353H204.433V157.233Z" fill="#E6E6E6"/>
<path opacity="0.43" d="M196.033 147.333H157.6V157.453H196.033V147.333Z" fill="#E6E6E6"/>
<path d="M176.813 30.8866H100.727V167.347H176.813V30.8866Z" fill="#C9C9C9"/>
<path d="M170 46.4467H107.02V142.48H170V46.4467Z" fill="white"/>
<path d="M97.7333 68.0001C97.7333 68.0001 97.82 73.1401 99.0666 76.4401C99.1845 76.7596 99.3645 77.0526 99.5962 77.3022C99.8279 77.5518 100.107 77.7531 100.417 77.8944C100.727 78.0357 101.061 78.1143 101.402 78.1255C101.742 78.1368 102.081 78.0806 102.4 77.9601C104.053 77.2934 106.1 75.9601 106.4 73.2267L107.46 68.6001C107.571 67.6559 107.387 66.7005 106.933 65.865C106.48 65.0295 105.779 64.3548 104.927 63.9334C101.78 62.1334 97.52 64.8667 97.7333 68.0001Z" fill="#F4A28C"/>
<path opacity="0.08" d="M109.787 61.1867C109.787 61.1867 116.334 57.78 117.167 67.1133C118 76.4467 118.634 82.9467 125.76 84.2533C132.887 85.56 145.56 78.3733 151.72 88.52C157.88 98.6667 163.36 122.933 151.72 127.78L154.447 142.48H107.02V127.78L106.354 74.2867L109.787 61.1867Z" fill="black"/>
<path d="M106.78 69.86L115.407 84.5733L106.953 88.52L104.173 76.5933L106.78 69.86Z" fill="#F4A28C"/>
<path d="M108.174 69.8L108.527 72.8467C107.806 73.2168 106.979 73.3247 106.187 73.152C105.395 72.9793 104.688 72.5367 104.187 71.9C103.661 71.2537 103.335 70.468 103.248 69.6392C103.162 68.8104 103.319 67.9744 103.7 67.2334C103.7 67.2334 103.22 69.1467 101.5 68.2067C99.7802 67.2667 98.7269 67.44 98.7402 68.6667C98.7535 69.8934 96.6335 70.06 95.4802 67.72C94.3269 65.38 97.8602 65.9667 96.6602 64.64C95.4602 63.3134 93.8669 62.48 95.8869 60.98C97.9069 59.48 97.8869 62.3134 99.2202 60.6334C100.554 58.9534 100.554 57.3 103.007 57.8667C105.46 58.4334 104.127 60.92 106.5 60.2267C108.874 59.5334 109.654 59.9867 110.207 62.5534C110.56 64.2267 110.827 65.46 110.054 66.02C109.429 66.423 108.925 66.9867 108.595 67.6519C108.264 68.3171 108.118 69.0592 108.174 69.8Z" fill="#24285B"/>
<path d="M103.627 71.8066C103.627 71.8066 103.46 69.8066 104.96 69.8066C106.46 69.8066 106.713 72.6533 104.733 73.14L103.627 71.8066Z" fill="#F4A28C"/>
<path d="M103.62 90.6666C103.62 90.6666 87.6733 101.573 97.7267 123.573L72 122.447V128.667L111.9 135.013C111.9 135.013 115.687 108.853 103.62 90.6666Z" fill="#1E90FF"/>
<path opacity="0.2" d="M103.62 90.6666C103.62 90.6666 87.6733 101.573 97.7267 123.573L72 122.447V128.667L111.9 135.013C111.9 135.013 115.687 108.853 103.62 90.6666Z" fill="white"/>
<path opacity="0.31" d="M104.253 76.9334C105.177 76.2507 105.896 75.3286 106.333 74.2667C106.333 74.2667 108.48 77.2667 105.047 80.3267L104.253 76.9334Z" fill="#CE8172"/>
<path d="M115.407 84.5734C115.407 84.5734 136.947 75.6467 138.74 90.6467C140.533 105.647 142.967 131.98 142.967 131.98L114 138.173C114 138.173 86.3066 98.7067 106.98 88.5201L115.407 84.5734Z" fill="#1E90FF"/>
<path opacity="0.08" d="M122.894 89.1733C122.894 89.1733 119.667 105.947 130 114.893L114 115.887L106.24 124.973L114 138.173L143 132L141.927 120.667L140.834 106.34L122.894 89.1733Z" fill="black"/>
<path d="M101.667 104.807H116.167L117.167 124.973H102.593L101.667 104.807Z" fill="#2ED573"/>
<path d="M122.94 91.62C122.704 90.2717 122.832 88.8847 123.312 87.6025C123.791 86.3204 124.605 85.1898 125.668 84.3277C126.732 83.4656 128.006 82.9034 129.36 82.6993C130.713 82.4951 132.097 82.6565 133.367 83.1666C136.098 84.2816 138.469 86.1268 140.22 88.5C146.667 97.0933 156.22 112.427 149.334 118.2C142.447 123.973 120.667 118.2 120.667 118.2V112.867L136.887 111.333C136.887 111.333 125.06 103.26 122.94 91.62Z" fill="#1E90FF"/>
<path opacity="0.08" d="M111.84 114.893C111.84 114.893 109.52 122.613 102.333 119.333L102.593 124.973H117.167L116.807 117.713L111.84 114.893Z" fill="black"/>
<path opacity="0.2" d="M122.94 91.62C122.704 90.2717 122.832 88.8847 123.312 87.6025C123.791 86.3204 124.605 85.1898 125.668 84.3277C126.732 83.4656 128.006 82.9034 129.36 82.6993C130.713 82.4951 132.097 82.6565 133.367 83.1666C136.098 84.2816 138.469 86.1268 140.22 88.5C146.667 97.0933 156.22 112.427 149.334 118.2C142.447 123.973 120.667 118.2 120.667 118.2V112.867L136.887 111.333C136.887 111.333 125.06 103.26 122.94 91.62Z" fill="white"/>
<path d="M120.667 112.887C118.542 112.677 116.403 112.644 114.273 112.787C113.784 112.831 113.312 112.993 112.899 113.26C112.486 113.527 112.144 113.89 111.902 114.319C111.661 114.747 111.527 115.228 111.513 115.719C111.499 116.211 111.604 116.698 111.82 117.14L111.86 117.213C112.001 117.51 112.2 117.774 112.446 117.992C112.692 118.209 112.979 118.374 113.291 118.477C113.602 118.581 113.931 118.62 114.258 118.593C114.585 118.566 114.903 118.473 115.193 118.32C116.028 117.858 116.964 117.608 117.918 117.591C118.871 117.573 119.815 117.789 120.667 118.22V112.887Z" fill="#F4A28C"/>
<path d="M113.974 138.173L143 132L144 142.48H113.974V138.173Z" fill="#24285B"/>
<path d="M208.627 49.46H138.514V78.1266H208.627V49.46Z" fill="#2ED573"/>
<path d="M225.633 84.7866H155.52V113.453H225.633V84.7866Z" fill="#24285B"/>
<path opacity="0.56" d="M139 162.227C143.113 162.227 146.447 158.893 146.447 154.78C146.447 150.667 143.113 147.333 139 147.333C134.888 147.333 131.554 150.667 131.554 154.78C131.554 158.893 134.888 162.227 139 162.227Z" fill="white"/>
<path opacity="0.12" d="M153.666 36.22H132.333V39.3333H153.666V36.22Z" fill="black"/>
<path d="M124.607 41.5934C126.525 41.5934 128.08 40.0383 128.08 38.1201C128.08 36.2018 126.525 34.6467 124.607 34.6467C122.689 34.6467 121.134 36.2018 121.134 38.1201C121.134 40.0383 122.689 41.5934 124.607 41.5934Z" fill="white"/>
<path d="M72.0002 123.493L70.4602 117.44C70.41 117.24 70.3085 117.056 70.1657 116.907C70.0229 116.758 69.8437 116.649 69.6458 116.59C69.4479 116.532 69.2381 116.526 69.0372 116.573C68.8363 116.62 68.6512 116.719 68.5002 116.86C68.3806 116.972 68.2852 117.107 68.2198 117.257C68.1544 117.408 68.1205 117.57 68.1202 117.733V120.767L66.3002 121.347C65.6345 121.555 65.071 122.006 64.7206 122.609C64.3702 123.212 64.2583 123.925 64.4068 124.607L64.7135 126.027C64.844 126.629 65.1645 127.174 65.6277 127.581C66.0909 127.988 66.6725 128.235 67.2868 128.287L72.0002 128.667V123.493Z" fill="#F4A28C"/>
<path d="M55.2798 84.22V104.707H66.2198L68.1731 110.887L70.2198 104.707H81.0598V84.22H55.2798Z" fill="#E6E6E6"/>
<path d="M63.7798 94.3801L66.7598 97.8534L72.8865 90.4401" stroke="#A5A5A5" stroke-width="2" stroke-linecap="round" stroke-linejoin="round"/>
<path opacity="0.17" d="M154.44 71.4867C158.854 71.4867 162.433 67.9079 162.433 63.4933C162.433 59.0787 158.854 55.5 154.44 55.5C150.025 55.5 146.446 59.0787 146.446 63.4933C146.446 67.9079 150.025 71.4867 154.44 71.4867Z" fill="black"/>
<path opacity="0.09" d="M195.833 57.7333H171V61.8333H195.833V57.7333Z" fill="black"/>
<path opacity="0.09" d="M195.833 65.4867H171V69.5867H195.833V65.4867Z" fill="black"/>
<path opacity="0.61" d="M213.833 91.9268H189V96.0268H213.833V91.9268Z" fill="white"/>
<path opacity="0.21" d="M213.833 99.6801H189V103.78H213.833V99.6801Z" fill="white"/>
<path opacity="0.61" d="M162.434 108.22L167.554 94.1467L172.447 104.807L176.814 97.8534L181.334 108.22H162.434Z" fill="white"/>
<path opacity="0.61" d="M172.754 94.6667C173.718 94.6667 174.5 93.8847 174.5 92.92C174.5 91.9554 173.718 91.1733 172.754 91.1733C171.789 91.1733 171.007 91.9554 171.007 92.92C171.007 93.8847 171.789 94.6667 172.754 94.6667Z" fill="white"/>
</svg>
