<svg width="267" height="200" viewBox="0 0 267 200" fill="none" xmlns="http://www.w3.org/2000/svg">
<path d="M197.62 17.8H35.2871V147.02H197.62V17.8Z" fill="#24285B"/>
<path d="M141.5 93.78H85.8867V100H141.5V93.78Z" fill="#1E90FF"/>
<path d="M151.553 76.4467H101.833V82.6667H151.553V76.4467Z" fill="#2ED573"/>
<path d="M168.106 108.82H101.833V115.04H168.106V108.82Z" fill="#1E90FF"/>
<path d="M168.106 125.167H101.833V131.387H168.106V125.167Z" fill="#2ED573"/>
<path d="M90.1737 108.82H65.2471V115.04H90.1737V108.82Z" fill="white"/>
<path d="M90.1737 125.167H65.2471V131.387H90.1737V125.167Z" fill="white"/>
<path d="M74.2265 93.78H49.2998V100H74.2265V93.78Z" fill="white"/>
<path d="M46.3669 31.2267C47.987 31.2267 49.3003 29.9134 49.3003 28.2933C49.3003 26.6733 47.987 25.36 46.3669 25.36C44.7469 25.36 43.4336 26.6733 43.4336 28.2933C43.4336 29.9134 44.7469 31.2267 46.3669 31.2267Z" fill="white"/>
<path d="M55.0935 31.2267C56.7135 31.2267 58.0268 29.9134 58.0268 28.2933C58.0268 26.6733 56.7135 25.36 55.0935 25.36C53.4735 25.36 52.1602 26.6733 52.1602 28.2933C52.1602 29.9134 53.4735 31.2267 55.0935 31.2267Z" fill="#1E90FF"/>
<path d="M63.3132 31.2267C64.9332 31.2267 66.2465 29.9134 66.2465 28.2933C66.2465 26.6733 64.9332 25.36 63.3132 25.36C61.6932 25.36 60.3799 26.6733 60.3799 28.2933C60.3799 29.9134 61.6932 31.2267 63.3132 31.2267Z" fill="#2ED573"/>
<path d="M74.2265 46.4467H49.2998V52.6666H74.2265V46.4467Z" fill="white"/>
<path d="M90.1737 62.0133H65.2471V68.2333H90.1737V62.0133Z" fill="white"/>
<path d="M151.553 62.0133H101.833V68.2333H151.553V62.0133Z" fill="#2ED573"/>
<path d="M90.1737 76.4467H65.2471V82.6667H90.1737V76.4467Z" fill="white"/>
<path d="M135.533 46.4467H84.1865V52.6666H135.533V46.4467Z" fill="#1E90FF"/>
<path d="M182.727 46.4467H146.273V52.6666H182.727V46.4467Z" fill="#1E90FF"/>
<path opacity="0.24" d="M181.167 57.3867C181.167 57.3867 166.6 51.5134 166.413 69.0867L163.193 74C163.193 74 138.653 72.6667 132.44 87.1134C126.227 101.56 110.573 134.54 133.707 136.22L146.12 139.673L146.273 147.007H166.413L192.033 101.72L181.167 57.3867Z" fill="black"/>
<path d="M181.167 57.3867C181.167 57.3867 183.167 53.76 187.32 57.3333C191.474 60.9067 185.32 65.0333 191.46 69.4267C191.46 69.4267 181.547 74.4534 181.167 57.3867Z" fill="#FFD200"/>
<path opacity="0.08" d="M181.167 57.3867C181.167 57.3867 183.167 53.76 187.32 57.3333C191.474 60.9067 185.32 65.0333 191.46 69.4267C191.46 69.4267 181.547 74.4534 181.167 57.3867Z" fill="black"/>
<path d="M174.394 65.12C174.394 65.12 144.28 68.0533 149.927 90.64C155.574 113.227 161.807 128.28 161.807 128.28H198.107C198.107 128.28 244.034 67.8333 174.394 65.12Z" fill="#1E90FF"/>
<path opacity="0.08" d="M197.606 81.06C197.606 81.06 189.453 92.8933 192.273 102.68L184.546 120.013L166.413 133.347L198.106 128.28C198.106 128.28 208.626 113.613 210.053 106.187C211.48 98.76 197.606 81.06 197.606 81.06Z" fill="black"/>
<path opacity="0.45" d="M178.253 187.613C217.285 187.613 248.927 183.638 248.927 178.733C248.927 173.829 217.285 169.853 178.253 169.853C139.222 169.853 107.58 173.829 107.58 178.733C107.58 183.638 139.222 187.613 178.253 187.613Z" fill="#E6E6E6"/>
<path d="M204.26 137.907H156.84V178.173H204.26V137.907Z" fill="#E6E6E6"/>
<path opacity="0.14" d="M176.653 139.673L172.453 169.88L179.88 171.287L178.253 178.173H204.253V147.687L202.406 141.793L176.653 139.673Z" fill="black"/>
<path d="M194.48 151.04L187.36 175.66L184.547 174.133L187.087 147.02L194.48 151.04Z" fill="#F4A28C"/>
<path d="M187.333 175.66C187.333 175.66 187.82 178.493 189.867 179.48C191.913 180.467 190.673 183.48 187.62 181.413C186.67 180.787 185.778 180.077 184.953 179.293C184.169 178.603 183.217 178.13 182.193 177.92C182 177.865 181.828 177.752 181.7 177.598C181.571 177.443 181.492 177.253 181.473 177.053C181.147 175.487 184.727 174.233 184.727 174.233L187.333 175.66Z" fill="#1E90FF"/>
<path d="M181.073 121.173C181.073 121.173 193.353 120.36 197.427 123.173C201.5 125.987 197.427 168.507 197.427 168.507L178.533 167.293C178.533 167.293 183 136.353 175.667 131.093C168.333 125.833 181.073 121.173 181.073 121.173Z" fill="#24285B"/>
<path d="M174.153 67.2467C174.153 67.2467 170.373 73.1933 174.08 75.32C177.786 77.4467 178.966 75.02 178.966 75.02C178.966 75.02 181.726 78.2733 184.193 75.7533C186.66 73.2333 186.313 68.2067 183.8 65.8867C181.286 63.5667 174.153 67.2467 174.153 67.2467Z" fill="white"/>
<path d="M175.014 67.44C175.186 68.5439 175.296 69.6569 175.34 70.7733C175.394 72.2933 175.88 74.5533 178.274 74.9933C181.974 75.66 182.94 69.8333 182.94 69.8333C182.94 69.8333 185.267 64.3533 181.26 63.6C177.68 62.8933 174.28 62.4067 175.014 67.44Z" fill="#F4A28C"/>
<path d="M182.727 70.04C182.727 70.04 182.94 68.2666 184.487 68.34C186.033 68.4133 185.427 71.7333 182.727 70.04Z" fill="#F4A28C"/>
<path d="M178.253 58.6667C178.533 58.1652 178.969 57.7692 179.495 57.5392C180.021 57.3092 180.608 57.258 181.166 57.3934C183.3 57.7734 186.346 59.0534 184.446 61.74C182.546 64.4267 178.253 58.6667 178.253 58.6667Z" fill="#24285B"/>
<path d="M175.907 69.0533C175.907 69.0533 176.447 67.3466 175.007 66.7733C173.567 66.2 172.747 69.4733 175.907 69.0533Z" fill="#F4A28C"/>
<path d="M196.353 133.773L215.32 151.02L212.706 152.867L189.486 138.633L196.353 133.773Z" fill="#F4A28C"/>
<path d="M215.333 151.02C215.333 151.02 218.086 151.833 219.88 150.427C221.673 149.02 223.8 151.453 220.62 153.293C219.638 153.875 218.607 154.37 217.54 154.773C216.57 155.168 215.721 155.812 215.08 156.64C214.947 156.791 214.771 156.898 214.575 156.946C214.379 156.994 214.174 156.98 213.986 156.907C212.44 156.513 212.893 152.747 212.893 152.747L215.333 151.02Z" fill="#1E90FF"/>
<path d="M202.4 71.9333C202.4 71.9333 217.307 78.4667 224.58 101.807C231.853 125.147 219.74 129.347 188.947 123.887L186.313 118.853C186.313 118.853 208.62 119.62 212.98 112.093C217.34 104.567 183.233 99.5333 202.4 71.9333Z" fill="#F4A28C"/>
<path d="M156.667 71.9333C156.667 71.9333 141.767 78.4667 134.487 101.807C127.207 125.147 139.333 129.333 170.12 123.887L172.787 118.853C172.787 118.853 150.473 119.62 146.12 112.093C141.767 104.567 175.84 99.5333 156.667 71.9333Z" fill="#F4A28C"/>
<path d="M174.393 65.12C174.393 65.12 174.393 67.62 175.133 68.34C175.133 68.34 179.853 69.2733 181.593 65.28C181.593 65.28 181.186 67.9867 183.073 69.0867L184.486 68.34C185.04 67.6644 185.393 66.8469 185.505 65.9807C185.617 65.1145 185.483 64.2342 185.12 63.44C183.853 60.7133 184.32 59.44 181.786 58.5467C179.253 57.6533 173.026 59.46 174.393 65.12Z" fill="#FFD200"/>
<path d="M167.813 119.027L163.193 98.98H195.073L189.893 120.607L189.44 124.887L168.493 123.727L167.813 119.027Z" fill="#2ED573"/>
<path d="M179.42 111.247C180.948 111.247 182.187 110.008 182.187 108.48C182.187 106.952 180.948 105.713 179.42 105.713C177.892 105.713 176.653 106.952 176.653 108.48C176.653 110.008 177.892 111.247 179.42 111.247Z" fill="white"/>
<path d="M160.86 129.047C160.86 129.047 161.734 119.873 171.94 118.893C182.147 117.913 207.194 137.233 207.194 137.233L196.887 156.96L160.86 129.047Z" fill="#24285B"/>
<path d="M160.86 129.047C160.86 129.047 156.514 136.807 163.294 137.907C170.074 139.007 187.96 137.907 187.96 137.907L160.86 129.047Z" fill="#24285B"/>
<path opacity="0.58" d="M135.02 168.447C135.02 168.447 128.88 166.773 127.547 161.053C127.547 161.053 137.06 159.133 137.334 168.953L135.02 168.447Z" fill="#1E90FF"/>
<path opacity="0.73" d="M135.773 167.84C135.773 167.84 131.486 161.053 135.26 154.713C135.26 154.713 142.493 159.307 139.26 167.853L135.773 167.84Z" fill="#1E90FF"/>
<path d="M136.88 167.84C136.88 167.84 139.147 160.667 146 159.333C146 159.333 147.287 164 141.56 167.873L136.88 167.84Z" fill="#1E90FF"/>
<path d="M132.427 167.68L133.673 176.2L141.513 176.233L142.667 167.727L132.427 167.68Z" fill="#24285B"/>
<path d="M59.7137 131.387H19.667V158.92H59.7137V131.387Z" fill="#2ED573"/>
<path d="M34.3134 150.56C34.1045 150.564 33.9011 150.493 33.7401 150.36L27.7401 145.613C27.6306 145.528 27.542 145.419 27.4808 145.294C27.4196 145.169 27.3874 145.032 27.3867 144.893C27.3871 144.754 27.4184 144.617 27.4783 144.491C27.5383 144.365 27.6254 144.255 27.7334 144.167L33.7334 139.333C33.9252 139.18 34.1703 139.108 34.4147 139.135C34.6592 139.162 34.8829 139.285 35.0367 139.477C35.1905 139.669 35.2619 139.914 35.235 140.158C35.2081 140.402 35.0852 140.626 34.8934 140.78L29.7934 144.88L34.8867 148.88C35.0375 148.999 35.1474 149.163 35.2013 149.347C35.2551 149.532 35.2502 149.729 35.1872 149.91C35.1242 150.092 35.0062 150.25 34.8497 150.361C34.6931 150.473 34.5057 150.533 34.3134 150.533V150.56Z" fill="white"/>
<path d="M45.1798 150.56C45.0397 150.561 44.9013 150.529 44.7752 150.468C44.6492 150.407 44.539 150.317 44.4531 150.207C44.3013 150.014 44.2322 149.769 44.261 149.525C44.2897 149.281 44.414 149.059 44.6064 148.907L49.6998 144.907L44.5998 140.807C44.503 140.73 44.4222 140.636 44.362 140.529C44.3018 140.421 44.2633 140.303 44.2488 140.181C44.2342 140.058 44.2439 139.935 44.2772 139.816C44.3106 139.698 44.3669 139.587 44.4431 139.49C44.5193 139.393 44.6138 139.312 44.7211 139.252C44.8285 139.192 44.9467 139.154 45.069 139.139C45.1913 139.124 45.3152 139.134 45.4337 139.167C45.5522 139.201 45.663 139.257 45.7598 139.333L51.7598 144.167C51.8678 144.255 51.9549 144.365 52.0149 144.491C52.0748 144.617 52.1061 144.754 52.1065 144.893C52.1057 145.032 52.0736 145.169 52.0124 145.294C51.9512 145.419 51.8625 145.528 51.7531 145.613L45.7531 150.36C45.5915 150.492 45.3885 150.563 45.1798 150.56Z" fill="white"/>
<path d="M37.2262 150.56C37.0933 150.559 36.9619 150.532 36.8395 150.48C36.6166 150.376 36.444 150.188 36.3591 149.957C36.2742 149.726 36.2839 149.471 36.3862 149.247L40.7595 139.673C40.8651 139.456 41.0515 139.288 41.2788 139.206C41.5062 139.124 41.7566 139.135 41.9766 139.235C42.1966 139.335 42.3688 139.517 42.4566 139.742C42.5443 139.967 42.5406 140.218 42.4462 140.44L38.0729 150C38.0008 150.165 37.8826 150.306 37.7323 150.405C37.5821 150.505 37.4063 150.558 37.2262 150.56Z" fill="white"/>
</svg>
