<svg width="604" height="433" viewBox="0 0 604 433" fill="none" xmlns="http://www.w3.org/2000/svg">
<g clip-path="url(#clip0)">
<path d="M470.027 361C470.121 358.983 470.183 356.961 470.183 354.905C470.183 257.763 365.377 179 236.094 179C106.812 179 2 257.763 2 354.927C2 356.961 2.06121 358.983 2.1558 361.022L470.027 361Z" fill="#E2E2E2"/>
<path d="M603.883 361C603.949 359.576 604 358.146 604 356.711C604 288.083 525.74 232.447 429.202 232.447C332.665 232.447 254.405 288.083 254.405 356.711C254.405 358.146 254.45 359.576 254.522 361H603.883Z" fill="#EFEFEF"/>
</g>
<g clip-path="url(#clip1)">
<path d="M518.583 0.416908H77.417V290.583H518.583V0.416908Z" fill="white" fill-opacity="0.89" stroke="black" stroke-miterlimit="10"/>
<path d="M77.417 15.8424H518.583" stroke="black" stroke-miterlimit="10"/>
<path d="M485.233 41.6906H110.759V174.266H485.233V41.6906Z" fill="#F2F2F2"/>
<path d="M196.674 86.8081H399.327" stroke="black" stroke-miterlimit="10"/>
<path d="M196.674 195.47H399.327" stroke="black" stroke-miterlimit="10"/>
<path d="M196.674 215.482H399.327" stroke="black" stroke-miterlimit="10"/>
<path d="M196.674 235.493H399.327" stroke="black" stroke-miterlimit="10"/>
<path d="M196.674 255.505H399.327" stroke="black" stroke-miterlimit="10"/>
<path d="M87.0077 12.0903C89.0803 12.0903 90.7605 10.4104 90.7605 8.33811C90.7605 6.26585 89.0803 4.58596 87.0077 4.58596C84.9351 4.58596 83.2549 6.26585 83.2549 8.33811C83.2549 10.4104 84.9351 12.0903 87.0077 12.0903Z" fill="#AB8DE5"/>
<path d="M99.9335 12.0903C102.006 12.0903 103.686 10.4104 103.686 8.33811C103.686 6.26585 102.006 4.58596 99.9335 4.58596C97.8609 4.58596 96.1807 6.26585 96.1807 8.33811C96.1807 10.4104 97.8609 12.0903 99.9335 12.0903Z" fill="#73E5E2"/>
<path d="M112.86 12.0903C114.933 12.0903 116.613 10.4104 116.613 8.33811C116.613 6.26585 114.933 4.58596 112.86 4.58596C110.788 4.58596 109.107 6.26585 109.107 8.33811C109.107 10.4104 110.788 12.0903 112.86 12.0903Z" fill="#50B89D"/>
<path d="M293.063 107.979H246.72V123.946H293.063V107.979Z" fill="#B0DCD1"/>
<path d="M349.281 107.979H302.938V123.946H349.281V107.979Z" fill="#B0DCD1"/>
</g>
<g clip-path="url(#clip2)">
<path d="M517.298 229C531.845 229 536.755 238.889 536.755 245.761C536.755 260.093 533.66 256.897 533.66 271.709C533.66 287.628 554 307.728 554 335.224C554 372.813 521.278 378.323 517.298 378.323C496.665 378.323 489 355.557 489 341.745C489 325.381 503.372 307.864 503.372 292.092C503.372 280.555 499.613 276.073 499.613 258.187C499.613 240.2 510.004 229 517.298 229Z" fill="#73E5E2"/>
<path d="M516.212 409.463V252.669" stroke="#FBDC8E" stroke-width="3" stroke-miterlimit="10" stroke-linecap="round"/>
<path d="M516.212 354.432L540.44 329.534" stroke="#FBDC8E" stroke-width="3" stroke-miterlimit="10" stroke-linecap="round"/>
<path d="M515.607 284.561L507.803 276.736" stroke="#FBDC8E" stroke-width="3" stroke-miterlimit="10" stroke-linecap="round"/>
<path d="M516.212 263.572L527.107 252.651" stroke="#FBDC8E" stroke-width="3" stroke-miterlimit="10" stroke-linecap="round"/>
</g>
<path d="M594.86 83H435.14C430.092 83 426 87.1018 426 92.1617V171.036C426 176.096 430.092 180.198 435.14 180.198H594.86C599.908 180.198 604 176.096 604 171.036V92.1617C604 87.1018 599.908 83 594.86 83Z" fill="#F8E7C1"/>
<path d="M528.984 83H435.148C432.724 83.0055 430.4 83.9734 428.686 85.6918C426.971 87.4103 426.006 89.7394 426 92.1696V171.028C426.006 173.458 426.971 175.787 428.686 177.506C430.4 179.224 432.724 180.192 435.148 180.198H528.984V83Z" fill="#7CE5E0"/>
<path d="M603.921 90.9906C603.631 88.7836 602.552 86.7571 600.884 85.2875C599.216 83.8179 597.072 83.0051 594.851 83H435.148C432.927 83.0051 430.784 83.8179 429.115 85.2875C427.447 86.7571 426.368 88.7836 426.078 90.9906H603.921Z" fill="#AB91E0"/>
<path d="M446.257 177.709V195L471.057 177.709H446.257Z" fill="#7CE5E0"/>
<path d="M442.075 123.739H512.909" stroke="white" stroke-width="4" stroke-miterlimit="10" stroke-linecap="round"/>
<path d="M442.075 135.529H512.909" stroke="white" stroke-width="4" stroke-miterlimit="10" stroke-linecap="round"/>
<path d="M442.075 147.318H512.909" stroke="white" stroke-width="4" stroke-miterlimit="10" stroke-linecap="round"/>
<path d="M442.075 159.108H512.909" stroke="white" stroke-width="4" stroke-miterlimit="10" stroke-linecap="round"/>
<path d="M507.55 114.57C511.52 114.57 514.738 111.344 514.738 107.365C514.738 103.386 511.52 100.16 507.55 100.16C503.58 100.16 500.362 103.386 500.362 107.365C500.362 111.344 503.58 114.57 507.55 114.57Z" fill="white"/>
<g clip-path="url(#clip3)">
<path d="M444 428.979C444 422.291 456.292 399 477.261 399C497.745 399 502.452 406.409 519.452 406.409C532.148 406.409 531.281 401.47 543.197 401.47C567.542 401.47 577.014 420.527 577.014 429L444 428.979Z" fill="#B37361"/>
</g>
<g clip-path="url(#clip4)">
<path d="M48.2302 400.87C48.2302 402.341 47.55 410.976 48.7493 412.456C50.933 415.146 69.1993 414.42 70.0764 413.586C70.9535 412.752 71.5173 410.976 70.7655 410.438C70.0138 409.9 62.8003 408.241 61.8158 407.524C60.8314 406.807 59.5874 403.157 60.1512 401.247" fill="#1F161E"/>
<path d="M108.22 400.87C108.22 402.341 107.531 410.976 108.739 412.456C110.923 415.146 129.18 414.42 130.057 413.586C130.934 412.752 131.507 410.976 130.746 410.438C129.986 409.9 122.79 408.241 121.797 407.524C120.803 406.807 119.568 403.157 120.141 401.247" fill="#1F161E"/>
<path d="M127.64 244.195C126.87 245.762 126.478 247.488 126.495 249.235C126.495 253.924 129.108 257.727 132.321 257.727C135.534 257.727 138.147 253.924 138.147 249.235C138.164 247.488 137.772 245.762 137.002 244.195H127.64Z" fill="#F8CDBA"/>
<path d="M122.521 400.996C124.311 398.907 129.413 244.177 129.413 244.177L110.422 243.765C110.422 243.765 95.207 286.009 95.207 287.821C95.207 289.632 103.002 325.483 105.947 334.934C106.135 340.073 105.186 400.036 106.707 401.462C108.229 402.888 120.741 403.13 122.521 400.996Z" fill="#1F161E"/>
<path d="M114.557 246.078C114.557 254.947 85.9175 319.305 80.4403 327.303C77.111 337.956 63.8117 399.247 61.8786 400.7C59.9455 402.153 47.6128 403.605 46.1629 400.7C44.7131 397.795 64.4382 256.866 68.0181 239.03C71.598 221.194 114.557 228.431 114.557 246.078Z" fill="#73E5E2"/>
<path d="M72.4925 144.874C78.3099 138.148 129.153 133.925 135.14 138.597C147.223 148.012 138.72 243.513 137.825 247.1C136.93 248.894 130.666 245.307 130.666 245.307C129.771 246.204 85.0221 247.997 68.0177 239.03C68.0177 234.546 70.7026 215.715 70.7026 215.715C67.1227 215.715 57.2781 213.025 55.4881 210.335C53.6982 207.645 65.646 152.774 72.4925 144.874Z" fill="#55B79D"/>
<path d="M70.2012 216.612C74.0943 217.302 104.121 219.535 114.538 218.701" stroke="#1F161E" stroke-width="0.55" stroke-miterlimit="10" stroke-linecap="round"/>
<path d="M116.122 208.81C87.7067 202.668 74.1837 205.977 83.2319 178.896" stroke="#1F161E" stroke-width="0.55" stroke-miterlimit="10" stroke-linecap="round"/>
<path d="M132.142 174.833C131.99 177.389 130.191 245.397 130.191 245.397" stroke="#1F161E" stroke-width="0.55" stroke-miterlimit="10" stroke-linecap="round"/>
<path d="M116.588 139.996C116.588 142.336 103.754 142.471 103.763 139.996V124.375H116.588V139.996Z" fill="#F8CDBA"/>
<path d="M103.816 133.674C103.816 132.284 108.032 126.339 110.475 127.155C107.459 126.079 104.953 123.568 103.843 124.339L103.816 133.674Z" fill="#1F161E"/>
<path d="M116.212 130.544C125.411 130.544 132.867 123.073 132.867 113.856C132.867 104.64 125.411 97.1682 116.212 97.1682C107.014 97.1682 99.5566 104.64 99.5566 113.856C99.5566 123.073 107.014 130.544 116.212 130.544Z" fill="#F8CDBA"/>
<path d="M134.35 119.446C134.433 118.648 133.26 117.872 131.731 117.713C130.202 117.554 128.896 118.072 128.813 118.87C128.73 119.668 129.903 120.444 131.432 120.603C132.961 120.762 134.267 120.244 134.35 119.446Z" fill="#FA9E9F"/>
<path d="M116.966 117.623C117.049 116.825 115.876 116.05 114.347 115.89C112.818 115.731 111.512 116.249 111.429 117.047C111.346 117.845 112.519 118.621 114.048 118.78C115.577 118.939 116.883 118.421 116.966 117.623Z" fill="#FA9E9F"/>
<path d="M125.144 115.461C125.582 116.25 127.918 119.631 124.982 120.6" stroke="#1F161E" stroke-width="0.69" stroke-miterlimit="10" stroke-linecap="round"/>
<path d="M119.031 123.639C118.207 123.532 117.026 122.384 116.444 121.389" stroke="#1F161E" stroke-width="0.69" stroke-miterlimit="10" stroke-linecap="round"/>
<path d="M102.751 115.461C104.778 115.461 106.421 113.815 106.421 111.785C106.421 109.754 104.778 108.108 102.751 108.108C100.725 108.108 99.082 109.754 99.082 111.785C99.082 113.815 100.725 115.461 102.751 115.461Z" fill="#F8CDBA"/>
<path d="M105.231 115.022C105.231 119.918 99.8611 123.092 98.0175 123.092C97.7312 123.127 97.4408 123.1 97.166 123.013C96.8911 122.925 96.6382 122.779 96.4244 122.586C96.2106 122.392 96.0408 122.154 95.9265 121.889C95.8123 121.624 95.7562 121.337 95.7621 121.048C95.7621 118.994 96.9614 117.246 99.4942 115.022C99.0288 114.26 95.7621 110.242 95.7621 104.521C95.7621 98.5223 99.4405 93.4917 101.902 93.4917C102.954 93.5618 103.953 93.979 104.743 94.6783C105.533 95.3775 106.07 96.3193 106.269 97.3565C106.269 88.9722 115.219 83.009 120.589 83.009C125.556 83.009 126.415 85.179 126.415 86.9366C126.415 90.8015 123.372 94.9354 122.235 95.9487C125.019 93.8952 129.395 91.8238 133.118 91.8238C135.49 91.8238 138.488 92.4963 138.488 95.7514C138.488 101.733 132.894 105.194 131.024 106.162C130.312 104.769 129.408 103.483 128.339 102.342C128.688 103.472 127.31 105.526 124.67 105.983C123.148 106.234 105.231 103.813 105.231 115.022Z" fill="#1F161E"/>
<path d="M139.553 225.301H129.547C129.547 225.301 126.495 196.821 126.495 194.588C126.495 192.355 142.399 192.633 142.399 194.588C142.399 196.543 139.553 225.301 139.553 225.301Z" fill="#1F161E"/>
<path d="M132.527 204.255C133.95 204.255 142.086 206.183 142.086 210.38C142.086 215.536 135.705 217.293 134.452 217.293C127.712 217.293 125.815 216.136 115.058 216.136C115.058 214.872 115.29 209.079 116.785 208.514C118.611 208.541 123.793 204.255 132.527 204.255Z" fill="#F8CDBA"/>
<path d="M172.21 411.281C170.421 413.322 168.219 414.957 165.75 416.078C163.281 417.199 160.601 417.78 157.891 417.783H16.029C13.3387 417.78 10.6794 417.207 8.22552 416.102C5.77162 414.997 3.57853 413.385 1.79004 411.371" stroke="#D8D8D8" stroke-width="4" stroke-linecap="round" stroke-linejoin="round"/>
<path d="M30.6434 433C33.9749 433 36.6755 430.294 36.6755 426.956C36.6755 423.618 33.9749 420.912 30.6434 420.912C27.312 420.912 24.6113 423.618 24.6113 426.956C24.6113 430.294 27.312 433 30.6434 433Z" fill="#969696"/>
<path d="M143.356 433C146.688 433 149.388 430.294 149.388 426.956C149.388 423.618 146.688 420.912 143.356 420.912C140.025 420.912 137.324 423.618 137.324 426.956C137.324 430.294 140.025 433 143.356 433Z" fill="#969696"/>
</g>
<defs>
<clipPath id="clip0">
<rect width="602" height="182" fill="white" transform="translate(2 179)"/>
</clipPath>
<clipPath id="clip1">
<rect width="442" height="291" fill="white" transform="translate(77)"/>
</clipPath>
<clipPath id="clip2">
<rect width="65" height="181" fill="white" transform="translate(489 229)"/>
</clipPath>
<clipPath id="clip3">
<rect width="133" height="30" fill="white" transform="translate(444 399)"/>
</clipPath>
<clipPath id="clip4">
<rect width="174" height="350" fill="white" transform="translate(0 83)"/>
</clipPath>
</defs>
</svg>
