<svg width="267" height="200" viewBox="0 0 267 200" fill="none" xmlns="http://www.w3.org/2000/svg">
<path opacity="0.45" d="M133.873 182.14C195.221 182.14 244.953 176.367 244.953 169.247C244.953 162.126 195.221 156.353 133.873 156.353C72.5252 156.353 22.793 162.126 22.793 169.247C22.793 176.367 72.5252 182.14 133.873 182.14Z" fill="#E6E6E6"/>
<path d="M204.08 144H165.46V156.247H204.08V144Z" fill="#E6E6E6"/>
<path d="M219.68 156.46H165.46V168.707H219.68V156.46Z" fill="#C9C9C9"/>
<path d="M175.586 42.8667H99.1797V169.253H175.586V42.8667Z" fill="#24285B"/>
<path opacity="0.07" d="M162.947 49.1134H111.674C108.253 49.1134 105.48 51.8863 105.48 55.3067V63.2467C105.48 66.6672 108.253 69.4401 111.674 69.4401H162.947C166.368 69.4401 169.14 66.6672 169.14 63.2467V55.3067C169.14 51.8863 166.368 49.1134 162.947 49.1134Z" fill="white"/>
<path d="M156 35.6067H117.106V42.8667H156V35.6067Z" fill="#1E90FF"/>
<path d="M157.534 64.74C160.538 64.74 162.974 62.3044 162.974 59.3C162.974 56.2956 160.538 53.86 157.534 53.86C154.529 53.86 152.094 56.2956 152.094 59.3C152.094 62.3044 154.529 64.74 157.534 64.74Z" fill="#1E90FF"/>
<path d="M144.047 56.72H112V61.8866H144.047V56.72Z" fill="white"/>
<path opacity="0.07" d="M162.947 80.0067H111.674C108.253 80.0067 105.48 82.7796 105.48 86.2001V94.1401C105.48 97.5605 108.253 100.333 111.674 100.333H162.947C166.368 100.333 169.14 97.5605 169.14 94.1401V86.2001C169.14 82.7796 166.368 80.0067 162.947 80.0067Z" fill="white"/>
<path d="M157.534 95.6334C160.538 95.6334 162.974 93.1978 162.974 90.1934C162.974 87.189 160.538 84.7534 157.534 84.7534C154.529 84.7534 152.094 87.189 152.094 90.1934C152.094 93.1978 154.529 95.6334 157.534 95.6334Z" fill="#1E90FF"/>
<path d="M144.047 87.6134H112V92.7801H144.047V87.6134Z" fill="white"/>
<path opacity="0.07" d="M162.947 110.9H111.674C108.253 110.9 105.48 113.673 105.48 117.093V125.033C105.48 128.454 108.253 131.227 111.674 131.227H162.947C166.368 131.227 169.14 128.454 169.14 125.033V117.093C169.14 113.673 166.368 110.9 162.947 110.9Z" fill="white"/>
<path d="M157.534 126.533C160.538 126.533 162.974 124.098 162.974 121.093C162.974 118.089 160.538 115.653 157.534 115.653C154.529 115.653 152.094 118.089 152.094 121.093C152.094 124.098 154.529 126.533 157.534 126.533Z" fill="#1E90FF"/>
<path d="M144.047 118.507H112V123.673H144.047V118.507Z" fill="white"/>
<path opacity="0.07" d="M162.947 141.793H111.674C108.253 141.793 105.48 144.566 105.48 147.987V155.927C105.48 159.347 108.253 162.12 111.674 162.12H162.947C166.368 162.12 169.14 159.347 169.14 155.927V147.987C169.14 144.566 166.368 141.793 162.947 141.793Z" fill="white"/>
<path d="M157.534 157.427C160.538 157.427 162.974 154.991 162.974 151.987C162.974 148.982 160.538 146.547 157.534 146.547C154.529 146.547 152.094 148.982 152.094 151.987C152.094 154.991 154.529 157.427 157.534 157.427Z" fill="#1E90FF"/>
<path d="M144.047 149.4H112V154.567H144.047V149.4Z" fill="white"/>
<path opacity="0.08" d="M112.427 118.967C112.427 118.967 130.294 122.967 137.307 135.393C144.32 147.82 115.56 169.247 115.56 169.247L95.6469 169.313L91.0469 148.493L101.434 133.687L112.427 118.967Z" fill="black"/>
<path d="M208.6 23.8467H164.434V55.4667H208.6V23.8467Z" fill="#2ED573"/>
<path d="M199.7 43.3333C199.7 42.8539 199.605 42.3791 199.421 41.9363C199.238 41.4934 198.969 41.0911 198.629 40.7524C198.29 40.4137 197.887 40.1452 197.444 39.9623C197.001 39.7795 196.526 39.6858 196.046 39.6867C195.85 39.6876 195.653 39.7054 195.46 39.74C195.04 38.9555 194.416 38.2998 193.652 37.8431C192.889 37.3863 192.016 37.1455 191.126 37.1467H190.946C191.165 36.2861 191.184 35.3868 191.001 34.5178C190.819 33.6487 190.44 32.8329 189.894 32.1329C189.348 31.4328 188.648 30.867 187.85 30.4789C187.051 30.0907 186.174 29.8904 185.286 29.8933C183.737 29.8933 182.252 30.5086 181.157 31.6038C180.062 32.6991 179.446 34.1845 179.446 35.7333C179.448 36.2101 179.508 36.6848 179.626 37.1467H179.446C178.142 37.1467 176.89 37.665 175.967 38.5877C175.045 39.5104 174.526 40.7618 174.526 42.0667C174.526 43.3715 175.045 44.623 175.967 45.5456C176.89 46.4683 178.142 46.9867 179.446 46.9867H196.526C197.41 46.8696 198.22 46.4336 198.805 45.7607C199.389 45.0879 199.707 44.2246 199.7 43.3333Z" fill="white"/>
<path d="M75.9996 116.753C75.9996 116.753 52.6663 114.28 53.553 126.667C54.4396 139.053 67.553 165.333 67.553 165.333H96.2196C96.2196 165.333 117.98 131.96 107.393 121.227C96.8063 110.493 94.3596 119.673 75.9996 116.753Z" fill="#1E90FF"/>
<path d="M67.4738 169.313L84.9271 174.02L100.407 166.167L102.76 161.973H87.1538H62.3271L67.4738 169.313Z" fill="#24285B"/>
<path d="M64.7532 130.147C66.9399 122.813 62.8132 114.813 54.9932 120.693C49.6599 124.693 43.2866 137.493 42.9932 149.36C42.2332 176.567 75.6066 147.293 79.7532 131.713L75.6466 129.287C75.6466 129.287 68.6666 142.313 61.1533 145.14C55.7133 147.18 61.5266 140.947 64.7532 130.147Z" fill="#1E90FF"/>
<path opacity="0.46" d="M64.7532 130.147C66.9399 122.813 62.8132 114.813 54.9932 120.693C49.6599 124.693 43.2866 137.493 42.9932 149.36C42.2332 176.567 75.6066 147.293 79.7532 131.713L75.6466 129.287C75.6466 129.287 68.6666 142.313 61.1533 145.14C55.7133 147.18 61.5266 140.947 64.7532 130.147Z" fill="white"/>
<path d="M75.9998 116.753C75.9998 116.753 72.4131 122.407 75.9331 124.427C79.4531 126.447 80.5998 124.147 80.5998 124.147C80.5998 124.147 83.2198 127.24 85.5664 124.813C87.9131 122.387 87.5664 117.64 85.1864 115.433C82.8064 113.227 75.9998 116.753 75.9998 116.753Z" fill="white"/>
<path d="M76.8336 116.94C76.998 117.98 77.1026 119.028 77.1469 120.08C77.1936 121.527 77.6536 123.673 79.9336 124.08C83.4469 124.747 84.3869 119.173 84.3869 119.173C84.3869 119.173 86.5935 113.96 82.7936 113.247C79.3669 112.62 76.1336 112.16 76.8336 116.94Z" fill="#F4A28C"/>
<path opacity="0.08" d="M90.387 124.78C90.387 124.78 88.207 129.36 93.7203 138.78C96.8736 144.153 87.1536 153.12 87.1536 153.12L62.9736 155.547L67.5203 165.333H96.187C96.187 165.333 108.787 144.84 109.76 134.293C110.734 123.747 90.387 124.78 90.387 124.78Z" fill="black"/>
<path d="M84.167 119.413C84.167 119.413 84.367 117.72 85.8403 117.793C87.3137 117.867 86.7337 121.02 84.167 119.413Z" fill="#F4A28C"/>
<path d="M77.6802 118.467C77.6802 118.467 78.2002 116.847 76.8268 116.307C75.4535 115.767 74.6668 118.873 77.6802 118.467Z" fill="#F4A28C"/>
<path d="M68.6137 160.487L66.5938 142.053H97.5404L94.4537 161.427L94.8937 163.913L68.2871 164.127L68.6137 160.487Z" fill="#2ED573"/>
<path d="M81.0731 169.333C81.0731 169.333 86.9464 171.387 84.9264 174.04C82.9064 176.693 79.7197 172.287 79.7197 172.287L81.0731 169.333Z" fill="#1E90FF"/>
<path opacity="0.08" d="M97.5404 142.053L91.4071 150.153C87.8256 154.882 82.9889 158.511 77.4471 160.627L68.2871 164.127L92.8271 163.927H94.8938L94.4538 161.44L97.5404 142.053Z" fill="black"/>
<path d="M76.8333 116.94C76.8333 116.94 71.14 116.12 73.68 111.933C76.22 107.747 76.7933 110.887 77.9933 107.64C79.1933 104.393 80.28 103.767 82.0467 105.153C83.8133 106.54 82.1 109.44 84.7667 108.627C87.4333 107.813 89.2533 107.047 89.76 109.26C90.2667 111.473 89.76 112.527 88.0467 113.26C86.3333 113.993 89.0267 116.993 84.7133 118.207C80.4 119.42 78.1533 114.7 78.1533 114.7L76.8333 116.94Z" fill="#24285B"/>
<path d="M81.2531 168.287C81.2531 168.287 57.5131 156.167 55.4931 162.62C53.4731 169.073 69.8264 172.813 80.3864 173.2L81.2531 168.287Z" fill="#24285B"/>
<path d="M82.3731 154.633C83.8385 154.633 85.0264 153.445 85.0264 151.98C85.0264 150.515 83.8385 149.327 82.3731 149.327C80.9077 149.327 79.7197 150.515 79.7197 151.98C79.7197 153.445 80.9077 154.633 82.3731 154.633Z" fill="white"/>
<path d="M87.0195 169.24C87.0195 169.24 105.953 150.48 109.833 156.007C113.713 161.533 99.2795 170.073 89.3329 173.653L87.0195 169.24Z" fill="#24285B"/>
<path d="M87.7603 170.667C87.7603 170.667 82.1536 175.66 85.4003 177.133C88.6469 178.607 89.3336 173.667 89.3336 173.667L87.7603 170.667Z" fill="#1E90FF"/>
<path d="M90.3862 124.78C90.168 122.67 90.797 120.559 92.1347 118.913C93.4724 117.266 95.4094 116.219 97.5195 116C101.8 115.54 107.426 115.827 112.426 118.96C122.133 125.04 132.866 129.893 130.22 140.92C127.573 151.947 108.313 156.573 108.313 156.573L105.74 152.387C105.74 152.387 122.72 146.653 119.633 137.687C116.846 129.607 92.2128 143.113 90.3862 124.78Z" fill="#1E90FF"/>
<path opacity="0.46" d="M90.3862 124.78C90.168 122.67 90.797 120.559 92.1347 118.913C93.4724 117.266 95.4094 116.219 97.5195 116C101.8 115.54 107.426 115.827 112.426 118.96C122.133 125.04 132.866 129.893 130.22 140.92C127.573 151.947 108.313 156.573 108.313 156.573L105.74 152.387C105.74 152.387 122.72 146.653 119.633 137.687C116.846 129.607 92.2128 143.113 90.3862 124.78Z" fill="white"/>
<path d="M106.167 153.087C106.167 153.087 100.834 156.707 102.76 157.707C104.687 158.707 107.987 156.053 107.987 156.053L106.167 153.087Z" fill="#F4A28C"/>
<path d="M76.333 129.687C76.333 129.687 78.253 124.987 80.8797 125.367C83.5063 125.747 79.4063 131.5 79.4063 131.5L76.333 129.687Z" fill="#F4A28C"/>
<path d="M191.194 44.9267L186.954 38.9L182.707 44.9267H184.834V49.6H189.007V44.9267H191.194Z" fill="#24285B"/>
<path d="M72.4264 66.8134H28.2598V98.4333H72.4264V66.8134Z" fill="#2ED573"/>
<path d="M63.5267 86.3133C63.5267 85.3462 63.1425 84.4186 62.4586 83.7347C61.7747 83.0509 60.8472 82.6667 59.88 82.6667C59.6833 82.6673 59.487 82.6851 59.2933 82.72C58.8734 81.936 58.2485 81.2807 57.4854 80.824C56.7222 80.3673 55.8494 80.1263 54.96 80.1267H54.78C54.9945 79.2659 55.0101 78.3675 54.8256 77.4998C54.6411 76.632 54.2614 75.8177 53.7152 75.1187C53.1689 74.4197 52.4707 73.8542 51.6733 73.4654C50.8759 73.0765 50.0005 72.8744 49.1133 72.8744C48.2262 72.8744 47.3507 73.0765 46.5534 73.4654C45.756 73.8542 45.0577 74.4197 44.5115 75.1187C43.9653 75.8177 43.5856 76.632 43.4011 77.4998C43.2165 78.3675 43.2321 79.2659 43.4467 80.1267H43.2667C41.9618 80.1267 40.7104 80.645 39.7877 81.5677C38.865 82.4904 38.3467 83.7418 38.3467 85.0467C38.3467 86.3515 38.865 87.6029 39.7877 88.5256C40.7104 89.4483 41.9618 89.9667 43.2667 89.9667H60.3533C61.2369 89.8496 62.0472 89.4136 62.6316 88.7407C63.2161 88.0679 63.5344 87.2045 63.5267 86.3133Z" fill="white"/>
<path d="M46.54 88.42L50.78 94.44L55.02 88.42H52.8934V83.74H48.72V88.42H46.54Z" fill="#24285B"/>
</svg>
