<svg width="267" height="200" viewBox="0 0 267 200" fill="none" xmlns="http://www.w3.org/2000/svg">
<path opacity="0.2" d="M34.1798 52.1867C41.5584 52.1867 47.5398 46.2052 47.5398 38.8267C47.5398 31.4482 41.5584 25.4667 34.1798 25.4667C26.8013 25.4667 20.8198 31.4482 20.8198 38.8267C20.8198 46.2052 26.8013 52.1867 34.1798 52.1867Z" fill="#2ED573"/>
<path opacity="0.2" d="M236.88 37.9267C244.258 37.9267 250.24 31.9452 250.24 24.5667C250.24 17.1881 244.258 11.2067 236.88 11.2067C229.501 11.2067 223.52 17.1881 223.52 24.5667C223.52 31.9452 229.501 37.9267 236.88 37.9267Z" fill="#2ED573"/>
<path d="M198.473 44.3134H69.5933V134.253H198.473V44.3134Z" fill="#E6E6E6"/>
<path opacity="0.08" d="M180.987 55.4933C180.987 55.4933 178.827 55.2933 178.88 59.9666C178.934 64.64 182.667 68 182.667 68L181.714 76.4733C181.714 76.4733 160.46 71.6 157.627 86.1333C154.794 100.667 156.16 111.233 146.794 106.333C137.427 101.433 133.16 81.2866 133.16 81.2866C133.16 81.2866 127.127 80.5733 129.127 87.54C131.127 94.5066 130.96 120.573 145.627 121.787C160.294 123 169.96 125.22 168.294 134.273H199.82V101.733L187.82 67.0666L186.507 58L180.987 55.4933Z" fill="black"/>
<path opacity="0.08" d="M75.7001 85.1533C75.7001 85.1533 80.0468 83.8199 80.6068 90.3733C81.1668 96.9266 86.2201 100.467 87.7201 107.393C89.2201 114.32 99.3801 106.927 104.12 116.887C104.12 116.887 112.073 109.447 118.047 113.94C124.02 118.433 112.047 118.847 112.047 118.847L106.78 132.067L122.5 132.273L127.547 114.807L131.82 115.473L127.733 134.26L82.0335 133.487L75.6801 104.56L72.2935 94L75.7001 85.1533Z" fill="black"/>
<path d="M96.0535 136.607L109.673 114.173C109.673 114.173 114.76 114.173 115.607 112.113C116.134 110.827 112.973 110.493 110.527 110.42C109.704 110.398 108.886 110.548 108.124 110.859C107.362 111.17 106.673 111.636 106.1 112.227L89.3335 129.407C89.3335 129.407 86.0468 139.68 96.0535 136.607Z" fill="#F4A28C"/>
<path opacity="0.08" d="M96.0535 136.607L109.673 114.173C109.673 114.173 114.76 114.173 115.607 112.113C116.134 110.827 112.973 110.493 110.527 110.42C109.704 110.398 108.886 110.548 108.124 110.859C107.362 111.17 106.673 111.636 106.1 112.227L89.3335 129.407C89.3335 129.407 86.0468 139.68 96.0535 136.607Z" fill="black"/>
<path d="M114.8 146.827C114.8 146.827 119.706 151.453 113.346 151.267C106.986 151.08 109.333 146.133 114.8 146.827Z" fill="#1E90FF"/>
<path d="M75.8399 94.32C75.8399 94.32 85.3466 101.427 80.8666 104.173C76.3866 106.92 72.9199 93.6533 72.9199 93.6533L75.8399 94.32Z" fill="#24285B"/>
<path opacity="0.45" d="M129.067 185.78C182.48 185.78 225.78 181.112 225.78 175.353C225.78 169.595 182.48 164.927 129.067 164.927C75.6536 164.927 32.3535 169.595 32.3535 175.353C32.3535 181.112 75.6536 185.78 129.067 185.78Z" fill="#E6E6E6"/>
<path d="M75.7933 88.2533C76.1874 89.9323 76.3556 91.6564 76.2933 93.38C76.2718 93.5838 76.2101 93.7814 76.1118 93.9613C76.0135 94.1412 75.8806 94.2998 75.7207 94.4281C75.5608 94.5564 75.3771 94.6518 75.1802 94.7087C74.9833 94.7657 74.777 94.7831 74.5733 94.76C73.9128 94.7293 73.2751 94.5085 72.737 94.1241C72.1989 93.7398 71.7832 93.2082 71.54 92.5933L70.2067 90.0466C69.9969 89.511 69.9593 88.9233 70.0991 88.3653C70.2389 87.8073 70.5491 87.3067 70.9867 86.9333C72.56 85.4333 75.4533 86.3933 75.7933 88.2533Z" fill="#F4A28C"/>
<path d="M70.4868 91.6267L71.4401 101.733L76.9735 100.807L74.0601 93.8267L70.4868 91.6267Z" fill="#F4A28C"/>
<path d="M72.92 91.3334C72.92 91.3334 72.7267 90.16 71.8534 90.38C70.98 90.6 71.2534 92.3067 72.48 92.2867L72.92 91.3334Z" fill="#F4A28C"/>
<path d="M76.1465 90.1801L77.1732 91.2334C77.2318 91.2929 77.2743 91.3664 77.2968 91.4469C77.3192 91.5274 77.3209 91.6122 77.3015 91.6935C77.2822 91.7748 77.2426 91.8499 77.1863 91.9117C77.13 91.9734 77.059 92.0199 76.9798 92.0467L75.8398 92.4401L76.1465 90.1801Z" fill="#F4A28C"/>
<path d="M96.4998 138.553C96.4998 138.553 115.426 133.753 117.893 142.12C120.36 150.487 91.4265 149.66 91.4265 149.66L84.8398 144.447L96.4998 138.553Z" fill="#24285B"/>
<path d="M76.9735 100.807C76.9735 100.807 87.9935 101.933 95.6735 110.707C100.24 115.92 98.5135 120.26 96.3401 122.927C95.4397 124.069 94.8369 125.416 94.5855 126.848C94.3342 128.281 94.4423 129.753 94.9001 131.133L97.1801 138.247C97.1801 138.247 85.0135 146.093 77.3335 145.273C69.6535 144.453 45.3801 102 76.9735 100.807Z" fill="#1E90FF"/>
<path opacity="0.08" d="M62.0001 109.727C61.1826 112.386 60.9551 115.191 61.3335 117.947C62.0668 121.987 65.8935 148.827 91.1535 141.58L97.1868 138.247L90.7868 132.833L78.5468 120L73.2135 109.707L62.0001 109.727Z" fill="black"/>
<path d="M70.6267 127.86C65.2133 111.453 41.0266 114.14 38.96 131.293C36.82 149.007 39.24 173.447 67.7533 176.627C113.087 181.667 120.24 161.187 113.84 150.393C107.44 139.6 75.62 145.273 70.8667 128.633C70.7867 128.367 70.7133 128.113 70.6267 127.86Z" fill="#E6E6E6"/>
<path d="M108 137.107C108 137.107 114.32 138.64 114.78 134.613L107.873 134.247L108 137.107Z" fill="#F4A28C"/>
<path d="M69.5935 110.193C69.5785 109.331 69.7964 108.48 70.2242 107.73C70.6519 106.981 71.2738 106.361 72.0244 105.935C72.775 105.509 73.6264 105.294 74.4891 105.311C75.3519 105.328 76.194 105.578 76.9268 106.033C79.0935 107.467 81.2335 110.42 82.5202 116.213C85.0335 127.547 91.3068 132.42 108 133.887V137.107C108 137.107 70.2668 146.707 69.5935 110.193Z" fill="#F4A28C"/>
<path d="M75.1669 88.9933C75.5276 88.842 75.8428 88.5995 76.0813 88.2894C76.3199 87.9794 76.4736 87.6127 76.5275 87.2252C76.5813 86.8378 76.5333 86.443 76.3883 86.0797C76.2432 85.7164 76.0061 85.3971 75.7002 85.1533C75.3601 84.8829 74.9858 84.6588 74.5869 84.4866C71.9202 83.3866 65.6402 84.1599 66.0535 90.1533C66.4669 96.1466 56.4669 109.767 65.5002 113.487C74.5335 117.207 82.0535 112.293 82.0535 107.907C82.0535 103.52 73.4869 102.467 72.9202 98.6266C72.6935 97.06 72.4735 95.4 72.2935 93.96C72.1693 92.9325 72.3824 91.8925 72.9006 90.9967C73.4189 90.1009 74.2143 89.3978 75.1669 88.9933Z" fill="#24285B"/>
<path d="M123.533 132.067H103.967V134.88H123.533V132.067Z" fill="#2ED573"/>
<path d="M120.96 133.48L127.28 112.713L129.093 113.127L123.533 134.88L120.96 133.48Z" fill="#2ED573"/>
<path opacity="0.45" d="M54.6999 153.393C51.5132 150.48 46.5132 153.673 47.8932 157.767C49.8465 163.547 54.3332 169.227 64.1932 170.907C86.3465 174.673 84.1932 166.48 82.7599 162.907C81.5932 160 66.9199 164.54 54.6999 153.393Z" fill="white"/>
<path opacity="0.39" d="M141.226 79.86H125.026V82.6667H141.226V79.86Z" fill="#A5A5A5"/>
<path opacity="0.18" d="M141.226 86.1067H125.026V88.9134H141.226V86.1067Z" fill="#A5A5A5"/>
<path opacity="0.39" d="M169.733 79.86H153.533V82.6667H169.733V79.86Z" fill="#A5A5A5"/>
<path opacity="0.18" d="M169.733 86.1067H153.533V88.9134H169.733V86.1067Z" fill="#A5A5A5"/>
<path d="M178.58 78.0533C177.92 77.2979 177.107 76.6908 176.196 76.2719C175.284 75.853 174.294 75.6319 173.291 75.6231C172.288 75.6143 171.294 75.8179 170.375 76.2207C169.456 76.6235 168.633 77.2163 167.96 77.96C163.379 83.0147 160.798 89.5658 160.7 96.3867C160.227 112.193 149.06 110.627 137.453 84.7533L131.84 87.82C131.84 87.82 147.213 138.933 170.7 109.947C185 92.3067 182.627 82.7933 178.58 78.0533Z" fill="#1E90FF"/>
<path opacity="0.08" d="M176.147 75.8133C175.218 75.1256 174.08 74.7804 172.925 74.8363C171.771 74.8922 170.671 75.3458 169.813 76.12C166.985 78.6919 164.716 81.8185 163.148 85.3052C161.58 88.7919 160.747 92.564 160.7 96.3867C160.227 112.193 149.06 110.627 137.453 84.7533L131.84 87.82C131.84 87.82 147.213 138.933 170.7 109.947C187.773 88.8867 181.08 79.4133 176.147 75.8133Z" fill="black"/>
<path d="M183.114 58.3266C183.114 58.3266 182.627 62.0133 183.114 64.5066C183.163 64.7482 183.26 64.9777 183.398 65.1816C183.537 65.3856 183.714 65.5599 183.921 65.6945C184.128 65.8291 184.359 65.9213 184.601 65.9658C184.844 66.0102 185.093 66.0059 185.334 65.9533C186.115 65.8324 186.845 65.4889 187.436 64.964C188.027 64.439 188.455 63.7548 188.667 62.9933L189.927 59.7933C190.111 59.1242 190.081 58.4146 189.842 57.7633C189.603 57.112 189.166 56.5515 188.594 56.1599C186.667 54.5599 183.294 56.0599 183.114 58.3266Z" fill="#F4A28C"/>
<path d="M189.754 60.3733L191.134 72.4933L184.4 72.78L186.1 63.8466L189.754 60.3733Z" fill="#F4A28C"/>
<path d="M184 58.5199C185.147 58.6191 186.301 58.5811 187.44 58.4066C187.085 58.898 186.882 59.482 186.855 60.0871C186.828 60.6922 186.978 61.2921 187.286 61.8133C187.577 62.3228 188.036 62.7153 188.585 62.9233C189.133 63.1313 189.737 63.1419 190.293 62.9533L190.446 58.1733C190.492 57.49 190.351 56.8072 190.038 56.1978C189.726 55.5884 189.254 55.0753 188.673 54.7133C188.173 54.3934 187.652 54.1083 187.113 53.8599C185.78 53.2466 183.706 54.0799 182.513 53.0933C182.392 52.9963 182.249 52.9321 182.096 52.9068C181.943 52.8816 181.787 52.8961 181.641 52.9491C181.496 53.002 181.366 53.0916 181.266 53.2091C181.165 53.3266 181.096 53.4681 181.066 53.6199C180.786 55.0599 180.946 57.3599 182.88 58.2399C183.234 58.3961 183.613 58.4907 184 58.5199Z" fill="#24285B"/>
<path d="M186.92 61.6867C186.92 61.6867 187.013 60.2533 188.087 60.4133C189.16 60.5733 189.033 62.6333 187.567 62.7667L186.92 61.6867Z" fill="#F4A28C"/>
<path d="M182.927 60.6666L181.827 62.0533C181.765 62.132 181.724 62.2251 181.707 62.3238C181.69 62.4226 181.698 62.5241 181.731 62.6189C181.763 62.7137 181.819 62.7988 181.893 62.8665C181.967 62.9343 182.056 62.9824 182.153 63.0066L183.567 63.3333L182.927 60.6666Z" fill="#F4A28C"/>
<path opacity="0.31" d="M185.64 65.7867C186.487 65.6116 187.265 65.1948 187.88 64.5867C187.88 64.5867 187.68 66.8067 185.14 68.9L185.64 65.7867Z" fill="#CE8172"/>
<path d="M177.453 72.6667C177.453 72.6667 202.473 67.06 211.453 72.0867C220.433 77.1133 202.826 124.46 202.826 124.46L175.2 123.587C175.2 123.587 151.006 77.4467 177.453 72.6667Z" fill="#1E90FF"/>
<path d="M183.04 168.893C183.04 168.893 181.753 171.213 179.493 171.04C177.233 170.867 176.307 172.947 178.213 173.833C180.12 174.72 185.7 172.993 185.7 172.993L186.18 168.893H183.04Z" fill="#1E90FF"/>
<path d="M203.28 168.38C203.28 168.38 204.193 170.867 206.447 171.047C208.7 171.227 209.313 173.42 207.293 174.013C205.273 174.607 200 172 200 172L200.153 167.873L203.28 168.38Z" fill="#1E90FF"/>
<path d="M136.274 85.4001C136.274 85.4001 136.62 79.6867 132.94 78.2534C129.26 76.82 132.94 87.2134 132.94 87.2134L136.274 85.4001Z" fill="#F4A28C"/>
<path opacity="0.08" d="M199.173 76.4467C199.173 76.4467 191.273 81.5733 195.293 93.2666C199.313 104.96 199.96 113.353 190.48 110.42C181 107.487 181.68 94.42 181.68 94.42L172 95.8867L171.066 114.473L175.18 123.56L199.18 122.053L208.96 119.553L212.6 107.333L205.933 86.56L199.173 76.4467Z" fill="black"/>
<path d="M175.18 123.56L182.246 168.893H186.866C186.866 168.893 182.586 134.8 190.06 130.687C197.533 126.573 199 168.893 199 168.893L203.9 168.5L203.846 121.76L175.18 123.56Z" fill="#24285B"/>
<path d="M204.053 70.5734C204.053 70.5734 219.62 67.9467 219.62 92.44C219.62 116.933 215.873 138.733 179.953 116.887L182.686 112.713C182.686 112.713 202.02 121.233 206.146 113.753C210.273 106.273 190 74.7267 204.053 70.5734Z" fill="#1E90FF"/>
<path opacity="0.46" d="M204.053 70.5734C204.053 70.5734 219.62 67.9467 219.62 92.44C219.62 116.933 215.873 138.733 179.953 116.887L182.686 112.713C182.686 112.713 202.02 121.233 206.146 113.753C210.273 106.273 190 74.7267 204.053 70.5734Z" fill="white"/>
<path d="M141.226 59.9667H125.026V74.2133H141.226V59.9667Z" fill="#2ED573"/>
<path opacity="0.46" d="M135.24 56.4H131.327V64.3534H135.24V56.4Z" fill="white"/>
<path d="M112.067 59.9667H95.8667V74.2133H112.067V59.9667Z" fill="#A5A5A5"/>
<path opacity="0.46" d="M106.073 56.4H102.16V64.3534H106.073V56.4Z" fill="white"/>
<path d="M169.733 59.9667H153.533V74.2133H169.733V59.9667Z" fill="#A5A5A5"/>
<path d="M175.6 92.3619L162.424 95.6764L167.386 115.402L180.562 112.087L175.6 92.3619Z" fill="#2ED573"/>
<path opacity="0.46" d="M163.746 56.4H159.833V64.3534H163.746V56.4Z" fill="white"/>
<path d="M182.667 112.713C182.667 112.713 176.18 107.58 175.16 111.507C174.14 115.433 180.867 115.46 180.867 115.46L182.667 112.713Z" fill="#F4A28C"/>
<path opacity="0.39" d="M112.067 79.86H95.8667V82.6667H112.067V79.86Z" fill="#A5A5A5"/>
<path opacity="0.18" d="M112.067 86.1067H95.8667V88.9134H112.067V86.1067Z" fill="#A5A5A5"/>
<path d="M245.154 26.1067C245.495 24.7785 245.505 23.3869 245.184 22.0537C244.863 20.7205 244.22 19.4863 243.312 18.4589C242.404 17.4316 241.257 16.6425 239.974 16.1606C238.69 15.6788 237.307 15.5188 235.947 15.6947C234.587 15.8707 233.291 16.3771 232.172 17.1699C231.053 17.9626 230.146 19.0174 229.529 20.2421C228.912 21.4667 228.604 22.8239 228.633 24.1949C228.661 25.5659 229.026 26.909 229.694 28.1067C230.534 29.6323 230.754 31.4232 230.307 33.1067L230.24 33.3867L238.287 35.4467L238.34 35.24C238.794 33.5316 239.893 32.0662 241.407 31.1533C243.262 30.0199 244.606 28.2107 245.154 26.1067Z" fill="#2ED573"/>
<path d="M232.16 33.9134C232.092 33.8976 232.033 33.8578 231.992 33.8014C231.952 33.745 231.933 33.6758 231.94 33.6067L232.873 22.88C232.876 22.8415 232.887 22.8039 232.905 22.7696C232.923 22.7353 232.948 22.7048 232.978 22.6801C233.007 22.6553 233.042 22.6366 233.079 22.6252C233.116 22.6137 233.155 22.6097 233.193 22.6134C233.231 22.6158 233.268 22.626 233.302 22.6433C233.336 22.6606 233.366 22.6847 233.391 22.714C233.415 22.7433 233.433 22.7773 233.444 22.8139C233.455 22.8505 233.458 22.8889 233.453 22.9267L232.52 33.6534C232.517 33.6917 232.507 33.7291 232.49 33.7634C232.473 33.7976 232.449 33.8281 232.42 33.853C232.39 33.8779 232.356 33.8966 232.32 33.9081C232.283 33.9196 232.245 33.9237 232.206 33.92L232.16 33.9134Z" fill="white"/>
<path d="M236.4 35H236.354C236.283 34.968 236.228 34.9094 236.201 34.8369C236.173 34.7645 236.176 34.6841 236.207 34.6133L240.54 24.76C240.555 24.7239 240.577 24.6911 240.604 24.6636C240.632 24.6362 240.665 24.6146 240.701 24.6003C240.737 24.5859 240.776 24.5791 240.815 24.5802C240.854 24.5813 240.892 24.5903 240.927 24.6067C240.998 24.6387 241.053 24.6973 241.08 24.7698C241.108 24.8422 241.105 24.9226 241.074 24.9934L236.74 34.8467C236.709 34.9069 236.659 34.9548 236.597 34.9826C236.535 35.0104 236.466 35.0166 236.4 35Z" fill="white"/>
<path d="M239.283 34.3758L230.066 32.0164L228.205 39.2885L237.421 41.6479L239.283 34.3758Z" fill="#24285B"/>
<path d="M237.333 26.2467C237.128 26.1727 236.942 26.0515 236.791 25.8929C236.641 25.7343 236.53 25.5427 236.467 25.3333C236.38 25.1267 236.267 25.0133 236.147 24.9933C235.867 24.9467 235.44 25.3133 235.28 25.4933C235.227 25.5468 235.156 25.5781 235.081 25.5809C235.006 25.5836 234.933 25.5576 234.877 25.5081C234.821 25.4586 234.786 25.3894 234.779 25.3148C234.772 25.2401 234.794 25.1657 234.84 25.1067C234.913 25.0267 235.567 24.3067 236.24 24.44C236.414 24.4763 236.576 24.5566 236.71 24.6733C236.844 24.7901 236.946 24.9393 237.007 25.1067C237.113 25.3467 237.28 25.6467 237.52 25.68C237.76 25.7133 238.107 25.42 238.187 25.3133C238.209 25.2784 238.239 25.2486 238.274 25.226C238.309 25.2033 238.348 25.1884 238.389 25.1821C238.43 25.1759 238.472 25.1784 238.512 25.1896C238.552 25.2008 238.589 25.2204 238.621 25.247C238.653 25.2737 238.679 25.3069 238.697 25.3443C238.715 25.3817 238.725 25.4226 238.726 25.4642C238.728 25.5057 238.72 25.5471 238.704 25.5854C238.688 25.6238 238.664 25.6583 238.633 25.6867C238.489 25.8699 238.305 26.0171 238.094 26.1166C237.884 26.2161 237.653 26.2652 237.42 26.26L237.333 26.2467Z" fill="white"/>
<path opacity="0.21" d="M243.081 21.8945C243.772 21.0044 243.41 19.5673 242.273 18.6848C241.135 17.8022 239.653 17.8084 238.963 18.6985C238.272 19.5886 238.634 21.0256 239.771 21.9082C240.909 22.7907 242.391 22.7846 243.081 21.8945Z" fill="white"/>
<path d="M42.5133 37.6267C42.4184 36.2564 41.9889 34.9304 41.2624 33.7646C40.536 32.5989 39.5348 31.6291 38.3465 30.9402C37.1582 30.2513 35.8191 29.8643 34.4465 29.8131C33.0739 29.7619 31.7097 30.0481 30.4734 30.6465C29.2371 31.245 28.1664 32.1376 27.3551 33.2459C26.5438 34.3543 26.0168 35.6447 25.82 37.0041C25.6233 38.3635 25.7629 39.7504 26.2266 41.0433C26.6904 42.3362 27.4641 43.4956 28.48 44.42C29.7698 45.5983 30.5535 47.2301 30.6666 48.9734V49.26L38.9533 48.6667V48.4601C38.8405 46.695 39.4218 44.9558 40.5733 43.6134C41.9738 41.946 42.6697 39.7986 42.5133 37.6267Z" fill="#2ED573"/>
<path d="M32.6664 49.1334C32.5982 49.1398 32.5299 49.1209 32.4746 49.0804C32.4193 49.0398 32.3808 48.9804 32.3664 48.9134L29.8464 38.4334C29.8375 38.3966 29.836 38.3584 29.8419 38.321C29.8478 38.2837 29.8611 38.2478 29.8809 38.2156C29.9007 38.1834 29.9268 38.1554 29.9575 38.1333C29.9882 38.1111 30.0229 38.0953 30.0598 38.0867C30.1349 38.0685 30.2142 38.0808 30.2803 38.1207C30.3465 38.1607 30.3942 38.2251 30.4131 38.3L32.9064 48.7734C32.9153 48.811 32.9167 48.8501 32.9104 48.8882C32.9042 48.9264 32.8904 48.963 32.87 48.9958C32.8495 49.0287 32.8228 49.0571 32.7913 49.0796C32.7598 49.1021 32.7242 49.1181 32.6864 49.1267L32.6664 49.1334Z" fill="white"/>
<path d="M37.0134 48.8267H36.9601C36.8834 48.8183 36.8131 48.78 36.7644 48.7201C36.7157 48.6602 36.6926 48.5835 36.7001 48.5067L37.7068 37.7867C37.7101 37.7484 37.7211 37.7111 37.7391 37.6771C37.7571 37.6431 37.7818 37.6131 37.8116 37.5888C37.8415 37.5646 37.8759 37.5466 37.9129 37.5359C37.9498 37.5252 37.9886 37.5221 38.0268 37.5267C38.1035 37.5351 38.1738 37.5734 38.2225 37.6333C38.2712 37.6932 38.2943 37.7699 38.2868 37.8467L37.2801 48.5667C37.2739 48.6347 37.2436 48.6983 37.1948 48.7459C37.1459 48.7936 37.0816 48.8222 37.0134 48.8267Z" fill="white"/>
<path d="M39.5423 47.3386L30.0522 48.0039L30.5772 55.4922L40.0672 54.8269L39.5423 47.3386Z" fill="#24285B"/>
<path d="M35.1399 40.2267C34.9225 40.2216 34.7094 40.1659 34.5173 40.0641C34.3252 39.9622 34.1595 39.8171 34.0332 39.6401C33.8799 39.4734 33.7399 39.3934 33.6199 39.4134C33.3399 39.4601 33.0466 39.9401 32.9532 40.1667C32.9387 40.202 32.9172 40.234 32.8901 40.2609C32.863 40.2878 32.8309 40.309 32.7955 40.3233C32.7601 40.3376 32.7222 40.3447 32.684 40.3441C32.6459 40.3436 32.6082 40.3354 32.5732 40.3201C32.5373 40.3062 32.5046 40.2852 32.477 40.2584C32.4494 40.2316 32.4275 40.1995 32.4126 40.164C32.3977 40.1286 32.39 40.0905 32.3901 40.052C32.3902 40.0135 32.3981 39.9754 32.4132 39.9401C32.4599 39.8401 32.8532 38.9467 33.5266 38.8401C33.706 38.8175 33.8881 38.8441 34.0537 38.9169C34.2192 38.9897 34.3619 39.106 34.4666 39.2534C34.6466 39.4534 34.8999 39.6801 35.1332 39.6401C35.3666 39.6001 35.6066 39.2067 35.6599 39.0734C35.6739 39.0375 35.6948 39.0047 35.7215 38.9769C35.7482 38.9491 35.7801 38.9268 35.8154 38.9114C35.8507 38.8959 35.8886 38.8875 35.9272 38.8867C35.9657 38.8859 36.004 38.8927 36.0399 38.9067C36.0758 38.9207 36.1086 38.9417 36.1364 38.9684C36.1642 38.995 36.1864 39.0269 36.2019 39.0622C36.2174 39.0975 36.2258 39.1355 36.2266 39.174C36.2274 39.2125 36.2206 39.2508 36.2066 39.2867C36.2066 39.3667 35.8732 40.1001 35.2332 40.2134L35.1399 40.2267Z" fill="white"/>
<path opacity="0.21" d="M39.2059 34.275C39.5807 33.2125 38.7839 31.963 37.4263 31.4841C36.0687 31.0052 34.6642 31.4783 34.2895 32.5408C33.9147 33.6033 34.7114 34.8528 36.0691 35.3317C37.4267 35.8106 38.8311 35.3375 39.2059 34.275Z" fill="white"/>
<path opacity="0.32" d="M202.927 64.5866C202.927 64.5866 233.733 81.2533 231.94 42.8066" stroke="#A5A5A5" stroke-width="2" stroke-linecap="round" stroke-linejoin="round" stroke-dasharray="2 10"/>
<path opacity="0.32" d="M34.6665 60C34.6665 60 21.4398 97.1267 58.4398 99.48" stroke="#A5A5A5" stroke-width="2" stroke-linecap="round" stroke-linejoin="round" stroke-dasharray="2 10"/>
</svg>
