<svg width="585" height="493" viewBox="0 0 585 493" fill="none" xmlns="http://www.w3.org/2000/svg">
<g clip-path="url(#clip0)">
<path d="M298.567 493C434.736 493 545.124 382.638 545.124 246.5C545.124 110.362 434.736 0 298.567 0C162.397 0 52.0098 110.362 52.0098 246.5C52.0098 382.638 162.397 493 298.567 493Z" fill="#FAEFE9"/>
<path d="M435.401 139.035H284.213V373.098H435.401V139.035Z" fill="white"/>
<path d="M253.912 281.897H408.927" stroke="black" stroke-miterlimit="10"/>
<path d="M253.912 297.203H408.927" stroke="black" stroke-miterlimit="10"/>
<path d="M253.912 312.51H408.927" stroke="black" stroke-miterlimit="10"/>
<path d="M253.912 327.816H408.927" stroke="black" stroke-miterlimit="10"/>
<path d="M359.807 246.819C381.651 246.819 399.358 229.115 399.358 207.277C399.358 185.438 381.651 167.735 359.807 167.735C337.964 167.735 320.256 185.438 320.256 207.277C320.256 229.115 337.964 246.819 359.807 246.819Z" fill="#F2F2F2"/>
<path opacity="0.7" d="M471.443 222.265H408.927V280.302H471.443V222.265Z" fill="#50B89D"/>
<path d="M429.349 253.659L439.776 257.873V261.138L426.151 254.825V252.393L439.776 246.097V249.362L429.349 253.659ZM427.9 306.468H425.251L435.379 280.134H438.011L427.9 306.468ZM438.194 333.559L427.184 329.245V326.08L441.409 332.376V334.808L427.184 341.121V337.923L438.194 333.559Z" fill="white"/>
<path d="M360.445 23.9166H22.9843V245.862H360.445V23.9166Z" stroke="black" stroke-miterlimit="10"/>
<path d="M22.9843 35.7154H360.445" stroke="black" stroke-miterlimit="10"/>
<path d="M148.974 55.4864H47.5443V156.893H148.974V55.4864Z" stroke="black" stroke-miterlimit="10"/>
<path d="M168.43 64.4153H323.446" stroke="black" stroke-miterlimit="10"/>
<path d="M168.43 79.7219H323.446" stroke="black" stroke-miterlimit="10"/>
<path d="M168.43 95.0285H323.446" stroke="black" stroke-miterlimit="10"/>
<path d="M168.43 110.335H323.446" stroke="black" stroke-miterlimit="10"/>
<path opacity="0.44" d="M98.2591 82.273L70.6371 130.106H125.881L98.2591 82.273Z" fill="#50B89D"/>
<path d="M30.3204 32.8454C31.9058 32.8454 33.191 31.5605 33.191 29.9754C33.191 28.3904 31.9058 27.1054 30.3204 27.1054C28.7349 27.1054 27.4497 28.3904 27.4497 29.9754C27.4497 31.5605 28.7349 32.8454 30.3204 32.8454Z" fill="#AB8DE5"/>
<path d="M40.2082 32.8454C41.7936 32.8454 43.0788 31.5605 43.0788 29.9754C43.0788 28.3904 41.7936 27.1054 40.2082 27.1054C38.6228 27.1054 37.3375 28.3904 37.3375 29.9754C37.3375 31.5605 38.6228 32.8454 40.2082 32.8454Z" fill="#73E5E2"/>
<path d="M50.096 32.8454C51.6814 32.8454 52.9666 31.5605 52.9666 29.9754C52.9666 28.3904 51.6814 27.1054 50.096 27.1054C48.5106 27.1054 47.2253 28.3904 47.2253 29.9754C47.2253 31.5605 48.5106 32.8454 50.096 32.8454Z" fill="#50B89D"/>
<path d="M171.62 204.885L181.189 196.435H171.429L171.62 204.885Z" fill="#AB8DE5"/>
<path d="M222.858 164.865H175.243C167.958 164.865 162.051 170.77 162.051 178.054V184.202C162.051 191.486 167.958 197.391 175.243 197.391H222.858C230.144 197.391 236.05 191.486 236.05 184.202V178.054C236.05 170.77 230.144 164.865 222.858 164.865Z" fill="#AB8DE5"/>
<path d="M189.163 183.998C190.748 183.998 192.034 182.713 192.034 181.128C192.034 179.543 190.748 178.258 189.163 178.258C187.577 178.258 186.292 179.543 186.292 181.128C186.292 182.713 187.577 183.998 189.163 183.998Z" fill="white"/>
<path d="M199.051 183.998C200.636 183.998 201.921 182.713 201.921 181.128C201.921 179.543 200.636 178.258 199.051 178.258C197.465 178.258 196.18 179.543 196.18 181.128C196.18 182.713 197.465 183.998 199.051 183.998Z" fill="white"/>
<path d="M208.939 183.998C210.524 183.998 211.809 182.713 211.809 181.128C211.809 179.543 210.524 178.258 208.939 178.258C207.353 178.258 206.068 179.543 206.068 181.128C206.068 182.713 207.353 183.998 208.939 183.998Z" fill="white"/>
<path d="M474.633 109.219L465.064 100.768H474.824L474.633 109.219Z" fill="#73E5E2"/>
<path d="M423.395 101.725L471.01 101.725C478.296 101.725 484.202 95.8201 484.202 88.5359V82.3878C484.202 75.1036 478.296 69.1986 471.01 69.1986H423.395C416.109 69.1986 410.203 75.1036 410.203 82.3878V88.5359C410.203 95.8201 416.109 101.725 423.395 101.725Z" fill="#73E5E2"/>
<path d="M457.09 88.3318C458.676 88.3318 459.961 87.0469 459.961 85.4618C459.961 83.8768 458.676 82.5919 457.09 82.5919C455.505 82.5919 454.22 83.8768 454.22 85.4618C454.22 87.0469 455.505 88.3318 457.09 88.3318Z" fill="white"/>
<path d="M447.202 88.3318C448.788 88.3318 450.073 87.0469 450.073 85.4618C450.073 83.8768 448.788 82.5919 447.202 82.5919C445.617 82.5919 444.332 83.8768 444.332 85.4618C444.332 87.0469 445.617 88.3318 447.202 88.3318Z" fill="white"/>
<path d="M437.315 88.3318C438.9 88.3318 440.185 87.0469 440.185 85.4618C440.185 83.8768 438.9 82.5919 437.315 82.5919C435.729 82.5919 434.444 83.8768 434.444 85.4618C434.444 87.0469 435.729 88.3318 437.315 88.3318Z" fill="white"/>
<path d="M469.53 29.9754C471.115 29.9754 472.4 28.6905 472.4 27.1054C472.4 25.5204 471.115 24.2354 469.53 24.2354C467.944 24.2354 466.659 25.5204 466.659 27.1054C466.659 28.6905 467.944 29.9754 469.53 29.9754Z" fill="#F98B67"/>
<path d="M475.59 41.7743C477.175 41.7743 478.461 40.4893 478.461 38.9043C478.461 37.3192 477.175 36.0343 475.59 36.0343C474.005 36.0343 472.719 37.3192 472.719 38.9043C472.719 40.4893 474.005 41.7743 475.59 41.7743Z" fill="#F98B67"/>
<path d="M409.565 159.763C412.031 159.763 414.03 157.764 414.03 155.298C414.03 152.833 412.031 150.834 409.565 150.834C407.099 150.834 405.1 152.833 405.1 155.298C405.1 157.764 407.099 159.763 409.565 159.763Z" fill="#F98B67"/>
<path d="M435.72 175.069C438.186 175.069 440.185 173.07 440.185 170.605C440.185 168.139 438.186 166.14 435.72 166.14C433.254 166.14 431.254 168.139 431.254 170.605C431.254 173.07 433.254 175.069 435.72 175.069Z" fill="#F98B67"/>
<path d="M33.829 180.171C36.2952 180.171 38.2944 178.173 38.2944 175.707C38.2944 173.241 36.2952 171.243 33.829 171.243C31.3628 171.243 29.3635 173.241 29.3635 175.707C29.3635 178.173 31.3628 180.171 33.829 180.171Z" fill="#F98B67"/>
<path d="M419.899 379.636V378.998L418.368 377.084L414.828 372.786L411.064 368.232C411.064 368.232 407.441 365.726 406.509 365.292C403.116 363.723 399.773 362.524 395.78 362.524C393.324 362.524 384.144 362.894 384.125 364.437C384.125 366.727 396.979 375.394 406.407 379.604C410.547 379.636 419.899 379.636 419.899 379.636Z" fill="#1F161E"/>
<path d="M417.954 379.636C404.87 369.571 378.16 314.678 385.011 294.333C399.594 301.763 415.593 327.383 423.14 349.016C423.546 350.423 423.872 351.852 424.116 353.295L427.178 367.326L427.918 379.655L417.954 379.636Z" fill="#FBDC8E"/>
<path d="M426.885 379.636C422.47 376.051 421.06 365.439 421.022 361.478C420.952 354.086 422.087 348.64 428.409 340.508C434.731 332.376 433.047 318.887 441.442 309.786C449.837 300.685 455.4 298.147 465.364 298.147C475.328 298.147 478.492 314.295 478.441 318.358C478.327 334.749 467.999 337.07 461.696 344.89C457.122 350.566 456.765 355.209 455.38 357.862C447.955 372.161 441.92 377.537 437.455 379.636" fill="#73E5E2"/>
<path d="M429.321 378.449C429.449 350.496 458.915 308.511 465.211 302.216" stroke="white" stroke-width="0.4" stroke-linecap="round" stroke-linejoin="round"/>
<path d="M430.91 365.745C427.65 362.192 424.684 352.122 425.13 349.507" stroke="white" stroke-width="0.4" stroke-linecap="round" stroke-linejoin="round"/>
<path d="M422.559 377.225C417.941 369.042 396.028 329.143 387.856 299.754" stroke="white" stroke-width="0.4" stroke-linecap="round" stroke-linejoin="round"/>
<path d="M437.48 379.636H451.208L439.726 422.366H409.023L397.725 379.636H437.48Z" fill="#B37361"/>
<path d="M388.616 365.305C395.308 365.764 403.728 366.07 409.667 370.12" stroke="white" stroke-width="0.4" stroke-linecap="round" stroke-linejoin="round"/>
<path d="M494.689 204.726C493.075 212.424 481.35 307.911 485.184 330.718C489.018 353.525 551.528 401.313 554.265 402.149C557.454 399.808 562.15 392.136 562.15 392.136C562.15 392.136 516.315 339.016 515.441 336.885C514.567 334.755 525.482 211.741 525.482 211.741L494.689 204.726Z" fill="#1F161E"/>
<path d="M569.339 222.105L522.573 412.806H506.823L522.783 213.865L569.339 222.105Z" fill="#1E90FF"/>
<path d="M536.122 112.918C542.578 112.918 576.254 114.009 582.34 125.858C588.426 137.708 582.691 192.48 578.908 194.604C576.866 195.746 576.311 194.636 575.718 196.958C575.125 199.279 569.339 222.105 569.339 222.105C565.664 222.207 512.092 214.139 494.702 204.707C494.804 202.085 495.646 195.268 495.646 194.745C493.337 195.688 490.543 195.886 489.777 194.745C482.99 184.47 493.107 130.903 500.367 120.125C503.454 115.501 525.762 112.95 536.122 112.918Z" fill="#FFD600"/>
<path d="M558.297 196.084C559.879 196.084 573.498 205.651 572.331 210.351C573.288 206.575 576.299 194.91 576.299 194.91C575.004 195.159 559.458 196.103 558.297 196.084Z" fill="#1F161E"/>
<path d="M544.46 119.168C544.46 121.247 528.059 121.247 528.059 119.168V98.1217H544.46V119.168Z" fill="#F8CDBA"/>
<path d="M535.051 103.103C536.327 103.103 544.46 106.7 544.46 108.702V98.1217C542.431 98.1217 535.051 103.103 535.051 103.103Z" fill="#1F161E"/>
<path d="M532.805 104.64C541.617 104.64 548.76 97.4983 548.76 88.689C548.76 79.8796 541.617 72.7382 532.805 72.7382C523.994 72.7382 516.851 79.8796 516.851 88.689C516.851 97.4983 523.994 104.64 532.805 104.64Z" fill="#F8CDBA"/>
<path d="M527.408 65.3719C519.217 65.3719 514.114 70.5124 514.114 77.1006C514.114 82.5791 515.441 85.6787 517.004 86.4632C517.993 81.1441 520.142 78.6823 521.922 77.6236C523.306 78.6823 525.673 81.2462 528.837 82.037C532.001 82.8278 540.237 82.6748 546.89 87.5091C549.066 85.532 551.235 82.9618 551.235 79.9323C551.235 76.9029 549.895 73.1018 542.017 70.9078C536.811 69.4601 536.084 65.3719 527.408 65.3719Z" fill="#1F161E"/>
<path d="M517.897 93.4277C519.44 93.4277 520.691 92.7766 520.691 91.9735C520.691 91.1704 519.44 90.5194 517.897 90.5194C516.354 90.5194 515.103 91.1704 515.103 91.9735C515.103 92.7766 516.354 93.4277 517.897 93.4277Z" fill="#FA9E9F"/>
<path d="M535.472 93.4277C537.015 93.4277 538.266 92.7766 538.266 91.9735C538.266 91.1704 537.015 90.5194 535.472 90.5194C533.929 90.5194 532.678 91.1704 532.678 91.9735C532.678 92.7766 533.929 93.4277 535.472 93.4277Z" fill="#FA9E9F"/>
<path d="M524.723 88.9568C524.2 89.703 521.533 92.8345 524.346 94.0973" stroke="#1F161E" stroke-miterlimit="10" stroke-linecap="round"/>
<path d="M529.979 97.7581C530.821 97.7581 532.116 96.7122 532.799 95.7747" stroke="#1F161E" stroke-miterlimit="10" stroke-linecap="round"/>
<path d="M547.554 94.2121C549.59 94.2121 551.241 92.5617 551.241 90.5258C551.241 88.4899 549.59 86.8394 547.554 86.8394C545.518 86.8394 543.867 88.4899 543.867 90.5258C543.867 92.5617 545.518 94.2121 547.554 94.2121Z" fill="#F8CDBA"/>
<path d="M558.667 144.303C558.38 147.823 557.257 165.222 557.678 167.512C552.326 169.374 503.321 192.608 494.843 195.159" stroke="#1F161E" stroke-miterlimit="10" stroke-linecap="round"/>
<path d="M501.751 138.812C500.622 142.753 496.82 160.643 499.493 168.953" stroke="#1F161E" stroke-miterlimit="10" stroke-linecap="round"/>
<path d="M514.261 187.021C516.812 188.813 541.27 199.636 575.087 195.555" stroke="#1F161E" stroke-miterlimit="10" stroke-linecap="round"/>
<path d="M511.92 168.953C513.559 169.214 508.213 164.948 505.183 166.536C502.153 168.124 498.07 175.312 498.906 176.976C499.019 177.278 499.198 177.551 499.43 177.775C499.662 177.999 499.941 178.168 500.247 178.269C500.553 178.371 500.878 178.403 501.198 178.362C501.518 178.321 501.825 178.21 502.096 178.035C502.919 177.506 509.062 168.494 511.92 168.953Z" fill="#F8CDBA"/>
<path d="M561.627 392.92C562.501 393.558 570.251 398.801 570.315 402.104C570.379 405.408 563.094 416.359 561.627 416.671C560.159 416.984 559.113 415.746 559.113 413.533C559.113 411.32 561.882 407.443 561.512 405.721C561.142 403.999 557.563 400.848 555.726 400.791" fill="#1F161E"/>
<path d="M521.08 412.806C521.08 414.324 521.961 423.852 520.2 424.739C518.439 425.625 499.008 426.148 498.128 425.268C497.247 424.388 496.712 422.532 497.49 422.003C498.268 421.474 505.783 419.968 506.804 419.267C507.824 418.565 509.234 414.802 508.717 412.806" fill="#1F161E"/>
<path d="M139.954 342.064H16.5924V404.624H139.954V342.064Z" fill="#B37361"/>
<path d="M200.729 312.746C201.264 315.935 210.361 388.839 211.835 390.044C213.308 391.249 228.957 393.922 230.296 391.919C230.564 388.73 230.934 337.887 231.763 333.339" fill="#1F161E"/>
<path d="M24.7259 297.535C18.4168 294.429 31.5708 356 66.1908 356C100.811 356 159.085 303.275 168.52 303.275C189.348 303.275 238.653 344.156 242.519 344.156C245.479 341.197 251.399 336.018 251.399 333.952C251.399 331.885 204.192 254.23 168.871 254.23C155.175 254.249 38.9707 304.569 24.7259 297.535Z" fill="#219150"/>
<path d="M44.208 298.581C51.1294 297.012 59.7414 292.949 67.3645 288.797C46.6257 295.577 29.6314 299.958 24.7258 297.535C21.3831 295.889 23.501 312.369 31.3602 328.244C29.9376 325.176 27.9091 302.305 44.208 298.581Z" fill="#1F161E"/>
<path d="M59.4671 190.567C64.9213 190.714 93.3152 189.878 101.098 197.289C106.871 202.787 124.822 250.065 127.591 266.666C115.534 272.795 28.5725 314.423 1.65856 296.119C1.06529 281.896 3.82749 225.358 21.4278 195.708C27.8644 191.422 54.2233 190.433 59.4671 190.567Z" fill="#2ED573"/>
<path d="M70.5286 177.04H53.9426V194.859C53.9426 199.324 70.5286 199.286 70.5286 194.859V177.04Z" fill="#F8CDBA"/>
<path d="M53.9426 187.799C53.9426 185.822 59.4224 180.854 62.8097 181.032C62.8927 178.832 55.0718 175.669 55.0718 175.669L53.9426 178.711V187.799Z" fill="#1F161E"/>
<path d="M87.8993 177.04C88.2717 175.315 88.4599 173.556 88.4607 171.791C88.4607 158.64 78.1837 147.977 65.4955 147.977C52.8072 147.977 42.5303 158.64 42.5303 171.791C42.531 173.556 42.7192 175.315 43.0916 177.04H87.8993Z" fill="#1F161E"/>
<path d="M81.8454 160.987C79.0322 160.56 76.2253 158.347 74.2669 156.899C63.1032 165.075 55.9521 165.184 55.1803 165.184C54.4084 165.184 51.2634 169.699 49.8153 170.209L49.6877 170.133C50.1183 172.509 51.0384 174.769 52.3896 176.77C53.7408 178.772 55.4936 180.47 57.5367 181.758C59.5797 183.046 61.8683 183.894 64.2571 184.25C66.6458 184.606 69.0825 184.461 71.4123 183.825C73.7421 183.189 75.9141 182.075 77.7903 180.555C79.6665 179.035 81.2059 177.141 82.3106 174.993C83.4153 172.846 84.0613 170.493 84.2074 168.083C84.3536 165.673 83.9967 163.258 83.1595 160.994C82.7229 161.046 82.2815 161.043 81.8454 160.987Z" fill="#F8CDBA"/>
<path d="M53.056 150.942C56.7976 150.942 59.8307 147.91 59.8307 144.169C59.8307 140.428 56.7976 137.396 53.056 137.396C49.3144 137.396 46.2812 140.428 46.2812 144.169C46.2812 147.91 49.3144 150.942 53.056 150.942Z" fill="#1F161E"/>
<path d="M56.0734 164.82C55.3413 164.855 54.6506 165.17 54.1448 165.7C53.6389 166.23 53.3567 166.935 53.3567 167.668C53.3567 168.401 53.6389 169.105 54.1448 169.635C54.6506 170.166 55.3413 170.481 56.0734 170.515" stroke="#1F161E" stroke-miterlimit="10" stroke-linecap="round"/>
<path d="M77.7882 165.184C78.6239 166.3 80.7737 168.258 77.7882 170.331" stroke="#1F161E" stroke-miterlimit="10" stroke-linecap="round"/>
<path d="M68.7361 171.823C68.7361 172.658 69.0933 174.655 70.8859 175.171" stroke="#1F161E" stroke-miterlimit="10" stroke-linecap="round"/>
<path d="M63.1798 172.021C64.6313 172.021 65.808 171.41 65.808 170.656C65.808 169.902 64.6313 169.291 63.1798 169.291C61.7282 169.291 60.5515 169.902 60.5515 170.656C60.5515 171.41 61.7282 172.021 63.1798 172.021Z" fill="#FA9E9F"/>
<path d="M82.7193 172.021C84.1708 172.021 85.3475 171.41 85.3475 170.656C85.3475 169.902 84.1708 169.291 82.7193 169.291C81.2678 169.291 80.0911 169.902 80.0911 170.656C80.0911 171.41 81.2678 172.021 82.7193 172.021Z" fill="#FA9E9F"/>
<path d="M100.498 239.848L118.226 235.288C119.929 238.183 128.222 266.635 128.222 266.635L100.856 278.166C101.213 272.776 102.291 248.094 100.498 239.848Z" fill="#F8CDBA"/>
<path d="M38.3392 235.39C38.3392 237.533 36.5338 245.69 35.4685 249.523" stroke="#1F161E" stroke-miterlimit="10" stroke-linecap="round"/>
<path d="M100.498 239.848C100.071 236.474 97.5701 217.462 93.3152 207.455" stroke="#1F161E" stroke-miterlimit="10" stroke-linecap="round"/>
<path d="M100.498 239.848L118.226 235.288C119.929 238.183 128.222 266.635 128.222 266.635L100.856 278.166C101.213 272.776 102.291 248.094 100.498 239.848Z" fill="#F8CDBA"/>
<path d="M243.048 342.651C243.444 343.289 248.726 349.769 250.595 349.839C252.464 349.909 263.813 342.224 263.315 340.572C262.818 338.92 255.698 339.998 254.474 339.417C253.249 338.837 250.512 336.107 250.065 334.896" fill="#1F161E"/>
<path d="M215.139 390.72C215.005 391.428 214.284 399.777 215.579 401.129C216.874 402.481 230.379 404.828 231.164 403.291C231.948 401.754 226.06 397.589 225.607 396.326C225.155 395.063 225.059 391.224 225.607 390.025" fill="#1F161E"/>
<path d="M193.967 268.42H133.893L148.196 230.53H208.269L193.967 268.42Z" fill="#969696"/>
<path d="M143.909 266.992H83.8357V268.42H143.909V266.992Z" fill="#969696"/>
<path d="M35.4685 249.523C34.3138 253.834 28.7065 272.33 30.9903 275.519C33.274 278.708 90.4701 271.482 105.774 266.717C109.672 265.442 112.561 262.1 114.29 261.666C116.51 261.291 118.79 261.748 120.693 262.951C122.596 264.154 123.987 266.018 124.599 268.184C118.488 271.144 30.2503 316.183 1.6586 296.138C-3.7446 292.267 5.73492 245.071 6.16871 242.692C10.9978 243.273 35.4685 249.523 35.4685 249.523Z" fill="#F8CDBA"/>
<path d="M101.315 267.865C103.037 267.457 104.543 267.055 105.78 266.673C109.678 265.397 112.568 262.055 114.297 261.622C116.516 261.246 118.797 261.704 120.7 262.907C122.602 264.11 123.993 265.974 124.605 268.14" stroke="#1F161E" stroke-miterlimit="10" stroke-linecap="round"/>
</g>
<defs>
<clipPath id="clip0">
<rect width="585" height="493" fill="white"/>
</clipPath>
</defs>
</svg>
