<svg width="429" height="360" viewBox="0 0 429 360" fill="none" xmlns="http://www.w3.org/2000/svg">
<g clip-path="url(#clip0)">
<path d="M124.082 290.46C144.686 290.46 161.389 286.764 161.389 282.206C161.389 277.647 144.686 273.952 124.082 273.952C103.477 273.952 86.7743 277.647 86.7743 282.206C86.7743 286.764 103.477 290.46 124.082 290.46Z" fill="black"/>
<path d="M124.081 282.206L103.125 347.852" stroke="black" stroke-width="4" stroke-miterlimit="10" stroke-linecap="round"/>
<path d="M124.081 282.206L145.038 347.852" stroke="black" stroke-width="4" stroke-miterlimit="10" stroke-linecap="round"/>
<path d="M110.006 326.298L133.368 311.305" stroke="black" stroke-width="2" stroke-miterlimit="10" stroke-linecap="round"/>
<path d="M114.7 311.305L138.068 326.298" stroke="black" stroke-width="2" stroke-miterlimit="10" stroke-linecap="round"/>
<path d="M160.797 211.146C160.703 214.057 160.744 224.251 160.265 228.612" stroke="#1F161E" stroke-miterlimit="10" stroke-linecap="round"/>
<path d="M40.7772 82.2193C40.7772 80.1508 39.1019 78.474 37.0353 78.474C34.9687 78.474 33.2933 80.1508 33.2933 82.2193V95.1474C33.2933 97.2159 34.9687 98.8928 37.0353 98.8928C39.1019 98.8928 40.7772 97.2159 40.7772 95.1474V82.2193Z" fill="black"/>
<path d="M37.0353 120.625C41.1816 120.625 44.5428 117.261 44.5428 113.111C44.5428 108.961 41.1816 105.596 37.0353 105.596C32.889 105.596 29.5277 108.961 29.5277 113.111C29.5277 117.261 32.889 120.625 37.0353 120.625Z" fill="#FBDC8E"/>
<path d="M288.024 202.353H291.571C291.943 202.352 292.3 202.203 292.564 201.939C292.827 201.675 292.976 201.318 292.978 200.945V179.124C292.978 178.939 292.942 178.756 292.871 178.585C292.8 178.415 292.695 178.26 292.564 178.13L288.083 173.645C287.953 173.514 287.798 173.41 287.628 173.339C287.457 173.268 287.275 173.231 287.09 173.231H273.854C273.482 173.233 273.125 173.381 272.861 173.645C272.598 173.909 272.449 174.266 272.447 174.639V176.746" fill="#FBDC8E"/>
<path d="M282.065 176.746H269.06C268.851 176.746 268.645 176.787 268.452 176.867C268.26 176.947 268.085 177.064 267.938 177.212C267.79 177.36 267.674 177.535 267.595 177.729C267.515 177.922 267.475 178.128 267.476 178.337V204.253C267.476 204.674 267.642 205.078 267.939 205.376C268.236 205.674 268.639 205.843 269.06 205.844H286.434C286.855 205.843 287.258 205.674 287.554 205.376C287.851 205.078 288.018 204.674 288.018 204.253V182.716C288.019 182.507 287.979 182.3 287.899 182.108C287.82 181.915 287.704 181.739 287.557 181.591L283.183 177.213C282.887 176.915 282.485 176.747 282.065 176.746Z" fill="#D8D8D8"/>
<path d="M288.024 182.094H283.608C283.373 182.094 283.147 182.001 282.981 181.834C282.815 181.668 282.721 181.442 282.721 181.207V176.746" fill="#969696"/>
<path d="M292.995 178.586H288.58C288.343 178.584 288.117 178.489 287.95 178.322C287.783 178.155 287.688 177.929 287.687 177.692V173.231" fill="#64CCC4"/>
<path d="M267.493 147.12H237.014C236.025 147.12 235.223 147.923 235.223 148.913V158.877C235.223 159.867 236.025 160.67 237.014 160.67H267.493C268.483 160.67 269.285 159.867 269.285 158.877V148.913C269.285 147.923 268.483 147.12 267.493 147.12Z" fill="#78E5E1"/>
<path d="M252.248 169.959L256.35 157.522H248.145L252.248 169.959Z" fill="#78E5E1"/>
<path d="M244.12 150.729L240.679 156.688H247.554L244.12 150.729Z" fill="white"/>
<path d="M260.382 156.688L263.822 150.729H256.941L260.382 156.688Z" fill="white"/>
<path d="M252.248 156.297C253.674 156.297 254.831 155.14 254.831 153.712C254.831 152.284 253.674 151.126 252.248 151.126C250.821 151.126 249.664 152.284 249.664 153.712C249.664 155.14 250.821 156.297 252.248 156.297Z" fill="white"/>
<path d="M241.593 86.4062H221.589C220.724 86.4062 220.023 87.1082 220.023 87.9742V100.08C220.023 100.946 220.724 101.648 221.589 101.648H241.593C242.459 101.648 243.16 100.946 243.16 100.08V87.9742C243.16 87.1082 242.459 86.4062 241.593 86.4062Z" fill="#D8D8D8"/>
<path d="M220.75 86.8855L231.591 94.027" stroke="#969696" stroke-width="0.82" stroke-linecap="round" stroke-linejoin="round"/>
<path d="M243.16 86.4062L231.591 94.027" stroke="#969696" stroke-width="0.82" stroke-linecap="round" stroke-linejoin="round"/>
<path d="M243.16 89.7196C244.988 89.7196 246.47 88.2361 246.47 86.4062C246.47 84.5763 244.988 83.0928 243.16 83.0928C241.332 83.0928 239.85 84.5763 239.85 86.4062C239.85 88.2361 241.332 89.7196 243.16 89.7196Z" fill="#FBDC8E"/>
<path d="M274.54 179.42H270.355C270.048 179.42 269.799 179.669 269.799 179.976C269.799 180.283 270.048 180.532 270.355 180.532H274.54C274.847 180.532 275.096 180.283 275.096 179.976C275.096 179.669 274.847 179.42 274.54 179.42Z" fill="#969696"/>
<path d="M274.54 182.094H270.355C270.048 182.094 269.799 182.343 269.799 182.65C269.799 182.958 270.048 183.207 270.355 183.207H274.54C274.847 183.207 275.096 182.958 275.096 182.65C275.096 182.343 274.847 182.094 274.54 182.094Z" fill="#969696"/>
<path d="M285.393 186.668H270.112C269.805 186.668 269.557 186.917 269.557 187.224C269.557 187.531 269.805 187.78 270.112 187.78H285.393C285.7 187.78 285.949 187.531 285.949 187.224C285.949 186.917 285.7 186.668 285.393 186.668Z" fill="#969696"/>
<path d="M285.393 189.295H270.112C269.805 189.295 269.557 189.544 269.557 189.851C269.557 190.158 269.805 190.407 270.112 190.407H285.393C285.7 190.407 285.949 190.158 285.949 189.851C285.949 189.544 285.7 189.295 285.393 189.295Z" fill="#969696"/>
<path d="M285.393 191.922H270.112C269.805 191.922 269.557 192.171 269.557 192.478C269.557 192.785 269.805 193.034 270.112 193.034H285.393C285.7 193.034 285.949 192.785 285.949 192.478C285.949 192.171 285.7 191.922 285.393 191.922Z" fill="#969696"/>
<path d="M208.976 115.536H187.393C183.475 115.536 180.299 118.714 180.299 122.636V133.173C180.299 137.095 183.475 140.273 187.393 140.273H208.976C212.894 140.273 216.07 137.095 216.07 133.173V122.636C216.07 118.714 212.894 115.536 208.976 115.536Z" fill="#D8D8D8"/>
<path d="M193.08 119.518H187.701V136.292H193.08V119.518Z" fill="#AB8DE5"/>
<path d="M200.877 130.677H195.498V136.297H200.877V130.677Z" fill="#AB8DE5"/>
<path d="M208.668 125.943H203.289V136.292H208.668V125.943Z" fill="#AB8DE5"/>
<path d="M37.0352 90.4554C34.0623 90.4547 31.1183 91.0401 28.3714 92.1783C25.6245 93.3165 23.1285 94.9851 21.0261 97.0889C18.9236 99.1927 17.2558 101.69 16.1179 104.44C14.98 107.189 14.3943 110.135 14.3943 113.111H59.6761C59.6761 110.135 59.0904 107.189 57.9526 104.44C56.8147 101.69 55.1469 99.1927 53.0444 97.0889C50.9419 94.9851 48.446 93.3165 45.6991 92.1783C42.9522 91.0401 40.0082 90.4547 37.0352 90.4554Z" fill="#AB8DE5"/>
<path d="M37.0352 82.7873V0.591675" stroke="black" stroke-width="2" stroke-linecap="round" stroke-linejoin="round"/>
<path d="M214.615 340.024C214.615 341.427 213.794 350.272 215.431 351.089C217.069 351.905 235.069 352.402 235.885 351.58C236.701 350.757 237.191 349.042 236.476 348.551C235.761 348.059 228.791 346.669 227.845 346.012C226.899 345.355 225.593 341.87 226.072 340.024" fill="#1F161E"/>
<path d="M160.798 224.393L170.93 220.754C170.492 202.253 166.171 160.912 160.035 154.765C158.593 153.327 130.064 150.818 124.974 150.818C94.6011 150.818 85.592 154.285 83.3043 156.581C76.2105 163.681 73.9996 196.578 73.9996 208.098C73.9996 219.618 106.513 225.594 106.513 225.594L144.624 228.215C144.624 228.215 152.983 229.079 160.212 229.505C160.372 227.286 160.798 224.393 160.798 224.393Z" fill="#FFD600"/>
<path d="M190.987 235.12C193.76 234.298 221.331 229.795 227.337 235.712C233.343 241.629 252.248 326.457 252.248 328.41H237.026L216.478 284.147" fill="#1F161E"/>
<path d="M90.6048 227.576C89.9132 231.038 85.7574 234.753 85.7574 253.61C85.7574 279.685 107.098 280.236 114.759 280.236C138.63 280.236 177.249 273.135 179.856 271.834C181.588 274.733 213.469 339.877 213.616 341.332H228.295C228.295 341.332 219.197 243.871 202.781 232.819C197.449 229.269 102.847 225.47 90.6048 227.576Z" fill="#1E90FF"/>
<path d="M176.557 208.513C172.703 208.513 169.523 209.43 160.798 211.146L160.342 227.854C168.618 224.517 170.54 219.879 172.94 219.879C178.934 219.879 182.067 222.973 185.608 222.973C188.079 222.973 192.524 221.032 192.524 218.394C192.524 212.867 181.334 208.513 176.557 208.513Z" fill="#F8CDBA"/>
<path d="M237.889 327.238C237.889 328.646 237.067 337.486 238.705 338.309C240.342 339.131 258.343 339.616 259.158 338.8C259.974 337.983 260.465 336.261 259.749 335.77C259.034 335.279 252.065 333.883 251.119 333.226C250.173 332.569 248.866 329.084 249.345 327.238" fill="#1F161E"/>
<path d="M130.348 154.753C130.348 156.983 117.407 157.049 117.407 154.753V136.612H130.348V154.753Z" fill="#F8CDBA"/>
<path d="M126.133 142.594C124.95 142.594 117.407 145.931 117.407 147.795V137.949C119.287 137.949 126.133 142.594 126.133 142.594Z" fill="#1F161E"/>
<path d="M128.633 143.363C137.285 143.363 144.299 136.343 144.299 127.684C144.299 119.024 137.285 112.004 128.633 112.004C119.982 112.004 112.968 119.024 112.968 127.684C112.968 136.343 119.982 143.363 128.633 143.363Z" fill="#F8CDBA"/>
<path d="M144.801 115.377C142.862 118.459 138.807 119.874 134.415 119.874C130.673 119.874 125.222 118.785 121.344 120.998C119.246 122.181 116.84 124.873 116.355 130.263C116.355 131.186 115.309 134.766 115.309 135.92C115.309 136.707 114.422 137.222 112.944 137.222C112.182 137.222 110.674 135.985 110.674 134.097C110.674 131.914 111.543 131.139 111.543 129.287C111.543 127.435 109.279 125.654 109.279 120.507C109.279 113.093 114.008 108.525 117.354 108.525C120.405 108.525 121.362 109.235 121.746 109.537C121.746 102.798 130.614 99.7211 134.131 99.7211C138.151 99.7211 140.042 101.372 140.042 103.472C140.042 106.821 138.446 109.667 137.636 110.306C139.47 108.656 141.851 107.747 144.316 107.756C148.921 107.756 150.47 110.785 150.47 112.856C150.47 117.359 145.073 121.53 143.063 121.53C142.558 120.46 141.964 119.432 141.29 118.46" fill="#1F161E"/>
<path d="M116.84 133.098C118.685 133.098 120.18 131.601 120.18 129.755C120.18 127.908 118.685 126.412 116.84 126.412C114.995 126.412 113.5 127.908 113.5 129.755C113.5 131.601 114.995 133.098 116.84 133.098Z" fill="#F8CDBA"/>
<path d="M144.452 130.559C145.882 130.559 147.042 129.955 147.042 129.21C147.042 128.465 145.882 127.861 144.452 127.861C143.022 127.861 141.863 128.465 141.863 129.21C141.863 129.955 143.022 130.559 144.452 130.559Z" fill="#FA9E9F"/>
<path d="M128.166 130.559C129.596 130.559 130.756 129.955 130.756 129.21C130.756 128.465 129.596 127.861 128.166 127.861C126.736 127.861 125.577 128.465 125.577 129.21C125.577 129.955 126.736 130.559 128.166 130.559Z" fill="#FA9E9F"/>
<path d="M138.127 126.412C138.612 127.104 141.083 130.009 138.476 131.186" stroke="#1F161E" stroke-miterlimit="10" stroke-linecap="round"/>
<path d="M133.256 134.577C132.476 134.577 131.276 133.606 130.643 132.737" stroke="#1F161E" stroke-miterlimit="10" stroke-linecap="round"/>
<path d="M153.911 176.686C155.093 179.201 160.797 203.46 160.797 211.146" stroke="#1F161E" stroke-miterlimit="10" stroke-linecap="round"/>
<path d="M73.9996 206.146C73.9996 233.416 74.2538 241.327 85.19 241.327C110.396 241.327 148.502 220.618 155.294 220.618C161.294 220.618 164.427 223.719 167.968 223.719C170.433 223.719 174.879 221.772 174.879 219.139C174.879 213.607 163.688 209.252 158.918 209.252C148.177 209.252 105.313 219.618 104.266 219.618C103.22 219.618 101.458 219.163 101.458 217.4C101.458 214.199 103.551 206.803 103.823 206.158L73.9996 206.146Z" fill="#F8CDBA"/>
<path d="M110.119 182.361C109.397 184.437 103.776 205.897 103.125 208.513" stroke="#1F161E" stroke-miterlimit="10" stroke-linecap="round"/>
<path d="M323.545 348.347C323.97 349.965 325.625 350.932 327.242 350.507C328.858 350.082 329.824 348.425 329.399 346.807L299.133 231.582C298.708 229.964 297.053 228.997 295.436 229.423C293.82 229.848 292.854 231.505 293.279 233.123L323.545 348.347Z" fill="#969696"/>
<path d="M292.978 233.128C293.403 231.51 292.437 229.853 290.821 229.428C289.204 229.003 287.549 229.969 287.124 231.587L256.858 346.812C256.433 348.43 257.399 350.086 259.016 350.512C260.632 350.937 262.287 349.97 262.712 348.352L292.978 233.128Z" fill="#969696"/>
<path d="M251.215 233.127C251.64 231.509 250.674 229.853 249.057 229.427C247.44 229.002 245.785 229.969 245.36 231.587L215.094 346.811C214.669 348.429 215.635 350.086 217.252 350.511C218.869 350.937 220.524 349.97 220.949 348.352L251.215 233.127Z" fill="#D8D8D8"/>
<path d="M281.255 346.221C281.673 347.843 283.326 348.82 284.948 348.402C286.569 347.983 287.545 346.329 287.127 344.706L257.368 229.14C256.951 227.517 255.297 226.541 253.676 226.959C252.054 227.377 251.079 229.032 251.497 230.655L281.255 346.221Z" fill="#D8D8D8"/>
<path d="M80.7159 233.13C81.1409 231.512 80.1749 229.856 78.5582 229.43C76.9416 229.005 75.2865 229.972 74.8615 231.59L44.5956 346.814C44.1706 348.432 45.1366 350.089 46.7532 350.514C48.3699 350.94 50.025 349.973 50.45 348.355L80.7159 233.13Z" fill="#969696"/>
<path d="M110.768 348.355C111.193 349.973 112.848 350.94 114.465 350.514C116.082 350.089 117.048 348.432 116.623 346.814L86.3568 231.59C85.9317 229.972 84.2766 229.005 82.66 229.43C81.0433 229.856 80.0774 231.512 80.5024 233.13L110.768 348.355Z" fill="#969696"/>
<path d="M311.611 223.736H18.893C17.4141 223.736 16.2151 224.936 16.2151 226.417V230.02C16.2151 231.5 17.4141 232.7 18.893 232.7H311.611C313.09 232.7 314.289 231.5 314.289 230.02V226.417C314.289 224.936 313.09 223.736 311.611 223.736Z" fill="#D8D8D8"/>
<path d="M37.4588 233.132C37.8839 231.514 36.9179 229.857 35.3012 229.432C33.6846 229.006 32.0295 229.973 31.6045 231.591L1.33857 346.816C0.913546 348.434 1.87954 350.09 3.49619 350.516C5.11283 350.941 6.76793 349.974 7.19295 348.356L37.4588 233.132Z" fill="#D8D8D8"/>
<path d="M67.5109 348.355C67.9359 349.973 69.5911 350.94 71.2077 350.515C72.8243 350.089 73.7903 348.433 73.3653 346.815L43.0994 231.59C42.6744 229.972 41.0193 229.005 39.4027 229.431C37.786 229.856 36.82 231.513 37.245 233.131L67.5109 348.355Z" fill="#D8D8D8"/>
<path d="M235.359 223.736H180.672L190.579 189.632C190.827 188.809 191.334 188.089 192.024 187.578C192.715 187.067 193.551 186.794 194.41 186.798H240.815C241.424 186.788 242.028 186.921 242.577 187.186C243.126 187.451 243.606 187.841 243.978 188.324C244.35 188.807 244.604 189.371 244.72 189.97C244.836 190.569 244.81 191.187 244.646 191.774L235.359 223.736Z" fill="black"/>
<path d="M214.728 208.613C216.576 208.613 218.074 207.114 218.074 205.264C218.074 203.415 216.576 201.915 214.728 201.915C212.88 201.915 211.382 203.415 211.382 205.264C211.382 207.114 212.88 208.613 214.728 208.613Z" fill="white"/>
<path d="M187.169 221.34H148.797V223.736H187.169V221.34Z" fill="black"/>
</g>
<g clip-path="url(#clip1)">
<path d="M420.144 349.971C420.209 351.032 420.863 357.235 420.036 358.331C418.52 360.315 405.272 360.215 404.618 359.642C403.964 359.069 403.518 357.794 404.05 357.393C404.582 356.991 409.765 355.616 410.44 355.086C411.116 354.556 411.95 351.884 411.497 350.502" fill="#1F161E"/>
<path d="M354.488 178.604C352.231 183.704 333.275 239.27 333.714 247.372C334.152 255.473 378.014 338.954 380.437 339.835C382.859 340.716 392.923 337.636 393.735 335.444C394.547 333.252 378.453 283.432 378.014 270.674" fill="#1F161E"/>
<path d="M354.488 178.604C355.623 184.614 374.485 267.493 374.485 267.493L409.067 350.953C411.943 352.35 420.403 352.5 421.884 352.056C423.365 351.612 416.255 271.691 413.445 260.366C410.634 249.041 403.238 170.416 403.238 170.416C403.238 170.416 364.494 171.054 354.488 178.604Z" fill="#219150"/>
<path d="M363.832 89.9296C358.125 92.5871 321.731 110.431 318.604 110.431C315.478 110.431 282.211 91.6989 280.256 90.4382C278.394 92.2935 275.555 95.2161 276.245 96.1688C276.935 97.1215 315.082 132.644 318.317 132.644C321.552 132.644 354.315 122.709 356.86 119.98" fill="#2ED573"/>
<path d="M376.182 86.0542C343.475 80.7104 351.267 175.029 354.488 178.604C357.708 182.178 401.822 173.59 404.69 170.209C407.558 166.827 399.133 86.9496 376.182 86.0542Z" fill="#2ED573"/>
<path d="M391.816 336.039C392.204 337.02 394.734 342.729 394.267 344.026C393.426 346.375 380.789 350.301 379.991 349.95C379.193 349.599 378.374 348.517 378.755 347.98C379.136 347.443 383.657 344.563 384.146 343.847C384.635 343.13 384.606 340.344 383.743 339.162" fill="#1F161E"/>
<path d="M370.424 90.9682C370.424 93.2175 380.487 93.3894 380.487 90.9682V75.9253H370.424V90.9682Z" fill="#F8CDBA"/>
<path d="M380.494 83.1817C380.494 82.1 376.793 76.2118 374.873 76.8422C377.238 76.0041 379.625 75.3164 380.494 75.8966V83.1817Z" fill="black"/>
<path d="M373.831 77.3866C381.052 77.3866 386.906 71.5529 386.906 64.3566C386.906 57.1603 381.052 51.3265 373.831 51.3265C366.61 51.3265 360.756 57.1603 360.756 64.3566C360.756 71.5529 366.61 77.3866 373.831 77.3866Z" fill="#F8CDBA"/>
<path d="M360.612 67.2362C361.819 67.2362 362.797 66.7295 362.797 66.1044C362.797 65.4793 361.819 64.9726 360.612 64.9726C359.405 64.9726 358.427 65.4793 358.427 66.1044C358.427 66.7295 359.405 67.2362 360.612 67.2362Z" fill="#FA9E9F"/>
<path d="M374.327 67.2362C375.534 67.2362 376.512 66.7295 376.512 66.1044C376.512 65.4793 375.534 64.9726 374.327 64.9726C373.12 64.9726 372.142 65.4793 372.142 66.1044C372.142 66.7295 373.12 67.2362 374.327 67.2362Z" fill="#FA9E9F"/>
<path d="M365.938 63.7549C365.529 64.3351 363.43 66.7706 365.644 67.7592" stroke="#1F161E" stroke-width="0.69" stroke-miterlimit="10" stroke-linecap="round"/>
<path d="M370.072 70.603C370.953 70.3654 371.719 69.8185 372.228 69.0629" stroke="#1F161E" stroke-width="0.69" stroke-miterlimit="10" stroke-linecap="round"/>
<path d="M381.81 67.8451C383.402 67.8451 384.692 66.5591 384.692 64.9726C384.692 63.3862 383.402 62.1002 381.81 62.1002C380.218 62.1002 378.927 63.3862 378.927 64.9726C378.927 66.5591 380.218 67.8451 381.81 67.8451Z" fill="#F8CDBA"/>
<path d="M404.086 173.934C418.584 173.54 429 163.425 429 137.401C429 126.656 411.073 94.3063 407.515 82.0858C405.674 75.7749 407.155 57.2076 397.76 47.7593C393.232 43.2106 373.321 44.2851 368.181 46.4269C363.042 48.5687 363.645 55.0228 364.17 56.0329C365.399 55.0013 368.095 52.9097 368.576 52.9741C371.1 53.2822 377.986 61.0042 380.077 64.55C381.774 67.4153 379.157 85.209 382.471 90.2949C385.785 95.3808 397.516 92.7089 397.516 92.7089" fill="#1F161E"/>
<path d="M376.297 123.948C378.302 126.448 393.11 153.074 393.11 157.078C393.11 161.083 388.718 189.463 387.841 190.839C389.846 192.336 395.115 196.462 395.115 196.462C395.115 196.462 411.173 168.203 411.173 152.329C411.173 146.699 398.379 100.939 386.08 90.4381" fill="#2ED573"/>
<path d="M376.297 123.948C378.302 126.448 393.11 153.074 393.11 157.078C393.11 159.062 392.024 167.042 390.831 174.75" stroke="#1F161E" stroke-linecap="round" stroke-linejoin="round"/>
<path d="M381.149 86.0112C380.538 91.2977 396.014 109.743 402.044 115.144C408.068 107.58 404.452 88.8407 404.452 88.8407L392.161 83.1817L381.149 86.0112Z" fill="#1F161E"/>
<path d="M395.115 46.9283C398.621 46.9283 401.462 43.5865 401.462 39.4642C401.462 35.3418 398.621 32 395.115 32C391.61 32 388.768 35.3418 388.768 39.4642C388.768 43.5865 391.61 46.9283 395.115 46.9283Z" fill="#1F161E"/>
<path d="M358.355 98.1387C355.379 104.65 353.539 113.182 352.489 122.222" stroke="#1F161E" stroke-linecap="round" stroke-linejoin="round"/>
<path d="M274.117 95.8894C277.495 95.8894 280.234 93.638 280.234 90.8608C280.234 88.0835 277.495 85.8322 274.117 85.8322C270.739 85.8322 268 88.0835 268 90.8608C268 93.638 270.739 95.8894 274.117 95.8894Z" fill="#F8CDBA"/>
<path d="M277.596 75.8967L270.214 99.163" stroke="black" stroke-width="3" stroke-miterlimit="10" stroke-linecap="round"/>
</g>
<defs>
<clipPath id="clip0">
<rect width="368" height="352" fill="white"/>
</clipPath>
<clipPath id="clip1">
<rect width="161" height="328" fill="white" transform="translate(268 32)"/>
</clipPath>
</defs>
</svg>
