<svg width="267" height="200" viewBox="0 0 267 200" fill="none" xmlns="http://www.w3.org/2000/svg">
<path d="M157.14 26.9399H139.687V29.6999H157.14V26.9399Z" fill="#E6E6E6"/>
<path d="M157.14 24.1667H143.94V26.9267H157.14V24.1667Z" fill="#C9C9C9"/>
<path opacity="0.45" d="M133.067 187.707C183.376 187.707 224.16 181.842 224.16 174.607C224.16 167.372 183.376 161.507 133.067 161.507C82.7572 161.507 41.9733 167.372 41.9733 174.607C41.9733 181.842 82.7572 187.707 133.067 187.707Z" fill="#E6E6E6"/>
<path d="M176.06 51.46V63.7066H183.973L185.7 68.58L187.747 63.7066H195.66V51.46H176.06Z" fill="#E6E6E6"/>
<path opacity="0.12" d="M184.873 60.3202C184.784 60.3166 184.697 60.2939 184.618 60.2536C184.539 60.2133 184.469 60.1565 184.413 60.0868L182.347 57.4202C182.297 57.3576 182.26 57.2856 182.238 57.2084C182.216 57.1313 182.21 57.0505 182.22 56.971C182.23 56.8914 182.256 56.8147 182.296 56.7453C182.336 56.6759 182.389 56.6152 182.453 56.5668C182.516 56.5166 182.589 56.4794 182.667 56.4576C182.744 56.4357 182.826 56.4296 182.906 56.4395C182.986 56.4494 183.063 56.4752 183.133 56.5154C183.203 56.5556 183.264 56.6093 183.313 56.6735L184.94 58.7668L188.94 54.4335C188.996 54.376 189.063 54.3304 189.137 54.2992C189.21 54.268 189.29 54.252 189.37 54.252C189.45 54.252 189.53 54.268 189.603 54.2992C189.677 54.3304 189.744 54.376 189.8 54.4335C189.86 54.4877 189.908 54.5534 189.942 54.6266C189.977 54.6998 189.996 54.7791 189.999 54.8598C190.002 54.9406 189.989 55.0211 189.961 55.0967C189.932 55.1723 189.889 55.2415 189.833 55.3002L185.333 60.1202C185.275 60.1844 185.204 60.2354 185.125 60.2699C185.046 60.3044 184.96 60.3216 184.873 60.3202Z" fill="black"/>
<path d="M70.3933 54.3066V66.5533H78.3066L80.04 71.4266L82.0866 66.5533H90V54.3066H70.3933Z" fill="#E6E6E6"/>
<path opacity="0.12" d="M79.2067 63.1667C79.1177 63.1631 79.0306 63.1404 78.9513 63.1002C78.8719 63.0599 78.8021 63.003 78.7467 62.9334L76.68 60.2667C76.5882 60.138 76.5497 59.9787 76.5726 59.8223C76.5954 59.6658 76.6777 59.5242 76.8025 59.427C76.9272 59.3298 77.0846 59.2845 77.2419 59.3006C77.3992 59.3167 77.5442 59.3929 77.6467 59.5134L79.2733 61.6067L83.2733 57.2734C83.3298 57.2158 83.3972 57.1699 83.4717 57.1387C83.5461 57.1074 83.626 57.0913 83.7067 57.0913C83.7874 57.0913 83.8673 57.1074 83.9417 57.1387C84.0161 57.1699 84.0835 57.2158 84.14 57.2734C84.2532 57.3892 84.3166 57.5448 84.3166 57.7067C84.3166 57.8687 84.2532 58.0242 84.14 58.1401L79.6333 63.0001C79.5768 63.0547 79.51 63.0976 79.4367 63.1262C79.3635 63.1548 79.2853 63.1686 79.2067 63.1667Z" fill="black"/>
<path d="M173.233 29.7134H93.4333V172.827H173.233V29.7134Z" fill="#C9C9C9"/>
<path d="M166.087 46.0266H100.033V146.747H166.087V46.0266Z" fill="white"/>
<path opacity="0.56" d="M133.573 167.453C137.885 167.453 141.38 163.958 141.38 159.647C141.38 155.335 137.885 151.84 133.573 151.84C129.262 151.84 125.767 155.335 125.767 159.647C125.767 163.958 129.262 167.453 133.573 167.453Z" fill="white"/>
<path opacity="0.12" d="M148.953 35.3066H126.58V38.5666H148.953V35.3066Z" fill="black"/>
<path d="M118.48 40.9398C120.494 40.9398 122.127 39.3071 122.127 37.2931C122.127 35.2792 120.494 33.6465 118.48 33.6465C116.466 33.6465 114.833 35.2792 114.833 37.2931C114.833 39.3071 116.466 40.9398 118.48 40.9398Z" fill="white"/>
<path d="M182.22 81.4199C182.026 82.8623 182.026 84.3241 182.22 85.7666C182.295 86.1067 182.501 86.4038 182.792 86.5944C183.084 86.7851 183.438 86.854 183.78 86.7866C184.333 86.7041 184.85 86.464 185.27 86.0951C185.689 85.7262 185.994 85.2441 186.147 84.7066L187.027 82.4532C187.155 81.9847 187.135 81.4881 186.97 81.0311C186.806 80.5741 186.504 80.1791 186.107 79.8999C184.7 78.7799 182.347 79.8332 182.22 81.4199Z" fill="#F4A28C"/>
<path opacity="0.08" d="M93.3333 127.093L93.68 134.333L100.68 132.88L103.66 120.253C104.221 117.872 105.507 115.723 107.339 114.102C109.171 112.481 111.461 111.467 113.893 111.2C119.227 110.62 125.84 110.073 130.06 110.367C138.013 110.92 154.813 109.033 160.46 113.86C166.107 118.687 166.7 131.7 173.247 136.473V127.413L171.333 103.033L164.113 100.573L138.553 104.367L135.827 104.833L133 106.367L127 103.367L92.4467 101.92L93.3333 127.093Z" fill="black"/>
<path d="M186.887 82.8667L187.86 91.38L183.127 91.58L184.32 85.3L186.887 82.8667Z" fill="#F4A28C"/>
<path d="M85.14 91.6733L130.047 101.847L129.227 105.667C129.227 105.667 106.773 105.1 89.9933 108.333C73.2133 111.567 85.14 91.6733 85.14 91.6733Z" fill="#1E90FF"/>
<path opacity="0.08" d="M85.14 91.6733L130.047 101.847L129.227 105.667C129.227 105.667 106.773 105.1 89.9933 108.333C73.2133 111.567 85.14 91.6733 85.14 91.6733Z" fill="black"/>
<path d="M182.087 83.0667L181.333 84.04C181.292 84.0959 181.265 84.1612 181.254 84.2301C181.244 84.299 181.25 84.3694 181.273 84.4352C181.296 84.5009 181.335 84.5601 181.386 84.6074C181.437 84.6547 181.499 84.6888 181.567 84.7066L182.56 84.94L182.087 83.0667Z" fill="#F4A28C"/>
<path d="M181.227 91.6733L136.5 102.667L137.7 105.093C137.7 105.093 159.587 105.093 176.367 108.293C193.147 111.493 181.227 91.6733 181.227 91.6733Z" fill="#F4A28C"/>
<path opacity="0.31" d="M184 86.6667C184.594 86.5442 185.139 86.2498 185.567 85.8201C185.335 87.0382 184.648 88.1225 183.647 88.8534L184 86.6667Z" fill="#CE8172"/>
<path d="M160.92 106.24L162.067 96.3933L177.873 92.3267L179.68 108.667C173.326 109.158 166.94 108.332 160.92 106.24Z" fill="#1E90FF"/>
<path opacity="0.08" d="M160.92 106.24L162.067 96.3933L177.873 92.3267L179.68 108.667C173.326 109.158 166.94 108.332 160.92 106.24Z" fill="black"/>
<path d="M177.873 92.3266C177.873 92.3266 198.167 87.7866 205.433 91.8599C212.7 95.9332 198.433 134.333 198.433 134.333L176.033 133.627C176.033 133.627 156.427 96.2266 177.873 92.3266Z" fill="#1E90FF"/>
<path d="M182.407 170.393C182.407 170.393 181.36 172.273 179.533 172.133C177.707 171.993 176.947 173.68 178.493 174.4C180.04 175.12 184.567 173.733 184.567 173.733L184.953 170.4L182.407 170.393Z" fill="#1E90FF"/>
<path d="M198.82 170C198.82 170 199.567 172 201.393 172.16C203.22 172.32 203.713 174.087 202.06 174.56C200.407 175.033 196.167 172.96 196.167 172.96L196.287 169.627L198.82 170Z" fill="#1E90FF"/>
<path d="M176.033 133.627L181.76 170.393H185.507C185.507 170.393 182.04 142.74 188.1 139.407C194.16 136.073 195.333 170.393 195.333 170.393L199.333 170.073L199.287 132.167L176.033 133.627Z" fill="#24285B"/>
<path d="M84.14 81.4199C84.3371 82.8621 84.3371 84.3244 84.14 85.7666C84.0647 86.1067 83.8594 86.4038 83.5678 86.5944C83.2763 86.7851 82.9217 86.854 82.58 86.7866C82.0276 86.7053 81.5106 86.4655 81.0918 86.0963C80.6729 85.7271 80.3701 85.2444 80.22 84.7066L79.3333 82.4532C79.205 81.9841 79.2251 81.4866 79.3911 81.0294C79.557 80.5721 79.8606 80.1776 80.26 79.8999C81.6667 78.7799 84 79.8332 84.14 81.4199Z" fill="#F4A28C"/>
<path d="M79.4733 82.8667L78.5067 91.38L83.24 91.58L82.04 85.3L79.4733 82.8667Z" fill="#F4A28C"/>
<path d="M84.2733 83.0667L85.0467 84.04C85.0899 84.0954 85.1185 84.1608 85.1299 84.2302C85.1413 84.2995 85.1351 84.3706 85.1119 84.437C85.0886 84.5033 85.0491 84.5628 84.997 84.6099C84.9448 84.657 84.8817 84.6903 84.8133 84.7066L83.82 84.94L84.2733 83.0667Z" fill="#F4A28C"/>
<path opacity="0.31" d="M82.36 86.6667C81.7661 86.5442 81.2213 86.2498 80.7933 85.8201C81.0264 87.0394 81.7153 88.1242 82.72 88.8534L82.36 86.6667Z" fill="#CE8172"/>
<path d="M88.4867 92.3266C88.4867 92.3266 68.1933 87.7866 60.9267 91.8599C53.66 95.9332 67.9267 134.333 67.9267 134.333L90.3333 133.627C90.3333 133.627 109.933 96.2266 88.4867 92.3266Z" fill="#1E90FF"/>
<path d="M83.96 170.393C83.96 170.393 85 172.273 86.8267 172.133C88.6533 171.993 89.42 173.68 87.8667 174.4C86.3133 175.12 81.8 173.733 81.8 173.733L81.4133 170.4L83.96 170.393Z" fill="#1E90FF"/>
<path d="M67.54 170C67.54 170 66.8 172 64.9733 172.16C63.1466 172.32 62.6466 174.087 64.3066 174.56C65.9666 175.033 70.2066 172.96 70.2066 172.96L70.08 169.627L67.54 170Z" fill="#1E90FF"/>
<path opacity="0.08" d="M70.8667 95.4199C70.8667 95.4199 77.28 99.5732 74.0133 109.06C70.7467 118.547 70.22 125.347 77.92 122.967C85.62 120.587 85.0533 109.967 85.0533 109.967L92.9067 111.18L93.6667 126.253L90.3333 133.627L70.8667 132.4L62.94 130.4L60 120.44L65.3867 103.593L70.8667 95.4199Z" fill="black"/>
<path d="M90.3333 133.627L84.6 170.393H80.8533C80.8533 170.393 84.3267 142.74 78.2667 139.407C72.2067 136.073 71.0133 170.393 71.0133 170.393L67.0133 170.073L67.0533 132.167L90.3333 133.627Z" fill="#24285B"/>
<path d="M66.9133 90.6668C66.9133 90.6668 54.2933 88.5401 54.2933 108.4C54.2933 128.26 57.3267 145.94 86.46 128.227L84.2467 124.847C84.2467 124.847 68.5533 131.753 65.2133 125.687C61.8733 119.62 78.32 94.0001 66.9133 90.6668Z" fill="#1E90FF"/>
<path opacity="0.46" d="M66.9133 90.6668C66.9133 90.6668 54.2933 88.5401 54.2933 108.4C54.2933 128.26 57.3267 145.94 86.46 128.227L84.2467 124.847C84.2467 124.847 68.5533 131.753 65.2133 125.687C61.8733 119.62 78.32 94.0001 66.9133 90.6668Z" fill="white"/>
<path d="M85.9645 124.322L96.6516 127.01L100.675 111.015L89.9881 108.327L85.9645 124.322Z" fill="#2ED573"/>
<path opacity="0.08" d="M198.093 96.3933C198.093 96.3933 193.22 100.26 196.18 108.673C199.14 117.087 196.333 131.34 187.86 132.88L199.28 132.167L205.067 113.047L198.093 96.3933Z" fill="black"/>
<path d="M83.64 81.5334C83.4457 81.5971 83.2475 81.6483 83.0467 81.6867C82.765 81.7506 82.4903 81.8422 82.2267 81.96L82.0133 82.0534C81.862 82.1197 81.7333 82.229 81.6433 82.3676C81.5533 82.5062 81.5058 82.6681 81.5067 82.8334C81.5392 83.1522 81.5047 83.4743 81.4055 83.779C81.3062 84.0837 81.1444 84.3644 80.9303 84.6029C80.7163 84.8414 80.4548 85.0326 80.1625 85.1641C79.8703 85.2956 79.5538 85.3646 79.2333 85.3667C79.2333 85.3667 77.1733 82.2934 78.82 79.9334C79.302 79.2803 79.9239 78.7433 80.6402 78.3615C81.3565 77.9797 82.1491 77.7628 82.96 77.7267C83.4241 77.7211 83.8751 77.8804 84.2327 78.1762C84.5903 78.4719 84.8314 78.885 84.913 79.3419C84.9946 79.7988 84.9115 80.2698 84.6784 80.6711C84.4452 81.0724 84.0773 81.3779 83.64 81.5334Z" fill="#24285B"/>
<path d="M81.4667 84.2799C81.54 84.187 81.5873 84.0763 81.6037 83.9592C81.6201 83.842 81.605 83.7226 81.56 83.6132C81.4133 83.2665 81.1267 82.7999 80.6467 82.8665C80.1667 82.9332 80.0667 83.7199 80.4067 84.1999C80.4689 84.2814 80.5491 84.3475 80.641 84.393C80.7329 84.4385 80.8341 84.4621 80.9367 84.4621C81.0392 84.4621 81.1404 84.4385 81.2323 84.393C81.3243 84.3475 81.4045 84.2814 81.4667 84.1999V84.2799Z" fill="#F4A28C"/>
<path d="M180.927 78.74C181.272 79.2478 181.5 79.8263 181.593 80.4333C181.592 80.6193 181.635 80.8028 181.719 80.9687C181.803 81.1345 181.926 81.2779 182.076 81.3868C182.227 81.4958 182.402 81.5671 182.586 81.5949C182.769 81.6227 182.957 81.6062 183.133 81.5467C185.133 81.2 184.467 84.9667 187.087 84.54C187.483 84.526 187.864 84.3849 188.174 84.1376C188.483 83.8903 188.705 83.5499 188.807 83.1667C188.898 82.7691 189.076 82.3966 189.329 82.0761C189.581 81.7557 189.901 81.4952 190.267 81.3133C190.82 81.0467 191.247 80.5067 190.987 79.4333C190.407 77.0067 188.527 80.0267 187.867 77.4333C187.207 74.84 186.107 75.2467 185.573 75.7133C185.04 76.18 184.493 76.88 183.653 76.0267C182.813 75.1733 179.753 76.8667 180.927 78.74Z" fill="#24285B"/>
<path d="M184.9 84.2799C184.827 84.187 184.779 84.0763 184.763 83.9592C184.747 83.842 184.762 83.7226 184.807 83.6132C184.953 83.2665 185.24 82.7999 185.713 82.8665C186.187 82.9332 186.293 83.7199 185.96 84.1999C185.898 84.2814 185.818 84.3475 185.726 84.393C185.634 84.4385 185.533 84.4621 185.43 84.4621C185.327 84.4621 185.226 84.4385 185.134 84.393C185.042 84.3475 184.962 84.2814 184.9 84.1999V84.2799Z" fill="#F4A28C"/>
<path d="M129.927 102.407L131.66 102.927C132.137 103.064 132.567 103.328 132.905 103.691C133.243 104.054 133.476 104.502 133.58 104.987C133.767 105.893 133.78 106.887 133.067 107.187C131.667 107.767 129.413 104.8 129.413 104.8L129.927 102.407Z" fill="#F4A28C"/>
<path d="M137.447 102.407L135.82 102.893C135.291 103.049 134.817 103.35 134.451 103.763C134.086 104.176 133.844 104.683 133.753 105.227C133.613 106.06 133.66 106.913 134.307 107.187C135.707 107.767 137.96 104.8 137.96 104.8L137.447 102.407Z" fill="#F4A28C"/>
<path d="M133 95.42C143.453 95.42 151.927 86.9462 151.927 76.4933C151.927 66.0404 143.453 57.5667 133 57.5667C122.547 57.5667 114.073 66.0404 114.073 76.4933C114.073 86.9462 122.547 95.42 133 95.42Z" fill="#24285B"/>
<path d="M126.073 76.7001L130.64 84.1401L139.933 70.8801" stroke="white" stroke-width="5" stroke-linecap="round" stroke-linejoin="round"/>
<path d="M203.473 90.98C207.76 91.3534 213.193 95.0734 216.9 109.167L203.9 113.833L198.367 97.6134C198.098 96.8289 198.028 95.9902 198.163 95.1721C198.297 94.354 198.632 93.582 199.138 92.925C199.644 92.268 200.305 91.7465 201.061 91.4071C201.818 91.0677 202.646 90.921 203.473 90.98Z" fill="#1E90FF"/>
<path opacity="0.46" d="M203.473 90.98C207.76 91.3534 213.193 95.0734 216.9 109.167L203.9 113.833L198.367 97.6134C198.098 96.8289 198.028 95.9902 198.163 95.1721C198.297 94.354 198.632 93.582 199.138 92.925C199.644 92.268 200.305 91.7465 201.061 91.4071C201.818 91.0677 202.646 90.921 203.473 90.98Z" fill="white"/>
<path d="M76.82 90.9867C76.82 90.9867 77.1133 87.6534 81.0267 88.8534C84.94 90.0534 85.14 91.6734 85.14 91.6734L76.82 90.9867Z" fill="#1E90FF"/>
<path opacity="0.46" d="M76.82 90.9867C76.82 90.9867 77.1133 87.6534 81.0267 88.8534C84.94 90.0534 85.14 91.6734 85.14 91.6734L76.82 90.9867Z" fill="white"/>
<path d="M216.2 109.167L219.213 119.893C219.925 122.434 219.63 125.151 218.388 127.478C217.146 129.806 215.053 131.564 212.547 132.387L203.427 134.667C202.933 134.786 202.479 135.034 202.111 135.385C201.744 135.737 201.475 136.179 201.333 136.667C201.053 137.633 200.573 138.667 199.78 138.607C196.493 138.313 199.627 133.64 199.627 133.64L208.533 128.08C209.632 127.393 210.433 126.319 210.779 125.07C211.124 123.821 210.989 122.488 210.4 121.333L206.153 113.08L216.2 109.167Z" fill="#F4A28C"/>
<path d="M148.527 116.527H118.48V130.367H148.527V116.527Z" fill="#2ED573"/>
<path opacity="0.34" d="M143.14 135.573H124.013V139.633H143.14V135.573Z" fill="#C9C9C9"/>
<path d="M84.6667 125.513C84.6667 125.513 86.8067 122.267 88.82 123.907C90.8333 125.547 85.9133 127.413 85.9133 127.413L84.6667 125.513Z" fill="#F4A28C"/>
<path opacity="0.46" d="M145.527 118.84H129.507V122.28H145.527V118.84Z" fill="white"/>
<path opacity="0.58" d="M155.66 23.5335C155.66 23.5335 150.78 22.2001 149.72 17.6601C149.72 17.6601 157.28 16.1335 157.493 23.9335L155.66 23.5335Z" fill="#1E90FF"/>
<path opacity="0.73" d="M156.26 23.0465C156.26 23.0465 152.853 17.6599 155.853 12.6199C155.853 12.6199 161.6 16.2732 159.047 23.0599L156.26 23.0465Z" fill="#1E90FF"/>
<path d="M157.14 23.0534C157.14 23.0534 158.94 17.36 164.38 16.28C164.38 16.28 165.4 19.98 160.86 23.0667L157.14 23.0534Z" fill="#1E90FF"/>
<path d="M153.6 22.9199L154.587 29.6866L160.813 29.7133L161.733 22.9599L153.6 22.9199Z" fill="#24285B"/>
</svg>
