<svg width="267" height="200" viewBox="0 0 267 200" fill="none" xmlns="http://www.w3.org/2000/svg">
<path d="M49.7667 136.84C49.7667 136.84 50.28 144.38 53.8533 142.42C57.4267 140.46 52.9533 136.84 52.9533 136.84H49.7667Z" fill="#F4A28C"/>
<path d="M200.587 31.4866H66.6667V135.347H200.587V31.4866Z" fill="#E6E6E6"/>
<path opacity="0.39" d="M104.267 74.5334H77.7133V84.1401H104.267V74.5334Z" fill="#C9C9C9"/>
<path opacity="0.2" d="M150.627 94.3933H122.76V125.6H150.627V94.3933Z" fill="#C9C9C9"/>
<path opacity="0.2" d="M104.5 94.3933H76.6333V125.6H104.5V94.3933Z" fill="#C9C9C9"/>
<path opacity="0.2" d="M195.22 74.9666H163.94V125.6H195.22V74.9666Z" fill="#C9C9C9"/>
<path opacity="0.08" d="M67.04 67.8867C67.04 67.8867 72.26 66.8667 73.26 73.8867C74.26 80.9067 71.5333 86.36 79.7 87.6133C87.8667 88.8667 97.4067 82.9467 102.173 95.6667C106.94 108.387 107.16 135.333 107.16 135.333H84.4933L63.8267 82.22L67.04 67.8867Z" fill="black"/>
<path opacity="0.45" d="M69.5067 176.28C93.1849 176.28 112.38 173.743 112.38 170.613C112.38 167.484 93.1849 164.947 69.5067 164.947C45.8284 164.947 26.6333 167.484 26.6333 170.613C26.6333 173.743 45.8284 176.28 69.5067 176.28Z" fill="#E6E6E6"/>
<path opacity="0.45" d="M200.187 175.86C224.285 175.86 243.82 173.323 243.82 170.193C243.82 167.064 224.285 164.527 200.187 164.527C176.089 164.527 156.553 167.064 156.553 170.193C156.553 173.323 176.089 175.86 200.187 175.86Z" fill="#E6E6E6"/>
<path opacity="0.58" d="M39.1533 163.867C39.1533 163.867 33.48 162.313 32.24 157.033C32.24 157.033 41.04 155.253 41.2867 164.333L39.1533 163.867Z" fill="#1E90FF"/>
<path opacity="0.73" d="M39.8533 163.333C39.8533 163.333 35.8533 157.067 39.3733 151.2C39.3733 151.2 46.04 155.447 43.0933 163.347L39.8533 163.333Z" fill="#1E90FF"/>
<path d="M40.8734 163.333C40.8734 163.333 42.9667 156.667 49.3333 155.427C49.3333 155.427 50.52 159.727 45.2333 163.327L40.8734 163.333Z" fill="#1E90FF"/>
<path d="M36.7533 163.16L37.9067 171.033L45.1533 171.06L46.22 163.193L36.7533 163.16Z" fill="#24285B"/>
<path d="M60.7933 87.8467C60.7933 87.8467 35.46 105.847 49.1733 136.84H52.9533C52.9533 136.84 50.9533 114.353 60.7933 103.707C70.6333 93.06 60.7933 87.8467 60.7933 87.8467Z" fill="#1E90FF"/>
<path opacity="0.2" d="M60.7933 87.8467C60.7933 87.8467 35.46 105.847 49.1733 136.84H52.9533C52.9533 136.84 50.9533 114.353 60.7933 103.707C70.6333 93.06 60.7933 87.8467 60.7933 87.8467Z" fill="white"/>
<path d="M67.7067 78.1268L69.86 84.5935L64.74 87.8468L62.9 76.6401L67.7067 78.1268Z" fill="#F4A28C"/>
<path d="M61.4 72.7266C61.6111 72.2439 61.9394 71.8214 62.3549 71.4976C62.7705 71.1738 63.2604 70.9588 63.78 70.8721C64.2997 70.7853 64.8328 70.8296 65.3311 71.001C65.8293 71.1723 66.2769 71.4652 66.6333 71.8532C68.3467 73.6799 70.4133 76.5866 68.08 78.1666C64.5067 80.5932 61.2267 76.0666 61.2267 76.0666C60.9556 74.9603 61.0159 73.7988 61.4 72.7266Z" fill="#F4A28C"/>
<path d="M64.4667 74.3533C64.4667 74.3533 63.3 73.38 62.7733 74.76C62.2467 76.14 64.3067 76.8133 64.92 76.0933C65.5333 75.3733 64.4667 74.3533 64.4667 74.3533Z" fill="#F4A28C"/>
<path d="M67.2442 117.726L42.2891 124.221L46.8166 141.615L71.7717 135.119L67.2442 117.726Z" fill="#2ED573"/>
<path opacity="0.08" d="M55.1333 120.88L59.1333 132.66L58.92 138.467L64.6667 137.007L67.22 126.54L60.26 119.54L55.1333 120.88Z" fill="black"/>
<path d="M58.7667 91.02C59.5391 89.3057 60.6721 87.7782 62.0883 86.5415C63.5045 85.3047 65.1707 84.3878 66.9733 83.8533C73.9267 81.7666 86.7267 84.0533 90.6333 90.56C95.9667 99.46 88.1533 127.747 88.1533 127.747L64.82 129.56C64.82 129.56 51.9333 106.38 58.7667 91.02Z" fill="#1E90FF"/>
<path d="M88.1534 127.747L85.08 167.92H80.22L75.88 136.707L65.14 129.56L88.1534 127.747Z" fill="#24285B"/>
<path d="M65.14 129.56L58.4333 167.92H63.6467L74.8933 136.053L65.14 129.56Z" fill="#24285B"/>
<path d="M150.62 75.9932H138.82V89.9798H150.62V75.9932Z" fill="#C9C9C9"/>
<path opacity="0.08" d="M68.9933 83.2466C68.9933 83.2466 58.0667 118.447 89.66 120.78L88.1867 127.747L64.8533 129.56C64.8533 129.56 56.5533 116.667 56.9 98.4732C56.9 98.4732 57.1 89.4932 63.42 85.5266C65.0931 84.3763 66.9937 83.5988 68.9933 83.2466Z" fill="black"/>
<path d="M59.6533 167.84L56.52 170.153C56.3874 170.23 56.2852 170.35 56.2306 170.493C56.1759 170.636 56.1721 170.793 56.2198 170.939C56.2675 171.084 56.3638 171.209 56.4925 171.291C56.6212 171.374 56.7745 171.41 56.9267 171.393H62.1867C62.3635 171.393 62.5331 171.323 62.6581 171.198C62.7831 171.073 62.8533 170.904 62.8533 170.727V167.86L59.6533 167.84Z" fill="#1E90FF"/>
<path d="M84.4733 167.84L87.4267 170.147C87.5692 170.22 87.6804 170.343 87.7398 170.492C87.7993 170.641 87.803 170.806 87.7503 170.958C87.6977 171.109 87.5921 171.237 87.4531 171.317C87.314 171.397 87.1508 171.424 86.9933 171.393H83.2533C82.7229 171.393 82.2142 171.183 81.8391 170.807C81.464 170.432 81.2533 169.924 81.2533 169.393V167.833L84.4733 167.84Z" fill="#1E90FF"/>
<path d="M61.5333 77.4534C61.5333 77.4534 62.6733 79.5201 64.56 78.8801C66.4467 78.2401 65.0867 73.7801 65.0867 73.7801C65.0867 73.7801 67.3667 70.4934 67.04 67.8867C66.9869 67.5777 66.8362 67.2939 66.6099 67.0768C66.3837 66.8597 66.0938 66.7209 65.7829 66.6806C65.4719 66.6403 65.1563 66.7008 64.8822 66.8531C64.6081 67.0053 64.3901 67.2414 64.26 67.5267C64.042 67.9206 63.725 68.2508 63.3404 68.4846C62.9557 68.7185 62.5167 68.8479 62.0667 68.8601C58.86 69.2334 55.9133 74.3001 61.5333 77.4534Z" fill="#24285B"/>
<path d="M77.8667 93.6733C77.3227 92.5031 77.1651 91.1902 77.4168 89.9246C77.6684 88.6589 78.3163 87.5061 79.2665 86.633C80.2168 85.76 81.4202 85.2119 82.7027 85.0681C83.9851 84.9244 85.28 85.1924 86.4 85.8333C90.2133 87.9867 94.0533 91.8 95.5533 98.5333C98.96 113.767 99.8933 132.233 99.8933 132.233L96 132.667C96 132.667 91.6933 113.687 84.34 103.333C82.56 100.887 79.38 97 77.8667 93.6733Z" fill="#1E90FF"/>
<path opacity="0.2" d="M77.8667 93.6733C77.3227 92.5031 77.1651 91.1902 77.4168 89.9246C77.6684 88.6589 78.3163 87.5061 79.2665 86.633C80.2168 85.76 81.4202 85.2119 82.7027 85.0681C83.9851 84.9244 85.28 85.1924 86.4 85.8333C90.2133 87.9867 94.0533 91.8 95.5533 98.5333C98.96 113.767 99.8933 132.233 99.8933 132.233L96 132.667C96 132.667 91.6933 113.687 84.34 103.333C82.56 100.887 79.38 97 77.8667 93.6733Z" fill="white"/>
<path d="M96.76 132.573C96.76 132.573 94.76 138.147 97.2866 138.453C100.62 138.847 99.8933 132.233 99.8933 132.233L96.76 132.573Z" fill="#F4A28C"/>
<path opacity="0.08" d="M202.06 131.573C202.06 131.573 203.28 74.2401 199.667 69.0134C199.667 69.0134 196.533 68.1201 195.413 72.9001C194.293 77.6801 193.68 79.0467 196.013 80.2334C198.347 81.4201 197.12 87.9934 192.873 87.8334C188.627 87.6734 183.227 86.3667 181.147 89.9667C179.067 93.5667 177.973 116.967 169.293 111.26C160.613 105.553 160.793 90.1934 160.793 90.1934L145.287 90.0001V102.367L157.353 102.127C157.353 102.127 158.907 123.167 175.873 127.867C176.717 128.091 177.506 128.484 178.193 129.023C178.88 129.561 179.45 130.234 179.869 130.999C180.288 131.765 180.547 132.608 180.63 133.477C180.714 134.345 180.619 135.222 180.353 136.053" fill="black"/>
<path d="M198.9 85.4466C198.9 85.4466 189.033 84.1133 187.053 92.3733C185.073 100.633 184.793 112.033 176.867 114.32C168.94 116.607 164.56 100.753 164.56 100.753C164.56 100.753 162.72 96.3066 160.74 95.6999C158.76 95.0933 157.34 99.4799 160.74 102.167C160.74 102.167 163.6 122.4 178.793 121.693C193.987 120.987 198.9 100.127 198.9 85.4466Z" fill="#F4A28C"/>
<path opacity="0.08" d="M198.9 85.4466C198.9 85.4466 189.033 84.1133 187.053 92.3733C185.073 100.633 184.793 112.033 176.867 114.32C168.94 116.607 164.56 100.753 164.56 100.753C164.56 100.753 162.72 96.3066 160.74 95.6999C158.76 95.0933 157.34 99.4799 160.74 102.167C160.74 102.167 163.6 122.4 178.793 121.693C193.987 120.987 198.9 100.127 198.9 85.4466Z" fill="black"/>
<path d="M198.9 85.4468C198.9 85.4468 188.313 83.3534 186.827 91.9134C186.017 96.821 184.638 101.618 182.72 106.207L190.813 108.827L198.9 85.4468Z" fill="#1E90FF"/>
<path opacity="0.46" d="M198.9 85.4468C198.9 85.4468 188.313 83.3534 186.827 91.9134C186.017 96.821 184.638 101.618 182.72 106.207L190.813 108.827L198.9 85.4468Z" fill="white"/>
<path d="M199.333 71.1067C198.488 72.9075 197.887 74.8133 197.547 76.7734C197.519 77.0105 197.539 77.2508 197.605 77.4802C197.671 77.7097 197.782 77.9237 197.931 78.1098C198.081 78.2959 198.266 78.4505 198.476 78.5644C198.685 78.6783 198.916 78.7493 199.153 78.7734C199.907 78.8921 200.68 78.7927 201.379 78.4867C202.078 78.1807 202.675 77.6811 203.1 77.0467L205.187 74.4867C205.551 73.9312 205.734 73.2761 205.71 72.6121C205.686 71.9481 205.457 71.3079 205.053 70.78C203.687 68.6667 200.193 69.0934 199.333 71.1067Z" fill="#F4A28C"/>
<path d="M203.913 75.0466L204.66 85.4466H198.9L200.627 78.0666L203.913 75.0466Z" fill="#F4A28C"/>
<path d="M198.407 73.5466L197.153 74.3866C197.08 74.433 197.02 74.497 196.979 74.5727C196.937 74.6485 196.915 74.7335 196.915 74.82C196.915 74.9064 196.937 74.9914 196.979 75.0672C197.02 75.1429 197.08 75.207 197.153 75.2533L198.213 75.92L198.407 73.5466Z" fill="#F4A28C"/>
<path opacity="0.31" d="M200.573 78.2801C201.27 78.1566 201.92 77.8454 202.453 77.3801C202.453 77.3801 202.827 79.6335 200.08 80.3935L200.573 78.2801Z" fill="#CE8172"/>
<path d="M202.313 74.9066C202.313 74.9066 202.82 73.6266 203.753 74.0866C204.687 74.5466 203.973 76.3999 202.587 76.0866L202.313 74.9066Z" fill="#F4A28C"/>
<path d="M188.493 144.673L183.62 166.82H186.453L195.933 144.673H188.493Z" fill="#F4A28C"/>
<path d="M204.347 141.987L209.54 166.82H212.393L211.96 141.807L204.347 141.987Z" fill="#F4A28C"/>
<path d="M183.62 166.82C183.62 166.82 182.047 168.82 180.033 168.713C178.02 168.607 177.727 171.46 180.967 171.167C181.973 171.079 182.969 170.908 183.947 170.653C184.85 170.446 185.792 170.479 186.68 170.747C186.852 170.789 187.034 170.776 187.199 170.711C187.364 170.645 187.504 170.529 187.6 170.38C188.52 169.3 186.267 166.82 186.267 166.82H183.62Z" fill="#1E90FF"/>
<path d="M212.18 166.82C212.18 166.82 213.753 168.82 215.767 168.713C217.78 168.607 218.073 171.46 214.84 171.167C213.832 171.079 212.833 170.907 211.853 170.653C210.952 170.448 210.012 170.48 209.127 170.747C208.954 170.789 208.773 170.776 208.608 170.711C208.443 170.645 208.303 170.529 208.207 170.38C207.287 169.3 209.54 166.82 209.54 166.82H212.18Z" fill="#1E90FF"/>
<path d="M198.9 85.4468H204.667C204.667 85.4468 205.06 85.4468 205.74 85.4468C218.307 85.8468 225.607 99.8068 218.933 110.46C215.22 116.387 210.793 124.373 210.493 129.127L188.093 128C188.093 128 189.793 113.473 185.64 105.173C185.64 105.187 178 92.1201 198.9 85.4468Z" fill="#1E90FF"/>
<path opacity="0.08" d="M208.907 93.0532C208.907 93.0532 206.12 98.8132 205.46 109.167C204.8 119.52 189.08 107.293 189.08 107.293L188.36 124.393L211.227 125.6L213.127 118.667C213.127 118.667 219.127 107.94 208.907 93.0532Z" fill="black"/>
<path d="M187.95 122.502L202.875 120.754L200.174 97.6913L185.249 99.4392L187.95 122.502Z" fill="#2ED573"/>
<path d="M189.503 100.89L196.449 100.076L196.053 96.6929L189.107 97.5064L189.503 100.89Z" fill="#24285B"/>
<path d="M188.36 124.393L211.227 125.6L217.333 148.767L184.28 147.587L188.36 124.393Z" fill="#24285B"/>
<path opacity="0.08" d="M186.16 107.32L202.033 113.653L202.867 120.773L187.94 122.52L186.16 107.32Z" fill="black"/>
<path d="M209.093 94.16C209.053 93.1403 209.334 92.1337 209.897 91.2824C210.46 90.431 211.275 89.7776 212.229 89.4146C213.183 89.0515 214.226 88.997 215.213 89.2587C216.199 89.5204 217.078 90.0852 217.727 90.8733C220.97 94.7719 222.686 99.7168 222.553 104.787C222.367 118.34 220.553 133.013 191.3 116.98L192.873 112.68C192.873 112.68 205.853 118.92 211.273 116.893C215.26 115.407 209.507 103.467 209.093 94.16Z" fill="#F4A28C"/>
<path d="M192.873 112.667C192.873 112.667 188 110.353 185.927 112.667C183.853 114.98 187.153 117.06 191.3 116.967L192.873 112.667Z" fill="#F4A28C"/>
<path d="M198.793 69.3933L197.667 72.2L202.333 73.9866C202.333 73.9866 202.6 77.1133 200.953 77.68C201.334 77.6611 201.708 77.5658 202.051 77.3998C202.395 77.2337 202.702 77.0002 202.953 76.7133C203.149 76.4979 203.421 76.3676 203.711 76.3502C204.001 76.3327 204.287 76.4296 204.507 76.62L204.567 76.6666C205.897 75.3577 206.832 73.7014 207.267 71.8866C207.8 69.1266 204.727 68.7 204.727 68.7C204.727 68.7 200.62 65.8333 198.793 69.3933Z" fill="#24285B"/>
<path d="M204.707 68.7C204.707 68.7 204.913 66.0333 209.687 66.4733C214.46 66.9133 209.687 73.3467 213.613 79.3533C213.613 79.3533 206.4 77.8267 206.187 71.3533L204.707 68.7Z" fill="#24285B"/>
<path d="M204.407 68.5134C204.768 68.3177 205.179 68.2318 205.589 68.2662C205.999 68.3005 206.389 68.4536 206.713 68.7067C208.047 69.5667 208.66 72.7067 206.533 73.7601C206.533 73.7601 208.3 69.5334 204.407 68.5134Z" fill="#2ED573"/>
<path d="M210.947 108.827H223.4C223.4 108.827 224.733 90.6467 214.46 88.32C204.187 85.9934 210.947 108.827 210.947 108.827Z" fill="#1E90FF"/>
<path d="M158.567 46.4265H156.3V127.746H158.567V46.4265Z" fill="#C9C9C9"/>
<path opacity="0.46" d="M210.947 108.827H223.4C223.4 108.827 224.733 90.6467 214.46 88.32C204.187 85.9934 210.947 108.827 210.947 108.827Z" fill="white"/>
<path d="M151.453 99.4399H165.073V88.0733H151.453V99.4399Z" fill="#1E90FF"/>
<path d="M173.693 68.2732H187.313V56.9065H173.693V68.2732Z" fill="#1E90FF"/>
<path d="M83.06 70.0068H97V58.3735H83.06V70.0068Z" fill="#24285B"/>
<path opacity="0.26" d="M91.6733 55.6868H88.46V61.1868H91.6733V55.6868Z" fill="white"/>
<path d="M117.333 117.987H131.273V106.353H117.333V117.987Z" fill="#24285B"/>
<path opacity="0.26" d="M125.94 103.66H122.727V109.16H125.94V103.66Z" fill="white"/>
<path d="M128.66 69.7002H142.6V58.0669H128.66V69.7002Z" fill="#2ED573"/>
<path opacity="0.26" d="M137.267 55.3733H134.053V60.8733H137.267V55.3733Z" fill="white"/>
<path opacity="0.26" d="M181.82 55.1465H178.607V60.6465H181.82V55.1465Z" fill="white"/>
<path d="M114.647 46.4265H112.38V127.746H114.647V46.4265Z" fill="#C9C9C9"/>
<path d="M101.367 41.0933H77.88V47.5599H101.367V41.0933Z" fill="#C9C9C9"/>
<path opacity="0.58" d="M146.307 41.0933H122.82V47.5599H146.307V41.0933Z" fill="#C9C9C9"/>
<path opacity="0.3" d="M191.193 41.0933H167.707V47.5599H191.193V41.0933Z" fill="#C9C9C9"/>
<path opacity="0.58" d="M135.08 77.9199H122.82V82.0466H135.08V77.9199Z" fill="#C9C9C9"/>
<path opacity="0.58" d="M135.08 85.2866H122.82V89.4133H135.08V85.2866Z" fill="#C9C9C9"/>
</svg>
