<svg width="267" height="200" viewBox="0 0 267 200" fill="none" xmlns="http://www.w3.org/2000/svg">
<path opacity="0.45" d="M135.24 181.553C198.016 181.553 248.907 177.56 248.907 172.633C248.907 167.707 198.016 163.713 135.24 163.713C72.4636 163.713 21.5733 167.707 21.5733 172.633C21.5733 177.56 72.4636 181.553 135.24 181.553Z" fill="#E6E6E6"/>
<path d="M72.04 162.667C72.04 162.667 72.08 165.294 74.1267 166.2C76.1733 167.107 76.02 169.36 73.94 169.247C71.86 169.134 67.7933 165 67.7933 165L69.3333 161.2L72.04 162.667Z" fill="#1E90FF"/>
<path d="M64 135.08C64 135.08 76.2333 135.62 74.9 143.92C73.5667 152.22 68.1667 161.2 68.1667 161.2L72.8733 163.167C72.8733 163.167 82.2067 152.447 83.12 139.22C84.0333 125.994 65.28 128.947 64 135.08Z" fill="#24285B"/>
<path opacity="0.08" d="M64 135.08C64 135.08 76.2333 135.62 74.9 143.92C73.5667 152.22 68.1667 161.2 68.1667 161.2L72.8733 163.167C72.8733 163.167 82.2067 152.447 83.12 139.22C84.0333 125.994 65.28 128.947 64 135.08Z" fill="black"/>
<path d="M55.54 84.8801C51.1 81.4468 44.42 83.2068 42.56 88.5068C41.9884 90.1562 41.9721 91.9472 42.5133 93.6068C44.6267 100.387 47.96 109.607 60.4 112.94C72.84 116.273 83.2933 118.767 84.2933 114.4C85.2933 110.033 82.5133 104.48 72.2933 101.067C65.02 98.6001 61.1867 89.2401 55.54 84.8801Z" fill="#1E90FF"/>
<path opacity="0.08" d="M55.54 84.8801C51.1 81.4468 44.42 83.2068 42.56 88.5068C41.9884 90.1562 41.9721 91.9472 42.5133 93.6068C44.6267 100.387 47.96 109.607 60.4 112.94C72.84 116.273 83.2933 118.767 84.2933 114.4C85.2933 110.033 82.5133 104.48 72.2933 101.067C65.02 98.6001 61.1867 89.2401 55.54 84.8801Z" fill="black"/>
<path d="M81.8733 163.24C81.8733 163.24 81.8733 165.867 83.96 166.773C86.0467 167.68 85.8533 169.933 83.7667 169.82C81.68 169.707 77.6267 165.573 77.6267 165.573L79.1333 161.767L81.8733 163.24Z" fill="#1E90FF"/>
<path d="M210.5 118.513L189.687 103.133C189.687 103.133 183.147 98.4667 182.087 102.467C181.027 106.467 188.553 107.133 188.553 107.133C188.553 107.133 201.287 127.5 207.673 125.073C214.06 122.647 210.5 118.513 210.5 118.513Z" fill="#F4A28C"/>
<path opacity="0.08" d="M210.5 118.513L189.687 103.133C189.687 103.133 183.147 98.4667 182.087 102.467C181.027 106.467 188.553 107.133 188.553 107.133C188.553 107.133 201.287 127.5 207.673 125.073C214.06 122.647 210.5 118.513 210.5 118.513Z" fill="black"/>
<path d="M190.78 143.04L209.327 163.233L211.887 162.127L197.893 137.267L190.78 143.04Z" fill="#F4A28C"/>
<path d="M208.987 162.72C208.987 162.72 208.987 165.234 207.32 166.374C205.653 167.514 207.173 169.92 209.533 167.707C210.262 167.032 210.931 166.296 211.533 165.507C212.115 164.798 212.874 164.255 213.733 163.934C213.893 163.86 214.027 163.74 214.116 163.589C214.206 163.437 214.247 163.262 214.233 163.087C214.307 161.687 211.033 161.087 211.033 161.087L208.987 162.72Z" fill="#1E90FF"/>
<path d="M202.793 125.026C202.793 125.026 176.893 124.833 180.647 140.166C181.667 144.575 183.656 148.702 186.468 152.248C189.28 155.793 192.846 158.669 196.907 160.666L206.24 143.553L201.107 128.666L202.793 125.026Z" fill="#24285B"/>
<path opacity="0.08" d="M202.793 125.026C202.793 125.026 176.893 124.833 180.647 140.166C181.667 144.575 183.656 148.702 186.468 152.248C189.28 155.793 192.846 158.669 196.907 160.666L206.24 143.553L201.107 128.666L202.793 125.026Z" fill="black"/>
<path d="M217.38 138.78H214.62V162.587H217.38V138.78Z" fill="#C9C9C9"/>
<path d="M225.147 81.0733C225.147 81.0733 227.687 67.46 239.907 73.62C248.913 78.16 240.113 114.367 234.867 133.093C233.965 136.297 232.041 139.119 229.387 141.127C226.733 143.136 223.495 144.222 220.167 144.22H202.933C197.66 144.22 196.72 136.707 201.827 135.407L202.127 135.333C205.1 134.667 208.587 134.107 211.76 133.687C214.446 133.341 216.93 132.08 218.796 130.116C220.661 128.153 221.792 125.607 222 122.907L225.147 81.0733Z" fill="#E6E6E6"/>
<path d="M212.9 68.1467C212.887 69.6718 213.078 71.1918 213.467 72.6667C213.525 72.8384 213.617 72.9968 213.737 73.1329C213.857 73.2691 214.002 73.3803 214.165 73.4601C214.328 73.54 214.505 73.587 214.686 73.5984C214.867 73.6098 215.048 73.5855 215.22 73.5267C215.784 73.3697 216.291 73.0536 216.68 72.6161C217.069 72.1787 217.323 71.6384 217.413 71.06L218.047 68.6134C218.123 68.1096 218.04 67.5946 217.811 67.1396C217.582 66.6846 217.217 66.3121 216.767 66.0734C215.14 65.0867 212.833 66.48 212.9 68.1467Z" fill="#F4A28C"/>
<path d="M218.453 70.0601L219.227 79.0067L214.267 79.0867L215.66 72.7067L218.453 70.0601Z" fill="#F4A28C"/>
<path d="M212.973 69.8735L212.307 70.9869C212.268 71.05 212.246 71.1219 212.243 71.1958C212.239 71.2698 212.254 71.3434 212.287 71.4099C212.32 71.4763 212.368 71.5335 212.429 71.5761C212.489 71.6187 212.56 71.6453 212.633 71.6535L213.693 71.7669L212.973 69.8735Z" fill="#F4A28C"/>
<path opacity="0.31" d="M215.62 72.8866C216.216 72.7726 216.769 72.4983 217.22 72.0933C217.22 72.0933 217.573 74.0266 215.22 74.7133L215.62 72.8866Z" fill="#CE8172"/>
<path d="M186.427 138.78V166.194L189.067 167.107L195.573 139.334L186.427 138.78Z" fill="#F4A28C"/>
<path d="M186.527 165.587C186.527 165.587 184.8 167.42 182.827 167.154C180.853 166.887 180.313 169.667 183.533 169.654C184.534 169.653 185.533 169.568 186.52 169.4C187.422 169.274 188.342 169.387 189.187 169.727C189.354 169.781 189.534 169.783 189.703 169.734C189.872 169.684 190.022 169.584 190.133 169.447C191.127 168.46 189.113 165.814 189.113 165.814L186.527 165.587Z" fill="#1E90FF"/>
<path d="M218.267 70.0868C218.267 70.0868 218.2 69.0335 219 69.0535C219.8 69.0735 219.893 70.5935 218.827 70.8202L218.267 70.0868Z" fill="#F4A28C"/>
<path d="M213.46 67.9999C214.332 68.1418 215.221 68.1418 216.093 67.9999C216.093 67.9999 216.653 71.0399 219.067 71.8066C219.067 71.8066 221.353 67.2599 218.547 65.4999C216.2 64.0266 214.447 62.7199 212.513 64.4733C212.234 64.727 212.03 65.0527 211.924 65.4147C211.818 65.7767 211.813 66.161 211.911 66.5253C212.009 66.8897 212.205 67.2201 212.478 67.4802C212.752 67.7403 213.091 67.9202 213.46 67.9999Z" fill="#24285B"/>
<path d="M220.113 66.9065C221.619 66.9065 222.84 65.6857 222.84 64.1798C222.84 62.6739 221.619 61.4531 220.113 61.4531C218.607 61.4531 217.387 62.6739 217.387 64.1798C217.387 65.6857 218.607 66.9065 220.113 66.9065Z" fill="#24285B"/>
<path d="M216.047 69.5733C216.047 69.5733 216.167 68.3533 217.14 68.5466C218.113 68.74 218.1 70.16 216.873 70.72L216.047 69.5733Z" fill="#F4A28C"/>
<path d="M213.92 80.5066L218.767 79.1133C218.767 79.1133 231.707 80.5066 231.573 90.8866C231.473 98.58 222.493 127.333 222.493 127.333H202.793V117.207C202.837 112.414 201.713 107.682 199.52 103.42C196.473 97.6466 194.88 87.6 213.92 80.5066Z" fill="#1E90FF"/>
<path d="M210.253 92.8468C211.047 83.7268 223.953 82.5934 226.447 91.4001C227.78 96.0668 228.447 102.8 226.913 112.273C223.24 135.113 179.24 120.273 179.24 120.273V114.86C179.24 114.86 205.24 119.753 211.487 113.087C215.16 109.18 209.613 100.227 210.253 92.8468Z" fill="#1E90FF"/>
<path d="M202.793 122.6L222.493 127.333C222.493 127.333 223.447 135.833 216.593 136.5C209.74 137.167 188.74 134.833 196.907 160.667H180.667C180.667 160.667 170.793 132.907 194.927 127.333C197.853 126.667 202.76 126.107 202.807 123.1L202.793 122.6Z" fill="#24285B"/>
<path d="M114.667 72.3398C110.701 74.7376 107.383 78.0709 105.004 82.0481C102.625 86.0252 101.257 90.5249 101.02 95.1532C100.18 110.287 101.553 126.52 120.733 124.7C139.913 122.88 114.667 72.3398 114.667 72.3398Z" fill="#1E90FF"/>
<path opacity="0.08" d="M114.667 72.3398C110.701 74.7376 107.383 78.0709 105.004 82.0481C102.625 86.0252 101.257 90.5249 101.02 95.1532C100.18 110.287 101.553 126.52 120.733 124.7C139.913 122.88 114.667 72.3398 114.667 72.3398Z" fill="black"/>
<path d="M126.3 56.5134C126.062 58.2832 126.062 60.0769 126.3 61.8467C126.344 62.0535 126.427 62.2496 126.547 62.4238C126.666 62.598 126.819 62.747 126.996 62.8622C127.173 62.9774 127.371 63.0565 127.579 63.095C127.787 63.1335 128 63.1307 128.207 63.0867C128.881 62.9857 129.512 62.6924 130.024 62.2419C130.536 61.7914 130.907 61.2028 131.093 60.5467L132.173 57.7934C132.336 57.2225 132.318 56.6151 132.121 56.055C131.924 55.4949 131.558 55.0098 131.073 54.6667C129.333 53.2801 126.46 54.5734 126.3 56.5134Z" fill="#F4A28C"/>
<path d="M132.007 58.2734L133.193 68.6801L127.413 68.9268L128.867 61.2534L132.007 58.2734Z" fill="#F4A28C"/>
<path d="M126.14 58.5269L125.2 59.7135C125.146 59.7814 125.11 59.8619 125.095 59.9474C125.081 60.0329 125.088 60.1207 125.117 60.2026C125.146 60.2845 125.195 60.3578 125.259 60.4157C125.324 60.4736 125.402 60.5141 125.487 60.5335L126.693 60.8135L126.14 58.5269Z" fill="#F4A28C"/>
<path opacity="0.31" d="M128.48 62.92C129.206 62.7723 129.872 62.4127 130.393 61.8867C130.393 61.8867 130.227 63.8 128.047 65.5934L128.48 62.92Z" fill="#CE8172"/>
<path d="M120.993 69.8401C120.993 69.8401 145.787 64.2868 154.667 69.2668C163.547 74.2468 146.12 121.167 146.12 121.167L118.74 120.3C118.74 120.3 94.7866 74.6068 120.993 69.8401Z" fill="#1E90FF"/>
<path d="M126.533 165.227C126.533 165.227 125.253 167.527 123.02 167.353C120.787 167.18 119.86 169.24 121.747 170.127C123.633 171.013 129.167 169.293 129.167 169.293L129.64 165.227H126.533Z" fill="#1E90FF"/>
<path d="M146.587 164.72C146.587 164.72 147.493 167.187 149.733 167.353C151.973 167.52 152.567 169.707 150.567 170.293C148.567 170.88 143.333 168.333 143.333 168.333L143.487 164.247L146.587 164.72Z" fill="#1E90FF"/>
<path opacity="0.08" d="M142.52 73.6201C142.52 73.6201 134.667 78.6668 138.667 90.2801C142.667 101.893 143.3 110.187 133.893 107.28C124.487 104.373 125.173 91.3935 125.173 91.3935L115.58 92.8801L114.667 111.293L118.74 120.3L142.52 118.807L152.213 116.333L155.827 104.187L149.247 83.6068L142.52 73.6201Z" fill="black"/>
<path d="M118.74 120.3L125.747 165.227H130.32C130.32 165.227 126.08 131.44 133.487 127.36C140.893 123.28 142.347 165.227 142.347 165.227L147.207 164.84L147.147 118.52L118.74 120.3Z" fill="#24285B"/>
<path d="M147.333 67.7933C147.333 67.7933 162.76 65.1933 162.76 89.4667C162.76 113.74 159.053 135.34 123.427 113.693L126.133 109.56C126.133 109.56 145.333 118 149.433 110.587C153.533 103.173 133.413 71.9067 147.333 67.7933Z" fill="#1E90FF"/>
<path opacity="0.46" d="M147.333 67.7933C147.333 67.7933 162.76 65.1933 162.76 89.4667C162.76 113.74 159.053 135.34 123.427 113.693L126.133 109.56C126.133 109.56 145.333 118 149.433 110.587C153.533 103.173 133.413 71.9067 147.333 67.7933Z" fill="white"/>
<path d="M119.158 89.3808L106.098 92.666L111.014 112.21L124.074 108.925L119.158 89.3808Z" fill="#2ED573"/>
<path d="M126.18 109.56C126.18 109.56 119.753 104.467 118.74 108.36C117.727 112.253 124.4 112.273 124.4 112.273L126.18 109.56Z" fill="#F4A28C"/>
<path d="M157.613 46.8399C166.343 46.8399 173.42 40.9509 173.42 33.6865C173.42 26.4222 166.343 20.5332 157.613 20.5332C148.884 20.5332 141.807 26.4222 141.807 33.6865C141.807 40.9509 148.884 46.8399 157.613 46.8399Z" fill="#24285B"/>
<path d="M146.587 39.6934L140.96 49.2667L150.227 42.3934L146.587 39.6934Z" fill="#24285B"/>
<path d="M151.387 35.6401C152.465 35.6401 153.34 34.7655 153.34 33.6867C153.34 32.6079 152.465 31.7334 151.387 31.7334C150.308 31.7334 149.433 32.6079 149.433 33.6867C149.433 34.7655 150.308 35.6401 151.387 35.6401Z" fill="white"/>
<path d="M157.647 35.6401C158.725 35.6401 159.6 34.7655 159.6 33.6867C159.6 32.6079 158.725 31.7334 157.647 31.7334C156.568 31.7334 155.693 32.6079 155.693 33.6867C155.693 34.7655 156.568 35.6401 157.647 35.6401Z" fill="white"/>
<path d="M163.84 35.6401C164.919 35.6401 165.793 34.7655 165.793 33.6867C165.793 32.6079 164.919 31.7334 163.84 31.7334C162.761 31.7334 161.887 32.6079 161.887 33.6867C161.887 34.7655 162.761 35.6401 163.84 35.6401Z" fill="white"/>
<path d="M126.92 56.6666C127.156 56.7453 127.396 56.8099 127.64 56.8599C127.987 56.9347 128.324 57.0464 128.647 57.1932L128.907 57.3066C129.091 57.3865 129.247 57.519 129.356 57.6874C129.465 57.8558 129.522 58.0526 129.52 58.2532C129.52 59.2732 129.84 61.1466 132.307 61.3599C132.307 61.3599 134.813 57.5999 132.807 54.6932C132.217 53.8999 131.457 53.2487 130.582 52.7873C129.708 52.3259 128.741 52.0659 127.753 52.0266C125.067 51.9332 124.367 55.8066 126.92 56.6666Z" fill="#24285B"/>
<path d="M54.4933 162.58H57.2533V138.773H54.4933V162.58Z" fill="#C9C9C9"/>
<path d="M46.7267 81.0733C46.7267 81.0733 44.1867 67.46 32 73.62C22.9933 78.16 31.7933 114.367 37.04 133.093C37.9415 136.297 39.8659 139.119 42.5198 141.127C45.1737 143.136 48.4116 144.222 51.74 144.22H68.9733C74.2467 144.22 75.1867 136.707 70.08 135.407L69.78 135.333C66.8067 134.667 63.32 134.107 60.1467 133.687C57.4644 133.336 54.9844 132.074 53.1234 130.111C51.2623 128.148 50.1335 125.604 49.9267 122.907L46.7267 81.0733Z" fill="#E6E6E6"/>
<path d="M57.2533 162.587L67.1333 170.38H45.1333L54.4867 162.587H57.2533Z" fill="#C9C9C9"/>
<path d="M55.6467 63.2534C56.0002 64.9716 56.1235 66.7293 56.0133 68.4801C55.9523 68.8934 55.7301 69.2657 55.3952 69.5156C55.0604 69.7654 54.6402 69.8725 54.2266 69.8134C53.5555 69.7613 52.9134 69.5174 52.3768 69.1109C51.8402 68.7043 51.4317 68.1521 51.2 67.5201L49.94 64.9001C49.7421 64.3475 49.7211 63.7469 49.88 63.1819C50.0389 62.6168 50.3697 62.1152 50.8267 61.7467C52.44 60.3001 55.3333 61.3334 55.6467 63.2534Z" fill="#F4A28C"/>
<path d="M50.1666 65.3999L49.76 75.7199L55.46 75.5399L53.4733 68.1066L50.1666 65.3999Z" fill="#F4A28C"/>
<path d="M54.8867 63.48C53.9321 63.6296 52.9637 63.6699 52 63.6C52.3298 63.9914 52.5378 64.4708 52.5982 64.9791C52.6587 65.4873 52.5689 66.0022 52.34 66.46C52.1267 66.9087 51.7638 67.2691 51.3138 67.4796C50.8637 67.69 50.3544 67.7373 49.8733 67.6133L49.4533 63.6133C49.3711 63.0398 49.4461 62.4547 49.6704 61.9205C49.8946 61.3863 50.2597 60.923 50.7267 60.58C51.1324 60.2726 51.5578 59.9921 52 59.74C53.1 59.1333 54.8933 59.74 55.8333 58.8C55.9295 58.7105 56.0471 58.6473 56.1748 58.6163C56.3025 58.5854 56.436 58.5877 56.5624 58.6232C56.6889 58.6587 56.8042 58.7261 56.8972 58.8189C56.9901 58.9117 57.0577 59.0269 57.0933 59.1533C57.42 60.36 57.4267 62.3067 55.8533 63.1533C55.5516 63.3153 55.2248 63.4257 54.8867 63.48Z" fill="#24285B"/>
<path d="M52.6667 66.3267C52.6667 66.3267 52.5 65.1267 51.6067 65.3267C50.7133 65.5267 50.94 67.2667 52.1933 67.28L52.6667 66.3267Z" fill="#F4A28C"/>
<path d="M55.9533 65.2202L56.9667 66.3202C57.0245 66.3829 57.0656 66.4592 57.0861 66.5421C57.1065 66.6249 57.1058 66.7115 57.0838 66.794C57.0619 66.8764 57.0195 66.952 56.9605 67.0137C56.9016 67.0754 56.828 67.1212 56.7467 67.1469L55.58 67.5135L55.9533 65.2202Z" fill="#F4A28C"/>
<path opacity="0.31" d="M54 69.7132C53.2612 69.6278 52.5648 69.3237 52 68.8398C52 68.8398 52.3067 70.7065 54.5867 72.3132L54 69.7132Z" fill="#CE8172"/>
<path d="M49.76 75.72L55.46 75.54C55.46 75.54 67.9733 78.2067 71.04 94.0934C74.1067 109.98 65.3333 124.187 65.3333 124.187L47.3333 124.347C47.3333 124.347 23.4667 78.4067 49.76 75.72Z" fill="#1E90FF"/>
<path d="M47.3333 124.347C47.3333 124.347 47.5733 134.667 54.56 135.553C61.5466 136.44 77.5466 131.067 79.5466 139.78C81.5466 148.493 77.5466 162.347 77.5466 162.347L82.42 163.68C82.42 163.68 93.3666 142.733 86.92 132.8C80.4733 122.867 65.3533 124.133 65.3533 124.133L47.3333 124.347Z" fill="#24285B"/>
<path opacity="0.08" d="M45.3333 87.1733C45.3333 87.1733 40.76 99.9533 48.6667 106.893C56.5733 113.833 61.1133 114.667 57.1 124.347L65.3333 124.187C65.3333 124.187 69.66 116.32 70.5334 110.747C71.4067 105.173 45.3333 87.1733 45.3333 87.1733Z" fill="black"/>
<path d="M58.76 80.8865C54.32 77.4531 47.64 79.2131 45.78 84.5131C45.2084 86.1625 45.1921 87.9536 45.7333 89.6131C47.8467 96.3931 51.18 105.613 63.6267 108.946C76.0733 112.28 86.5133 114.773 87.5133 110.413C88.5133 106.053 85.7333 100.493 75.5133 97.0798C68.2467 94.6065 64.4067 85.2465 58.76 80.8865Z" fill="#1E90FF"/>
<path opacity="0.46" d="M58.76 80.8865C54.32 77.4531 47.64 79.2131 45.78 84.5131C45.2084 86.1625 45.1921 87.9536 45.7333 89.6131C47.8467 96.3931 51.18 105.613 63.6267 108.946C76.0733 112.28 86.5133 114.773 87.5133 110.413C88.5133 106.053 85.7333 100.493 75.5133 97.0798C68.2467 94.6065 64.4067 85.2465 58.76 80.8865Z" fill="white"/>
<path d="M73.42 96.1201C73.42 96.1201 76.8666 93.5735 79.5333 96.1201C82.2 98.6668 76.92 102.327 73.42 96.1201Z" fill="#F4A28C"/>
<path opacity="0.08" d="M212.553 87.7466C212.553 87.7466 202.947 91.2199 206.24 102.887C209.533 114.553 202.787 116.333 202.787 116.333L211.487 124.84L222.493 127.333L225.94 115.727L212.553 87.7466Z" fill="black"/>
<path d="M90.1867 125.827H85.7067V170.667H90.1867V125.827Z" fill="#A5A5A5"/>
<path d="M182.887 125.827H178.407V170.667H182.887V125.827Z" fill="#A5A5A5"/>
<path d="M187.027 118.8H81.1866V130.606H187.027V118.8Z" fill="#E6E6E6"/>
<path d="M129.573 59.9999C129.488 59.89 129.432 59.7596 129.412 59.6216C129.392 59.4836 129.409 59.3428 129.46 59.2132C129.64 58.7799 129.993 58.2132 130.573 58.2999C131.153 58.3865 131.28 59.3399 130.873 59.9732C130.799 60.0764 130.702 60.1605 130.589 60.2186C130.476 60.2766 130.35 60.3068 130.223 60.3068C130.096 60.3068 129.971 60.2766 129.858 60.2186C129.745 60.1605 129.647 60.0764 129.573 59.9732V59.9999Z" fill="#F4A28C"/>
<path d="M210.253 92.8468C211.047 83.7268 223.953 82.5934 226.447 91.4001C227.78 96.0668 228.447 102.8 226.913 112.273C223.24 135.113 179.24 120.273 179.24 120.273V114.86C179.24 114.86 205.24 119.753 211.487 113.087C215.16 109.18 209.613 100.227 210.253 92.8468Z" fill="#F4A28C"/>
<path d="M155.853 118.8L150.153 97.5533L152.92 96.96L158.293 115.553L173.847 116.887V118.8H155.853Z" fill="#2ED573"/>
<path d="M179.24 114.887C179.24 114.887 173.533 112.113 171.74 114.333C169.947 116.553 172.02 119.887 179.24 120.3V114.887Z" fill="#F4A28C"/>
<path d="M181.337 114.072L178.77 113.816L178.05 121.033L180.617 121.29L181.337 114.072Z" fill="#1E90FF"/>
<path d="M214.62 162.587L204.74 170.38H226.74L217.387 162.587H214.62Z" fill="#C9C9C9"/>
<path d="M211.487 81.4733C211.331 80.754 211.43 80.003 211.767 79.3487C212.104 78.6944 212.657 78.1776 213.333 77.8866C215.793 76.6666 221.627 75.2199 222.493 79.9799C222.493 79.9999 217.073 83.5066 211.487 81.4733Z" fill="#1E90FF"/>
<path opacity="0.46" d="M211.487 81.4733C211.331 80.754 211.43 80.003 211.767 79.3487C212.104 78.6944 212.657 78.1776 213.333 77.8866C215.793 76.6666 221.627 75.2199 222.493 79.9799C222.493 79.9999 217.073 83.5066 211.487 81.4733Z" fill="white"/>
</svg>
