<?xml version="1.0" encoding="iso-8859-1"?>
<!-- Generator: Adobe Illustrator 18.0.0, SVG Export Plug-In . SVG Version: 6.00 Build 0)  -->
<!DOCTYPE svg PUBLIC "-//W3C//DTD SVG 1.1//EN" "http://www.w3.org/Graphics/SVG/1.1/DTD/svg11.dtd">
<svg version="1.1" id="Capa_1" xmlns="http://www.w3.org/2000/svg" xmlns:xlink="http://www.w3.org/1999/xlink" x="0px" y="0px"
	 viewBox="0 0 174 174" style="enable-background:new 0 0 174 174;" xml:space="preserve">
<g>
	<defs>
		<ellipse id="SVGID_1_" cx="87" cy="87" rx="86.957" ry="87"/>
	</defs>
	<clipPath id="SVGID_2_">
		<use xlink:href="#SVGID_1_"  style="overflow:visible;"/>
	</clipPath>
	<ellipse style="clip-path:url(#SVGID_2_);fill:#6994A0;" cx="87" cy="87" rx="86.957" ry="87"/>
	<g style="clip-path:url(#SVGID_2_);">
		
			<path style="fill-rule:evenodd;clip-rule:evenodd;fill:#E75E51;stroke:#E75E51;stroke-width:1.1223;stroke-linecap:round;stroke-linejoin:round;stroke-miterlimit:10;" d="
			M99.853,125.832c-0.265,0.414-26.249,0.828-26.537,1.238c-8.161,11.643-25.796,16.744-39.817,19.879
			c-13.953,3.121-14.493,20.846-14.514,32.65h136.029c-0.021-11.805-0.28-29.467-14.517-32.65
			C126.263,143.766,107.597,138.004,99.853,125.832z"/>
		<path style="fill-rule:evenodd;clip-rule:evenodd;fill:#FFC785;" d="M73.37,100.967v22.355v11.033
			c-4.732,8.926,8.563,37.258,13.713,37.195c4.777-0.059,17.946-26.025,13.546-37.195v-11.033v-22.355
			C100.629,82.938,73.37,82.938,73.37,100.967z"/>
		<path style="fill-rule:evenodd;clip-rule:evenodd;fill:#FFC785;" d="M123.087,85.756c-2.736-1.174-6.602,1.707-8.63,6.431
			c-2.031,4.728-1.462,9.51,1.274,10.685c2.735,1.172,6.598-1.707,8.63-6.435C126.391,91.713,125.823,86.932,123.087,85.756z"/>
		<path style="fill-rule:evenodd;clip-rule:evenodd;fill:#FFC785;" d="M50.884,85.756c2.736-1.174,6.599,1.705,8.631,6.431
			c2.03,4.728,1.46,9.51-1.275,10.685c-2.734,1.172-6.598-1.705-8.629-6.435C47.579,91.713,48.149,86.932,50.884,85.756z"/>
		<path style="fill-rule:evenodd;clip-rule:evenodd;fill:#FFC785;" d="M86.999,124.063c-8.872,0-27.617-13.95-33.412-33.93
			c-5.854-20.177,5.166-49.115,33.412-49.115c28.244,0,39.268,28.938,33.414,49.115C114.618,110.112,95.873,124.063,86.999,124.063z
			"/>
		<g>
			<g>
				<g>
					<path style="fill:#FFFFFF;" d="M67.399,84.149c0,0,1.489,2.516,6.07,2.516c4.58,0,5.385-2.151,5.43-2.909
						c0,0-1.76-2.988-5.368-2.988C69.923,80.768,67.399,84.149,67.399,84.149z"/>
					<g>
						<g>
							
								<radialGradient id="SVGID_3_" cx="88.4473" cy="67.5384" r="2.4406" gradientTransform="matrix(1.0716 0 0 1.0717 -21.5058 11.3354)" gradientUnits="userSpaceOnUse">
								<stop  offset="0" style="stop-color:#5E622E"/>
								<stop  offset="0.0185" style="stop-color:#636831"/>
								<stop  offset="0.1059" style="stop-color:#747D3C"/>
								<stop  offset="0.209" style="stop-color:#828E44"/>
								<stop  offset="0.3362" style="stop-color:#8C9A4A"/>
								<stop  offset="0.514" style="stop-color:#91A14D"/>
								<stop  offset="1" style="stop-color:#93A34E"/>
							</radialGradient>
							<circle style="fill:url(#SVGID_3_);" cx="73.273" cy="83.716" r="2.616"/>
							<path style="fill:#5E622E;" d="M73.273,81.364c1.298,0,2.353,1.055,2.353,2.353s-1.056,2.353-2.353,2.353
								c-1.297,0-2.351-1.055-2.351-2.353S71.977,81.364,73.273,81.364 M73.273,80.838c-1.589,0-2.877,1.289-2.877,2.878
								c0,1.59,1.288,2.878,2.877,2.878c1.59,0,2.879-1.289,2.879-2.878C76.152,82.127,74.863,80.838,73.273,80.838L73.273,80.838z"
								/>
						</g>
						<circle cx="73.274" cy="83.716" r="1.202"/>
					</g>
				</g>
				<g>
					<path style="fill:#FFFFFF;" d="M104.696,84.149c0,0-1.489,2.516-6.071,2.516c-4.579,0-5.384-2.151-5.429-2.909
						c0,0,1.76-2.987,5.368-2.987S104.696,84.149,104.696,84.149z"/>
					<g>
						<g>
							
								<radialGradient id="SVGID_4_" cx="458.5683" cy="83.7165" r="2.6151" gradientTransform="matrix(-1 0 0 1 557.3896 0)" gradientUnits="userSpaceOnUse">
								<stop  offset="0" style="stop-color:#5E622E"/>
								<stop  offset="0.0185" style="stop-color:#636831"/>
								<stop  offset="0.1059" style="stop-color:#747D3C"/>
								<stop  offset="0.209" style="stop-color:#828E44"/>
								<stop  offset="0.3362" style="stop-color:#8C9A4A"/>
								<stop  offset="0.514" style="stop-color:#91A14D"/>
								<stop  offset="1" style="stop-color:#93A34E"/>
							</radialGradient>
							<path style="fill:url(#SVGID_4_);" d="M98.822,86.332c-1.442,0-2.616-1.173-2.616-2.615s1.174-2.615,2.616-2.615
								c1.441,0,2.614,1.173,2.614,2.615S100.264,86.332,98.822,86.332z"/>
							<path style="fill:#5E622E;" d="M98.822,81.365c1.296,0,2.351,1.055,2.351,2.352c0,1.297-1.055,2.352-2.351,2.352
								c-1.298,0-2.353-1.055-2.353-2.352C96.469,82.42,97.525,81.365,98.822,81.365 M98.822,80.839
								c-1.591,0-2.879,1.288-2.879,2.877c0,1.589,1.288,2.878,2.879,2.878c1.588,0,2.877-1.288,2.877-2.878
								C101.699,82.127,100.411,80.839,98.822,80.839L98.822,80.839z"/>
						</g>
						<circle cx="98.822" cy="83.716" r="1.202"/>
					</g>
				</g>
				<g>
					<g>
						<path style="fill:#E48F67;" d="M81.003,96.21c-0.716,0.435-0.869,1.168-0.129,1.701c1.237,0.892,2.997,0.974,4.461,0.973
							c1.536-0.001,3.36-0.138,4.694-0.978c0.683-0.43,1.163-1.815,0.206-2.236c-0.181-0.08-0.463,0.008-0.441,0.253
							c0.029,0.325,0.334,0.63,0.275,0.929c-0.079,0.396-0.675,0.617-0.995,0.74c-0.996,0.383-2.119,0.446-3.173,0.475
							c-0.935,0.025-5.768,0.093-4.764-1.724C81.183,96.259,81.089,96.157,81.003,96.21L81.003,96.21z"/>
					</g>
				</g>
				<g>
					<g>
						<path style="fill:#5F5659;" d="M62.253,75.568c5.517-1.25,11.304-1.717,16.419,1.204c0.34,0.194,0.639-0.32,0.306-0.523
							c-4.5-2.739-12.105-3.576-16.762-0.77C62.167,75.508,62.199,75.58,62.253,75.568L62.253,75.568z"/>
					</g>
				</g>
				<g>
					<g>
						<path style="fill:#5F5659;" d="M109.669,75.479c-4.657-2.805-12.261-1.969-16.761,0.77c-0.333,0.203-0.034,0.717,0.306,0.523
							c5.115-2.921,10.902-2.454,16.418-1.204C109.685,75.58,109.717,75.508,109.669,75.479L109.669,75.479z"/>
					</g>
				</g>
			</g>
			<g>
				<g>
					<path style="fill:#F0463A;" d="M98.606,108.365l-0.094-0.01c0.416-0.11,0.654-0.191,0.654-0.191
						c-0.346,0.084-0.715,0.128-1.098,0.143l-2.621-0.281c-3.7-0.827-7.573-3.149-7.573-3.149l-1.359,1.728l-1.358-1.728
						c0,0-7.147,4.289-11.294,3.287c5.361,5.005,12.294,4.718,12.294,4.718c6.506,0.144,13.01-4.718,13.01-4.718
						C98.979,108.236,98.792,108.298,98.606,108.365z M75.281,108.54c-0.035,0.003-0.066,0.006-0.099,0.01
						c-0.626-0.169-1.039-0.296-1.216-0.352C74.158,108.258,74.623,108.396,75.281,108.54z M73.902,108.177L73.902,108.177
						L73.902,108.177z"/>
				</g>
				<g>
					<path style="fill:#FFFFFF;" d="M85.54,110.879c-2.483-0.065-8.405-1.416-8.461-1.785c-0.031-0.205,2.51-0.402,4.921-0.78
						c1.939-0.304,3.758-0.826,4.37-0.793c0.618,0.034,2.257,0.522,3.941,0.844c2.066,0.396,4.199,0.635,4.565,0.658
						C95.163,109.04,91.211,111.029,85.54,110.879z"/>
				</g>
			</g>
		</g>
		<path style="fill-rule:evenodd;clip-rule:evenodd;fill:#5F5659;" d="M52.637,89.746c-6.907-37.86,15.476-49.872,34.362-49.872
			c21.273,0,43.263,16.315,33.086,51.12c-13.139-23.711-38.817-3.009-56.735-26.761C60.299,76.3,58.239,81.981,52.637,89.746z"/>
		<circle style="fill-rule:evenodd;clip-rule:evenodd;fill:#5F5659;" cx="72.65" cy="40.018" r="16.571"/>
		<g>
			<path style="fill-rule:evenodd;clip-rule:evenodd;fill:#5F5659;" d="M122.012,79.949c0,0-2.333,22.668-7.333,31.334l-0.334-44
				L122.012,79.949z"/>
			<g>
				<path style="fill:#5F5659;" d="M115.376,104.229c-1.032,3.688-1.428,8.2,0.878,11.15c2.281,2.92,7.319,3.528,10.182,1.084
					c2.332-1.991,2.932-5.352,2.215-8.228c-0.649-2.604-3.249-4.433-5.395-2.155c-0.615,0.652-0.017,1.843,0.904,1.554
					c1.291-0.406,1.663,0.968,1.849,1.971c0.302,1.635-0.273,3.74-1.664,4.725c-2.138,1.515-5.473,0.317-6.42-1.99
					c-0.987-2.404-0.544-6.631-0.078-9.298C117.996,102.187,115.813,103.195,115.376,104.229L115.376,104.229z"/>
			</g>
		</g>
		<g>
			<path style="fill-rule:evenodd;clip-rule:evenodd;fill:#5F5659;" d="M51.622,79.8c0,0,1.5,22.687,7.033,31.396l0.334-44
				L51.622,79.8z"/>
			<g>
				<path style="fill:#5F5659;" d="M57.957,104.142c1.032,3.689,1.428,8.2-0.878,11.15c-2.281,2.92-7.319,3.528-10.182,1.084
					c-2.332-1.991-2.932-5.352-2.215-8.228c0.649-2.604,3.25-4.433,5.395-2.155c0.615,0.652,0.017,1.843-0.904,1.554
					c-1.291-0.406-1.663,0.968-1.849,1.971c-0.302,1.635,0.273,3.74,1.664,4.725c2.138,1.515,5.473,0.317,6.42-1.99
					c0.987-2.404,0.544-6.631,0.078-9.298C55.337,102.1,57.52,103.108,57.957,104.142L57.957,104.142z"/>
			</g>
		</g>
	</g>
</g>
<g>
</g>
<g>
</g>
<g>
</g>
<g>
</g>
<g>
</g>
<g>
</g>
<g>
</g>
<g>
</g>
<g>
</g>
<g>
</g>
<g>
</g>
<g>
</g>
<g>
</g>
<g>
</g>
<g>
</g>
</svg>
