<?xml version="1.0" encoding="iso-8859-1"?>
<!-- Generator: Adobe Illustrator 18.0.0, SVG Export Plug-In . SVG Version: 6.00 Build 0)  -->
<!DOCTYPE svg PUBLIC "-//W3C//DTD SVG 1.1//EN" "http://www.w3.org/Graphics/SVG/1.1/DTD/svg11.dtd">
<svg version="1.1" id="Capa_1" xmlns="http://www.w3.org/2000/svg" xmlns:xlink="http://www.w3.org/1999/xlink" x="0px" y="0px"
	 viewBox="0 0 174 174" style="enable-background:new 0 0 174 174;" xml:space="preserve">
<g>
	<defs>
		<ellipse id="SVGID_1_" cx="87" cy="87" rx="86.956" ry="87"/>
	</defs>
	<clipPath id="SVGID_2_">
		<use xlink:href="#SVGID_1_"  style="overflow:visible;"/>
	</clipPath>
	<ellipse style="clip-path:url(#SVGID_2_);fill:#F4584D;" cx="87" cy="87" rx="86.956" ry="87"/>
	<g style="clip-path:url(#SVGID_2_);">
		<path style="fill-rule:evenodd;clip-rule:evenodd;fill:#9368A0;" d="M98.93,122.209c-0.263,0.414-26.086,0.824-26.372,1.232
			c-8.109,11.568-25.633,16.639-39.567,19.754c-13.865,3.1-14.401,20.713-14.423,32.443h135.177
			c-0.02-11.73-0.278-29.279-14.425-32.443C125.172,140.031,106.624,134.307,98.93,122.209z"/>
		<path style="fill-rule:evenodd;clip-rule:evenodd;fill:#DEA146;" d="M132.778,117.689c-0.481-19.082-5.21-81.174-46.942-82.244
			c-38.701,1.248-45.709,63.318-44.377,83.492C58.171,121.039,116.315,120.943,132.778,117.689z"/>
		<path style="fill-rule:evenodd;clip-rule:evenodd;fill:#FFC785;" d="M72.613,97.5v22.217v10.965
			c6.786,13.883,18.969,14.244,27.087,0v-10.967V97.5C99.7,79.586,72.613,79.586,72.613,97.5z"/>
		
			<ellipse transform="matrix(0.3947 -0.9188 0.9188 0.3947 -11.0081 165.0687)" style="fill-rule:evenodd;clip-rule:evenodd;fill:#FFC785;" cx="119.771" cy="90.889" rx="9.665" ry="5.59"/>
		
			<ellipse transform="matrix(-0.3947 -0.9188 0.9188 -0.3947 -8.5291 176.1583)" style="fill-rule:evenodd;clip-rule:evenodd;fill:#FFC785;" cx="53.764" cy="90.889" rx="9.665" ry="5.591"/>
		<path style="fill-rule:evenodd;clip-rule:evenodd;fill:#FFC785;" d="M86.157,120.451c-8.818,0-27.446-13.861-33.205-33.717
			c-5.814-20.049,5.136-48.807,33.205-48.807c28.067,0,39.021,28.758,33.204,48.807C113.6,106.59,94.974,120.451,86.157,120.451z"/>
		<g>
			<g>
				<g>
					<path style="fill:#FFFFFF;" d="M67.566,82.65c0,0,1.489,2.516,6.07,2.516c4.58,0,5.384-2.151,5.43-2.91
						c0,0-1.76-2.987-5.368-2.987S67.566,82.65,67.566,82.65z"/>
					<g>
						<g>
							
								<radialGradient id="SVGID_3_" cx="73.0501" cy="49.8016" r="2.4406" gradientTransform="matrix(1.0716 0 0 1.0717 -4.8395 28.845)" gradientUnits="userSpaceOnUse">
								<stop  offset="0" style="stop-color:#2E624A"/>
								<stop  offset="0.0071" style="stop-color:#2F634D"/>
								<stop  offset="0.0795" style="stop-color:#396768"/>
								<stop  offset="0.1614" style="stop-color:#416B7D"/>
								<stop  offset="0.2581" style="stop-color:#476E8E"/>
								<stop  offset="0.3774" style="stop-color:#4B709A"/>
								<stop  offset="0.5441" style="stop-color:#4D71A1"/>
								<stop  offset="1" style="stop-color:#4E71A3"/>
							</radialGradient>
							<circle style="fill:url(#SVGID_3_);" cx="73.44" cy="82.217" r="2.616"/>
							<path style="fill:#025784;" d="M73.44,79.865c1.298,0,2.353,1.055,2.353,2.352c0,1.298-1.056,2.353-2.353,2.353
								c-1.296,0-2.351-1.056-2.351-2.353C71.089,80.92,72.143,79.865,73.44,79.865 M73.44,79.339c-1.589,0-2.877,1.289-2.877,2.878
								c0,1.591,1.288,2.879,2.877,2.879c1.59,0,2.879-1.288,2.879-2.879C76.319,80.628,75.03,79.339,73.44,79.339L73.44,79.339z"/>
						</g>
						<circle cx="73.44" cy="82.217" r="1.202"/>
					</g>
				</g>
				<g>
					<path style="fill:#FFFFFF;" d="M104.863,82.65c0,0-1.489,2.516-6.07,2.516c-4.58,0-5.384-2.151-5.43-2.91
						c0,0,1.76-2.987,5.368-2.987C102.339,79.269,104.863,82.65,104.863,82.65z"/>
					<g>
						<g>
							
								<radialGradient id="SVGID_4_" cx="-7.1352" cy="82.2178" r="2.6152" gradientTransform="matrix(-1 0 0 1 91.8526 0)" gradientUnits="userSpaceOnUse">
								<stop  offset="0" style="stop-color:#2E624A"/>
								<stop  offset="0.0071" style="stop-color:#2F634D"/>
								<stop  offset="0.0795" style="stop-color:#396768"/>
								<stop  offset="0.1614" style="stop-color:#416B7D"/>
								<stop  offset="0.2581" style="stop-color:#476E8E"/>
								<stop  offset="0.3774" style="stop-color:#4B709A"/>
								<stop  offset="0.5441" style="stop-color:#4D71A1"/>
								<stop  offset="1" style="stop-color:#4E71A3"/>
							</radialGradient>
							<path style="fill:url(#SVGID_4_);" d="M98.989,84.833c-1.442,0-2.616-1.174-2.616-2.616c0-1.441,1.174-2.614,2.616-2.614
								c1.441,0,2.614,1.173,2.614,2.614C101.603,83.659,100.43,84.833,98.989,84.833z"/>
							<path style="fill:#025784;" d="M98.989,79.866c1.297,0,2.351,1.055,2.351,2.351c0,1.298-1.055,2.353-2.351,2.353
								c-1.298,0-2.353-1.056-2.353-2.353C96.636,80.92,97.691,79.866,98.989,79.866 M98.989,79.34
								c-1.591,0-2.879,1.288-2.879,2.877c0,1.59,1.288,2.879,2.879,2.879c1.588,0,2.877-1.289,2.877-2.879
								C101.866,80.628,100.577,79.34,98.989,79.34L98.989,79.34z"/>
						</g>
						<circle cx="98.989" cy="82.217" r="1.202"/>
					</g>
				</g>
				<g>
					<g>
						<path style="fill:#E48F67;" d="M81.17,94.711c-0.716,0.435-0.869,1.168-0.129,1.701c1.237,0.892,2.997,0.974,4.461,0.973
							c1.536-0.001,3.36-0.138,4.694-0.978c0.683-0.43,1.163-1.815,0.206-2.236c-0.181-0.08-0.463,0.008-0.441,0.253
							c0.029,0.325,0.334,0.63,0.275,0.929c-0.079,0.396-0.675,0.617-0.995,0.74c-0.996,0.383-2.119,0.446-3.173,0.475
							c-0.935,0.025-5.768,0.093-4.765-1.724C81.35,94.76,81.256,94.659,81.17,94.711L81.17,94.711z"/>
					</g>
				</g>
				<g>
					<g>
						<path style="fill:#5F5659;" d="M62.419,74.069c5.517-1.25,11.304-1.716,16.419,1.205c0.34,0.194,0.639-0.32,0.306-0.523
							c-4.5-2.739-12.105-3.576-16.762-0.771C62.333,74.008,62.366,74.081,62.419,74.069L62.419,74.069z"/>
					</g>
				</g>
				<g>
					<g>
						<path style="fill:#5F5659;" d="M109.836,73.979c-4.657-2.805-12.261-1.968-16.761,0.771c-0.333,0.203-0.034,0.717,0.306,0.523
							c5.115-2.921,10.902-2.455,16.418-1.205C109.852,74.081,109.884,74.008,109.836,73.979L109.836,73.979z"/>
					</g>
				</g>
			</g>
			<g>
				<g>
					<path style="fill:#F0463A;" d="M95.251,107.016l-0.066-0.007c0.295-0.077,0.463-0.135,0.463-0.135
						c-0.245,0.059-0.507,0.091-0.778,0.101l-1.858-0.199c-2.621-0.586-5.367-2.232-5.367-2.232l-0.963,1.225l-0.963-1.225
						c0,0-5.065,3.039-8.004,2.33c3.799,3.547,8.714,3.344,8.714,3.344c4.611,0.102,9.221-3.344,9.221-3.344
						C95.516,106.925,95.383,106.969,95.251,107.016z M78.719,107.141c-0.025,0.002-0.046,0.004-0.07,0.007
						c-0.444-0.119-0.737-0.21-0.862-0.249C77.923,106.94,78.252,107.038,78.719,107.141z M77.741,106.883L77.741,106.883
						L77.741,106.883z"/>
				</g>
				<g>
					<path style="fill:#FFFFFF;" d="M85.99,108.798c-1.759-0.046-5.957-1.003-5.997-1.265c-0.021-0.146,1.779-0.285,3.488-0.553
						c1.374-0.215,2.664-0.586,3.098-0.563c0.438,0.024,1.6,0.37,2.794,0.598c1.464,0.281,2.976,0.45,3.235,0.467
						C92.811,107.495,90.01,108.904,85.99,108.798z"/>
				</g>
			</g>
		</g>
		<path style="fill:#9368A0;" d="M115.819,76.445c-4.446-1.292-8.968-2.193-13.626-1.855c-3.934,0.284-7.784,0.97-11.023,3.502
			c-0.145,0.113-0.324,0.248-0.489,0.248c-0.812,0.003-1.627-0.057-2.438-0.055c-2.574,0.007-5.148,0.035-7.724,0.035
			c-0.16,0-0.313-0.206-0.483-0.286c-1.824-0.859-3.579-1.967-5.491-2.523c-6.348-1.843-12.629-0.913-18.837,0.873
			c-1.712,0.493-1.818,1.03-0.586,2.336c1.948,2.067,3.926,4.114,5.776,6.268c3.698,4.311,8.291,6.376,13.977,5.726
			c3.398-0.388,6.433-1.515,7.647-5.128c0.487-1.457,0.64-3.027,0.998-4.81c1.326-0.362,2.952-0.36,4.59,0.076
			c-0.281,3.396,0.915,7.797,5.064,9.102c5.616,1.765,10.857,1.082,15.242-3.03c2.849-2.674,5.4-5.667,8.051-8.548
			C117.374,77.392,117.179,76.839,115.819,76.445z M78.108,88.812c-4.086,1.741-8.143,1.418-11.867-1.042
			c-2.555-1.687-4.49-3.963-5.314-7.01c-0.511-1.901,0.046-3.131,1.936-3.662c1.679-0.47,3.45-0.616,5.179-0.905
			c2.973,0.264,5.891,0.516,8.611,1.672c1.172,0.496,2.348,1.224,3.224,2.133C82.72,82.958,81.888,87.198,78.108,88.812z
			 M110.372,80.728c-1.243,5.131-6.882,9.304-12.465,9.06c-1.579-0.068-3.232-0.377-4.684-0.982
			c-3.872-1.609-4.636-5.98-1.697-8.972c2.098-2.133,4.852-2.696,7.637-3.126c1.399-0.215,2.827-0.253,4.778-0.417
			c1.16,0.197,2.853,0.342,4.459,0.795C110.304,77.625,110.839,78.805,110.372,80.728z"/>
		<path style="fill-rule:evenodd;clip-rule:evenodd;fill:#DEA146;" d="M83.843,53.01c3.919,17.748,22.518,27.674,38.61,24.283
			c-0.471-19.879-12.503-40.932-36.297-40.932c-25.529,0-37.515,24.236-36.212,45.252C66.283,83.803,70.768,74.469,83.843,53.01z"/>
		<path style="fill-rule:evenodd;clip-rule:evenodd;fill:#DEA146;" d="M117.779,90.152l-3.5,1.875c0,0,4-9.375,3.625-16.375
			l3.5-1.125C121.404,74.527,121.279,86.277,117.779,90.152z"/>
	</g>
</g>
<g>
</g>
<g>
</g>
<g>
</g>
<g>
</g>
<g>
</g>
<g>
</g>
<g>
</g>
<g>
</g>
<g>
</g>
<g>
</g>
<g>
</g>
<g>
</g>
<g>
</g>
<g>
</g>
<g>
</g>
</svg>
