<?xml version="1.0" encoding="iso-8859-1"?>
<!-- Generator: Adobe Illustrator 18.0.0, SVG Export Plug-In . SVG Version: 6.00 Build 0)  -->
<!DOCTYPE svg PUBLIC "-//W3C//DTD SVG 1.1//EN" "http://www.w3.org/Graphics/SVG/1.1/DTD/svg11.dtd">
<svg version="1.1" id="Capa_1" xmlns="http://www.w3.org/2000/svg" xmlns:xlink="http://www.w3.org/1999/xlink" x="0px" y="0px"
	 viewBox="0 0 174 174" style="enable-background:new 0 0 174 174;" xml:space="preserve">
<g>
	<defs>
		<ellipse id="SVGID_1_" cx="87" cy="87" rx="86.956" ry="87"/>
	</defs>
	<clipPath id="SVGID_2_">
		<use xlink:href="#SVGID_1_"  style="overflow:visible;"/>
	</clipPath>
	<ellipse style="clip-path:url(#SVGID_2_);fill:#DE58A6;" cx="87" cy="87" rx="86.956" ry="87"/>
	<g style="clip-path:url(#SVGID_2_);">
		
			<ellipse transform="matrix(-0.3126 -0.9499 0.9499 -0.3126 2.8422 147.4488)" style="fill-rule:evenodd;clip-rule:evenodd;fill:#F5BE92;" cx="54.771" cy="72.696" rx="7.934" ry="4.588"/>
		
			<ellipse transform="matrix(0.3129 -0.9498 0.9498 0.3129 13.5277 164.0919)" style="fill-rule:evenodd;clip-rule:evenodd;fill:#F5BE92;" cx="120.173" cy="72.696" rx="7.934" ry="4.588"/>
		
			<path style="fill-rule:evenodd;clip-rule:evenodd;fill:#F9B54F;stroke:#F9B54F;stroke-width:1.0844;stroke-linecap:round;stroke-linejoin:round;stroke-miterlimit:10;" d="
			M74.804,115.417c-28.145,12.338-36.586,18.914-39.924,21.868c-5.142,4.551-8.162,22.106-11.195,36.509h63.672h63.674
			c-3.033-14.402-5.703-31.958-10.846-36.509c-3.336-2.954-11.471-9.362-39.613-21.7L74.804,115.417z"/>
		<path style="fill-rule:evenodd;clip-rule:evenodd;fill:#F5BE92;" d="M73.869,90.823v20.886v12.479
			c7.514,8.885,19.813,9.203,27.328,0v-12.479V90.823C101.197,73.978,73.869,73.978,73.869,90.823z"/>
		<path style="fill-rule:evenodd;clip-rule:evenodd;fill:#F5BE92;" d="M87.533,34.815c-45.863,0-29.369,59.754-26.373,64.166
			c3.303,4.864,18.963,13.421,26.373,13.421c7.41,0,23.07-9.64,26.375-14.505C116.902,93.485,133.396,34.815,87.533,34.815z"/>
		
			<path style="fill-rule:evenodd;clip-rule:evenodd;fill:#FFFFFF;stroke:#FFFFFF;stroke-width:2;stroke-linecap:round;stroke-miterlimit:10;" d="
			M72.572,115.083l-9.691,5.245l14.053,19.48l10.662-10.114L72.572,115.083z"/>
		
			<path style="fill-rule:evenodd;clip-rule:evenodd;fill:#FFFFFF;stroke:#FFFFFF;stroke-width:2;stroke-linecap:round;stroke-miterlimit:10;" d="
			M102.619,115.083l9.691,5.245l-14.053,19.48l-10.662-10.114L102.619,115.083z"/>
		<g>
			<g>
				<path style="fill:#FFFFFF;" d="M68.814,76.845c0,0,1.49,2.515,6.07,2.515c4.58,0,5.384-2.151,5.43-2.909
					c0,0-1.759-2.987-5.368-2.987C71.338,73.464,68.814,76.845,68.814,76.845z"/>
				<g>
					<g>
						<radialGradient id="SVGID_3_" cx="74.6897" cy="76.4121" r="2.6149" gradientUnits="userSpaceOnUse">
							<stop  offset="0" style="stop-color:#624A2E"/>
							<stop  offset="0.036" style="stop-color:#6D5633"/>
							<stop  offset="0.1218" style="stop-color:#816B3D"/>
							<stop  offset="0.2231" style="stop-color:#907C45"/>
							<stop  offset="0.348" style="stop-color:#9B884A"/>
							<stop  offset="0.5227" style="stop-color:#A18F4D"/>
							<stop  offset="1" style="stop-color:#A3914E"/>
						</radialGradient>
						<circle style="fill:url(#SVGID_3_);" cx="74.689" cy="76.412" r="2.615"/>
						<path style="fill:#624A2E;" d="M74.689,74.06c1.297,0,2.352,1.055,2.352,2.352s-1.055,2.352-2.352,2.352
							c-1.297,0-2.352-1.055-2.352-2.352S73.393,74.06,74.689,74.06 M74.689,73.535c-1.59,0-2.877,1.288-2.877,2.877
							c0,1.589,1.288,2.877,2.877,2.877c1.59,0,2.878-1.288,2.878-2.877C77.567,74.823,76.279,73.535,74.689,73.535L74.689,73.535z"
							/>
					</g>
					<circle cx="74.689" cy="76.412" r="1.202"/>
				</g>
			</g>
			<g>
				<path style="fill:#FFFFFF;" d="M106.112,76.845c0,0-1.489,2.516-6.07,2.516c-4.58,0-5.384-2.151-5.43-2.909
					c0,0,1.76-2.988,5.368-2.988C103.588,73.463,106.112,76.845,106.112,76.845z"/>
				<g>
					<g>
						
							<radialGradient id="SVGID_4_" cx="-8.3842" cy="76.4121" r="2.6152" gradientTransform="matrix(-1 0 0 1 91.8526 0)" gradientUnits="userSpaceOnUse">
							<stop  offset="0" style="stop-color:#624A2E"/>
							<stop  offset="0.036" style="stop-color:#6D5633"/>
							<stop  offset="0.1218" style="stop-color:#816B3D"/>
							<stop  offset="0.2231" style="stop-color:#907C45"/>
							<stop  offset="0.348" style="stop-color:#9B884A"/>
							<stop  offset="0.5227" style="stop-color:#A18F4D"/>
							<stop  offset="1" style="stop-color:#A3914E"/>
						</radialGradient>
						<circle style="fill:url(#SVGID_4_);" cx="100.237" cy="76.412" r="2.615"/>
						<path style="fill:#624A2E;" d="M100.237,74.06c1.297,0,2.352,1.055,2.352,2.352s-1.055,2.352-2.352,2.352
							s-2.352-1.055-2.352-2.352S98.94,74.06,100.237,74.06 M100.237,73.534c-1.59,0-2.878,1.289-2.878,2.878
							c0,1.589,1.288,2.878,2.878,2.878c1.59,0,2.878-1.288,2.878-2.878C103.115,74.823,101.827,73.534,100.237,73.534
							L100.237,73.534z"/>
					</g>
					<circle cx="100.237" cy="76.412" r="1.203"/>
				</g>
			</g>
			<g>
				<g>
					<path style="fill:#E48F67;" d="M82.419,88.905c-0.716,0.435-0.869,1.168-0.129,1.701c1.237,0.892,2.997,0.974,4.461,0.973
						c1.536-0.001,3.361-0.138,4.694-0.978c0.683-0.43,1.163-1.815,0.206-2.236c-0.181-0.08-0.463,0.008-0.441,0.253
						c0.029,0.325,0.334,0.63,0.275,0.929c-0.079,0.396-0.675,0.617-0.995,0.74c-0.996,0.383-2.119,0.446-3.173,0.475
						c-0.935,0.025-5.768,0.093-4.764-1.724C82.599,88.955,82.505,88.853,82.419,88.905L82.419,88.905z"/>
				</g>
			</g>
			<g>
				<path style="fill-rule:evenodd;clip-rule:evenodd;fill:#FFFFFF;" d="M96.33,99.881c-4.95,2.971-12.129,3.961-17.326,0.743
					L96.33,99.881z"/>
			</g>
			<g>
				<g>
					<path style="fill:#474748;" d="M63.675,66.287c5.654-0.83,11.083-1.646,16.338,1.308c0.507,0.285,0.946-0.472,0.454-0.776
						c-4.354-2.692-12.443-3.808-16.848-0.664C63.55,66.204,63.594,66.299,63.675,66.287L63.675,66.287z"/>
				</g>
			</g>
			<g>
				<g>
					<path style="fill:#474748;" d="M111.097,66.154c-4.404-3.144-12.493-2.027-16.848,0.664c-0.493,0.304-0.053,1.061,0.454,0.776
						c5.255-2.953,10.684-2.138,16.338-1.308C111.122,66.299,111.166,66.204,111.097,66.154L111.097,66.154z"/>
				</g>
			</g>
		</g>
		<path style="fill:#474748;" d="M118.663,82.837c-0.102-0.147-0.233-0.239-0.374-0.301c0.139-0.74,0.275-1.482,0.401-2.225
			c-0.158-0.006-0.279-0.011-0.389-0.017c0.467-1.986,0.276-4.145,0.431-6.187c0.226-2.988,1.189-6.148,0.844-9.12
			c-0.067-0.581-0.767-0.828-1.113-0.302c-1.322,2.004-1.635,4.71-1.901,7.065c-0.294,2.6-1.023,5.908-0.411,8.581
			c-0.053,0.033-0.097,0.073-0.146,0.11c0.001,0.016,0.005,0.03,0.005,0.046c-0.006,0.706-0.211,1.295-0.578,1.801
			c-0.173,0.253-0.35,0.502-0.526,0.752c-1.307,3.08-3.829,5.86-6.256,7.851c-0.147,0.121-0.305,0.239-0.456,0.359
			c-1.885,2.01-4.357,3.708-7.108,4.187c-0.656,0.114-1.31,0.01-1.833-0.303c-0.068-0.013-0.138-0.02-0.205-0.036
			c-0.03,0.021-0.063,0.039-0.092,0.061c-6.182-3.133-16.559-2.968-22.579,0.179c-0.376,0.317-0.773,0.607-1.205,0.826
			c-0.364,0.481-0.917,0.83-1.692,0.854c-3.235,0.098-5.718-2.681-7.503-5.043c-1.742-2.304-3.208-4.812-4.322-7.478
			c-0.009-0.007-0.018-0.016-0.028-0.022c-0.073-0.049-0.148-0.084-0.224-0.115c0.024-0.126,0.039-0.26,0.053-0.393
			c-0.129-0.444-0.117-0.844,0.011-1.184c-0.093-0.968-0.438-1.914-1.121-2.483c-0.011-0.009-0.024-0.017-0.036-0.026
			c0.23-2.313-0.251-4.702-0.693-6.966c-0.561-2.876-1.33-6.2-3.173-8.537c-0.345-0.438-1.178-0.084-1.12,0.464
			c0.269,2.567,1.365,5.035,1.958,7.551c0.53,2.252,0.581,4.525,0.808,6.788c-0.169,0.018-0.338,0.046-0.503,0.098
			c-0.823,0.263-1.545,1.113-1.383,1.988c-0.225,0.077-0.423,0.222-0.524,0.436c-0.273,0.579-0.275,1.096-0.186,1.72
			c0.07,0.486,0.311,1.12,0.768,1.373c-0.096,0.47-0.058,0.989,0.041,1.398c0.05,0.208,0.144,0.384,0.259,0.542
			c0.087,0.394,0.271,0.773,0.508,1.073c0.089,0.112,0.211,0.181,0.345,0.222c-0.576,0.966-0.832,2.241-0.84,3.171
			c-0.012,1.334,0.722,3.776,2.25,3.828c-0.399,1.971,1.006,4.353,2.843,5.361c-0.106,1.208,0.496,2.356,1.374,3.218
			c0.47,0.461,1.198,1,1.855,1.153c0.451,0.105,0.82,0.096,1.187,0.028c0.188,1.254,0.916,2.485,1.783,3.297
			c0.692,0.649,2.219,1.389,3.474,1.369c-0.017,1.061,0.888,2.067,2.016,2.292c0.58,0.115,1.159,0.105,1.745,0.067
			c0.429-0.028,1.012-0.268,1.36-0.641l0.108,0.059c0.395,2.658,4.023,4.818,6.455,3.603c0.361,0.813,1.057,1.51,1.938,1.72
			c1.308,0.313,1.683-0.569,2.83-0.693c1.955-0.211,3.838,0.176,4.88-1.459c1.31,1.269,4.113,0.545,5.539-0.135
			c1.371-0.653,3.774-2.691,4.06-4.628c0.94-0.058,1.988-0.492,2.61-0.781c0.826-0.385,2.348-1.623,2.695-2.817
			c0.84,0.07,1.738-0.203,2.472-0.535c1.442-0.654,2.368-2.126,2.154-3.691c-0.008-0.055-0.035-0.097-0.05-0.147
			c0.669-0.247,1.192-0.751,1.635-1.408c0.44-0.653,0.765-1.166,1.428-1.647c0.426-0.309,0.91-0.702,1.155-1.179
			c0.792-1.546,1.394-3.688,0.833-5.425c0.885-0.395,1.277-1.373,1.525-2.313c0.217-0.825,0.373-2.113,0-3.027
			C119.329,85.779,119.433,83.958,118.663,82.837z M98.315,99.766c-0.075,0.096-0.15,0.189-0.222,0.291
			c-0.322,0.146-0.608,0.383-0.78,0.659c-0.245,0.395-0.233,0.807-0.094,1.193c-0.249,0.107-0.496,0.239-0.734,0.412
			c-1.337,0.97-1.72,2.307-1.65,3.712c-0.317,0.009-0.611,0.087-0.872,0.218c-0.593,0.02-1.199,0.164-1.749,0.418
			c-0.45,0.208-0.804,0.513-1.076,0.87c-0.034-0.114-0.073-0.226-0.121-0.33c-0.378-0.825-1.458-1.149-2.285-1.165
			c-0.876-0.018-1.747,0.459-2.4,1.003c-0.278,0.231-0.482,0.487-0.653,0.753c-0.158-0.157-0.338-0.303-0.537-0.438
			c-0.706-0.478-1.626-0.508-2.432-0.334c-0.137,0.029-0.274,0.076-0.409,0.131c-1.071-1.586-2.586-3.002-4.649-2.557
			c-0.263,0.057-0.51,0.157-0.747,0.276c-0.065-0.127-0.134-0.25-0.206-0.359c-0.054-0.082-0.125-0.147-0.188-0.221
			c0.072-0.231,0.129-0.477,0.167-0.737c0.577-1.535,0.751-3.429-0.414-4.353c0.063-0.05,0.125-0.099,0.188-0.148
			c3.459-0.915,6.762-1.809,10.529-1.881c4.282-0.083,7.668,1.381,11.341,2.57C98.318,99.753,98.316,99.759,98.315,99.766z"/>
		<g>
			<g id="XMLID_5_">
				<g>
					<path style="fill:#474748;" d="M87.838,47.567c-0.16-0.46-0.62-0.53-0.931-0.35c-0.22-0.51-0.97-0.7-1.33-0.11
						c-1.06,1.72-2.38,3.09-4.47,3.31c-1.2,0.12-2.74-0.56-3.91-0.32c-0.12-0.55-0.92-0.81-1.35-0.23
						c-3.1,4.14-7.56,6.06-12.31,3.34c-0.03-0.02-0.06-0.02-0.1-0.03c-0.31-0.74-1.48-0.54-1.5,0.31c-0.05,2.12,0.25,4.24-0.05,6.36
						c-0.42,3.02-2.91,5.96-6.14,4c-0.53-1.69-1.43-3.2-1.81-4.97c-0.22-1.02-0.25-2.12-0.01-3.14c0.32-1.3,1.49-1.42,2.49-2
						c0.65-0.37,0.53-1.4-0.21-1.59c-0.3-0.08-0.59-0.1-0.86-0.1c-3.47-4.31,1.2-10.99,6.03-11.98c0.18,0.2,0.46,0.32,0.82,0.22
						c0.5-0.13,1.04-0.24,1.56-0.29c0.66-0.05,1.26,0.15,1.94,0.04c0.67-0.1,0.74-0.97,0.37-1.39c-0.35-0.4-0.82-0.6-1.33-0.69
						c2.82-3.85,9.66-3.47,14.1-2.64c0.16,0.1,0.34,0.13,0.52,0.1c0.14,0.03,0.28,0.06,0.41,0.08c0.84,0.18,1.46-1.04,0.61-1.44
						c-0.01-0.01-0.03-0.02-0.04-0.02c0.79-1.56,1.66-2.47,3.72-3.05c1.5-0.42,2.93-0.43,4.39-0.38c0.761,0.25,1.471,0.6,2.25,0.83
						c1.021,0.29,1.73,0.99,2.61,1.52c0.62,0.37,1.43-0.24,1.22-0.94c-0.189-0.64-0.56-1.11-1.04-1.49
						c4.08-0.09,8.69,2.74,7.53,7.26c-0.06,0.24-0.01,0.44,0.11,0.6c0.08,0.32,0.39,0.59,0.77,0.46c2.86-0.93,5.59-1.13,8.54-0.4
						c1.44,0.35,2.92,1.06,3.82,2.28c1.09,1.49,0.22,2.99-0.08,4.54c-0.05,0.24,0.02,0.47,0.149,0.66
						c-0.06,0.36,0.15,0.74,0.65,0.76c5.74,0.13,7.17,6.93,3.64,10.69c-0.42,0.44-0.279,1.31,0.38,1.44
						c2.211,0.45,2.841,2.19,2.811,4.23c-0.04,2.41-1.37,3.31-3.57,3.24c-1.24-1.02-1.63-2.39-1.439-4.3
						c0.029-0.33-0.271-0.74-0.601-0.79c-5.04-0.79-8.89-4.28-9.35-9.46c-0.05-0.54-0.78-0.8-1.09-0.43
						c-0.07-0.49-0.28-0.86-0.641-1.22c-0.279-0.28-0.63-0.16-0.819,0.09c-0.08,0.02-0.15,0.05-0.23,0.11
						C99.418,53.777,90.178,54.007,87.838,47.567z"/>
					<path style="fill:#474748;" d="M118.998,58.817c-0.659-0.13-0.8-1-0.38-1.44c3.53-3.76,2.101-10.56-3.64-10.69
						c-0.5-0.02-0.71-0.4-0.65-0.76c-0.13-0.19-0.199-0.42-0.149-0.66c0.3-1.55,1.17-3.05,0.08-4.54c-0.9-1.22-2.38-1.93-3.82-2.28
						c-2.95-0.73-5.68-0.53-8.54,0.4c-0.38,0.13-0.689-0.14-0.77-0.46c-0.12-0.16-0.17-0.36-0.11-0.6c1.16-4.52-3.45-7.35-7.53-7.26
						c0.48,0.38,0.851,0.85,1.04,1.49c0.21,0.7-0.6,1.31-1.22,0.94c-0.88-0.53-1.59-1.23-2.61-1.52
						c-0.779-0.23-1.489-0.58-2.25-0.83c-1.46-0.05-2.89-0.04-4.39,0.38c-2.06,0.58-2.93,1.49-3.72,3.05c0.01,0,0.03,0.01,0.04,0.02
						c0.85,0.4,0.23,1.62-0.61,1.44c-0.13-0.02-0.27-0.05-0.41-0.08c-0.18,0.03-0.36,0-0.52-0.1c-4.44-0.83-11.28-1.21-14.1,2.64
						c0.51,0.09,0.98,0.29,1.33,0.69c0.37,0.42,0.3,1.29-0.37,1.39c-0.68,0.11-1.28-0.09-1.94-0.04c-0.52,0.05-1.06,0.16-1.56,0.29
						c-0.36,0.1-0.64-0.02-0.82-0.22c-4.83,0.99-9.5,7.67-6.03,11.98c0.27,0,0.56,0.02,0.86,0.1c0.74,0.19,0.86,1.22,0.21,1.59
						c-1,0.58-2.17,0.7-2.49,2c-0.24,1.02-0.21,2.12,0.01,3.14c0.38,1.77,1.28,3.28,1.81,4.97c3.23,1.96,5.72-0.98,6.14-4
						c0.3-2.12,0-4.24,0.05-6.36c0.02-0.85,1.19-1.05,1.5-0.31c0.04,0.01,0.07,0.01,0.1,0.03c4.75,2.72,9.21,0.8,12.31-3.34
						c0.43-0.58,1.23-0.32,1.35,0.23c1.17-0.24,2.71,0.44,3.91,0.32c2.09-0.22,3.41-1.59,4.47-3.31c0.36-0.59,1.11-0.4,1.33,0.11
						c0.311-0.18,0.771-0.11,0.931,0.35c2.34,6.44,11.58,6.21,16.229,2.72c0.08-0.06,0.15-0.09,0.23-0.11
						c0.189-0.25,0.54-0.37,0.819-0.09c0.36,0.36,0.57,0.73,0.641,1.22c0.31-0.37,1.04-0.11,1.09,0.43
						c0.46,5.18,4.31,8.67,9.35,9.46c0.33,0.05,0.63,0.46,0.601,0.79c-0.19,1.91,0.199,3.28,1.439,4.3c2.2,0.07,3.53-0.83,3.57-3.24
						C121.838,61.007,121.209,59.267,118.998,58.817z M120.709,57.597c5.829,2.85,1.529,13.93-3.15,10.31
						c-0.021-0.02-0.04-0.04-0.061-0.06c-1.739-1.02-2.3-2.97-2.34-5.1c-5.52-0.56-10.31-5.02-9.56-10.83
						c-0.22,0.16-0.58,0.13-0.78-0.09c-4.7,5.28-16.25,3.83-18.08-3.39c-0.72,2.08-2.31,3.42-4.59,3.82
						c-1.42,0.26-4.32,0.25-5.43-0.99c-2.87,4.59-8.2,6.5-12.85,3.66c0.55,2.83,0.64,6.23-0.9,8.54c-1.87,2.81-5.52,3.81-8.04,1.31
						c-0.01-0.01-0.01-0.01-0.01-0.01c-2.36-1.13-3.46-5.32-3.36-7.75c0.07-1.78,0.95-3.97,2.57-4.71
						c-4.07-5.18,1.59-13.77,7.83-13.78c0.41-0.23,0.88-0.42,1.38-0.53c2.29-4.91,9.68-6.08,14.87-4.72
						c0.18-1.94,2.23-3.57,3.97-4.32c2.47-1.05,6.39-1.55,8.77-0.02c0.23,0.14,0.351,0.36,0.4,0.59c0.01,0,0.02,0.01,0.03,0.01
						c5-1.48,11.609,1.79,11.27,7.27c2.89-1.51,7.26-0.99,9.95,0.21c3.17,1.42,5.47,5.05,3.56,8.23
						C122.308,45.427,124.088,53.017,120.709,57.597z"/>
				</g>
				<g>
				</g>
			</g>
			<g>
				<path style="fill:#474748;" d="M56.975,66.588c0.341,0.579,0.644,1.154,0.933,1.732c0.863,2.331,1.781,6.5,0.737,6.556
					c-0.623,0.033-1.035,0.998-0.351,1.296c2.596,1.128,3.301-1.805,3.285-3.788c-0.018-2.247-0.844-5.777-2.476-7.438
					C58.02,63.843,56.19,65.259,56.975,66.588z"/>
				<path style="fill:#474748;" d="M117.736,76.335c-2.196-3.079,0.445-5.237,0.177-8.405c-0.1-1.185-1.842-1.959-2.46-0.667
					c-1.748,3.65-2.787,7.49-0.005,10.837C116.502,79.37,118.696,77.68,117.736,76.335z"/>
			</g>
		</g>
	</g>
</g>
<g>
</g>
<g>
</g>
<g>
</g>
<g>
</g>
<g>
</g>
<g>
</g>
<g>
</g>
<g>
</g>
<g>
</g>
<g>
</g>
<g>
</g>
<g>
</g>
<g>
</g>
<g>
</g>
<g>
</g>
</svg>
