<svg xmlns="http://www.w3.org/2000/svg" xmlns:xlink="http://www.w3.org/1999/xlink" viewBox="0 0 976.05 833.79"><defs><style>.cls-1,.cls-2,.cls-20,.cls-22{fill:none;}.cls-1{stroke-width:6px;stroke:url(#linear-gradient);}.cls-2{stroke-miterlimit:10;stroke-width:11px;stroke:url(#linear-gradient-2);}.cls-10,.cls-11,.cls-12,.cls-13,.cls-14,.cls-15,.cls-16,.cls-17,.cls-18,.cls-19,.cls-21,.cls-3,.cls-4,.cls-5,.cls-6,.cls-7,.cls-8,.cls-9{stroke:#fff;}.cls-10,.cls-11,.cls-12,.cls-13,.cls-14,.cls-15,.cls-16,.cls-17,.cls-18,.cls-19,.cls-20,.cls-21,.cls-22,.cls-3,.cls-4,.cls-5,.cls-6,.cls-7,.cls-8,.cls-9{stroke-width:4px;}.cls-3{fill:url(#linear-gradient-3);}.cls-4{fill:url(#linear-gradient-4);}.cls-5{fill:url(#linear-gradient-5);}.cls-6{fill:url(#linear-gradient-6);}.cls-7{fill:url(#linear-gradient-7);}.cls-8{fill:url(#linear-gradient-8);}.cls-9{fill:url(#linear-gradient-9);}.cls-10{fill:url(#linear-gradient-10);}.cls-11{fill:url(#linear-gradient-11);}.cls-12{fill:url(#linear-gradient-12);}.cls-13{fill:url(#linear-gradient-13);}.cls-14{fill:url(#linear-gradient-14);}.cls-15{fill:url(#linear-gradient-15);}.cls-16{fill:url(#linear-gradient-16);}.cls-17{fill:url(#linear-gradient-17);}.cls-18{fill:url(#linear-gradient-18);}.cls-19{fill:url(#linear-gradient-19);}.cls-20{stroke:url(#linear-gradient-20);}.cls-21{fill-rule:evenodd;fill:url(#linear-gradient-21);}.cls-22{stroke:url(#linear-gradient-22);}</style><linearGradient id="linear-gradient" x1="768.22" y1="190.14" x2="211.21" y2="438.13" gradientUnits="userSpaceOnUse"><stop offset="0" stop-color="#e93400"/><stop offset="0.03" stop-color="#ea450b"/><stop offset="0.09" stop-color="#ee7327"/><stop offset="0.17" stop-color="#f4bb55"/><stop offset="0.23" stop-color="#faff7f"/><stop offset="0.59" stop-color="#1e90ff"/><stop offset="0.85" stop-color="#2ed573"/></linearGradient><linearGradient id="linear-gradient-2" x1="806.1" y1="300.47" x2="155.85" y2="300.47" gradientUnits="userSpaceOnUse"><stop offset="0" stop-color="#e93400"/><stop offset="0.04" stop-color="#db3a11"/><stop offset="0.11" stop-color="#b74b3f"/><stop offset="0.21" stop-color="#7c6588"/><stop offset="0.33" stop-color="#2d89ec"/><stop offset="0.36" stop-color="#1e90ff"/><stop offset="0.71" stop-color="#2ed573"/><stop offset="0.96" stop-color="#e2e900"/></linearGradient><linearGradient id="linear-gradient-3" x1="200.23" y1="550.92" x2="200.23" y2="551.92" gradientTransform="matrix(24, 0, 0, -24, -4432.68, 13260)" gradientUnits="userSpaceOnUse"><stop offset="0" stop-color="#2ed573"/><stop offset="1" stop-color="#1e90ff"/></linearGradient><linearGradient id="linear-gradient-4" x1="200.23" y1="550.92" x2="200.23" y2="551.92" gradientTransform="matrix(24, 0, 0, -24, -4637.68, 13562)" xlink:href="#linear-gradient-3"/><linearGradient id="linear-gradient-5" x1="200.23" y1="550.92" x2="200.23" y2="551.92" gradientTransform="matrix(24, 0, 0, -24, -4479.68, 13640)" xlink:href="#linear-gradient-3"/><linearGradient id="linear-gradient-6" x1="200.23" y1="550.92" x2="200.23" y2="551.92" gradientTransform="matrix(24, 0, 0, -24, -4397.68, 13560)" xlink:href="#linear-gradient-3"/><linearGradient id="linear-gradient-7" x1="200.23" y1="550.92" x2="200.23" y2="551.92" gradientTransform="matrix(24, 0, 0, -24, -4361.68, 13652)" xlink:href="#linear-gradient-3"/><linearGradient id="linear-gradient-8" x1="200.23" y1="550.92" x2="200.23" y2="551.92" gradientTransform="matrix(24, 0, 0, -24, -4324.68, 13652)" xlink:href="#linear-gradient-3"/><linearGradient id="linear-gradient-9" x1="200.23" y1="550.92" x2="200.23" y2="551.92" gradientTransform="matrix(24, 0, 0, -24, -4324.68, 13566)" xlink:href="#linear-gradient-3"/><linearGradient id="linear-gradient-10" x1="200.23" y1="550.92" x2="200.23" y2="551.92" gradientTransform="matrix(24, 0, 0, -24, -4192.68, 13542)" xlink:href="#linear-gradient-3"/><linearGradient id="linear-gradient-11" x1="200.73" y1="550" x2="200.73" y2="551" gradientTransform="matrix(24, 0, 0, -24, -4262.68, 13600)" xlink:href="#linear-gradient-3"/><linearGradient id="linear-gradient-12" x1="200.23" y1="550.92" x2="200.23" y2="551.92" gradientTransform="matrix(24, 0, 0, -24, -4006.68, 13560)" xlink:href="#linear-gradient-3"/><linearGradient id="linear-gradient-13" x1="200.23" y1="550.92" x2="200.23" y2="551.92" gradientTransform="matrix(24, 0, 0, -24, -4126.68, 13796)" xlink:href="#linear-gradient-3"/><linearGradient id="linear-gradient-14" x1="200.23" y1="550.92" x2="200.23" y2="551.92" gradientTransform="matrix(24, 0, 0, -24, -4210.68, 13820)" xlink:href="#linear-gradient-3"/><linearGradient id="linear-gradient-15" x1="199.81" y1="550.92" x2="199.81" y2="551.92" gradientTransform="matrix(24, 0, 0, -24, -4325.68, 13738)" xlink:href="#linear-gradient-3"/><linearGradient id="linear-gradient-16" x1="200.23" y1="550.92" x2="200.23" y2="551.92" gradientTransform="matrix(24, 0, 0, -24, -4444.68, 13708)" xlink:href="#linear-gradient-3"/><linearGradient id="linear-gradient-17" x1="200.23" y1="550.92" x2="200.23" y2="551.92" gradientTransform="matrix(24, 0, 0, -24, -4324.68, 13248)" xlink:href="#linear-gradient-3"/><linearGradient id="linear-gradient-18" x1="200.23" y1="550.92" x2="200.23" y2="551.92" gradientTransform="matrix(24, 0, 0, -24, -4126.68, 13312)" xlink:href="#linear-gradient-3"/><linearGradient id="linear-gradient-19" x1="200.23" y1="550.92" x2="200.23" y2="551.92" gradientTransform="matrix(24, 0, 0, -24, -4042.68, 13416)" xlink:href="#linear-gradient-3"/><linearGradient id="linear-gradient-20" x1="201.21" y1="550.79" x2="201.21" y2="549.69" gradientTransform="matrix(68, 0, 0, -59, -13379.94, 32727)" xlink:href="#linear-gradient-3"/><linearGradient id="linear-gradient-21" x1="200.93" y1="550.05" x2="200.93" y2="550.95" gradientTransform="matrix(50.61, 0, 0, -44, -9865.68, 24485)" gradientUnits="userSpaceOnUse"><stop offset="0" stop-color="#2ed573"/><stop offset="0.03" stop-color="#2dd378"/><stop offset="1" stop-color="#1e90ff"/></linearGradient><linearGradient id="linear-gradient-22" x1="201.21" y1="550.72" x2="201.21" y2="549.75" gradientTransform="matrix(68, 0, 0, -59, -13379.94, 32727)" xlink:href="#linear-gradient-3"/></defs><title>Asset 1</title><g id="Layer_2" data-name="Layer 2"><g id="COLOR_LOGO" data-name="COLOR LOGO"><g id="CHAM"><path class="cls-1" d="M480.78,16.32l-25,144.29m223,49.27L765.47,185M679.16,80.37l-.38,129.51m-223-49.27L407.78,326M384.3,111.44l71.48,49.17m0,0,223,49.27M800.27,329.3,678.78,209.88m-223-49.27,26.06,173.83m197.32,231,21.4-86.54m-21.4-109.39-.38-159.64m-86,380.74L523,495.23M329.27,217.88,374,30m-123,232.7L164.1,329.3m190.68-66.6,53,63.3M164.1,329.3H412m202.37-20.09,64.42-99.33"/><path id="Combined-Shape" class="cls-2" d="M384.3,111.44,481.84,10.67l197.32,69.7L765.47,185l34.8,144.33L679.16,565.45l-86.38,25.17L467.78,504l87-117,107.76,22.64L671,474l-58.21,48.18-69-32.17L573,454.56l27.77-1.2L572.06,486l40.72,12.48,25.28-55.72L575.51,423.6,523,495.23,606.78,543l93.78-64.11-21.4-109.39-27.89,21.1-58.49-15.94,26-13.77-4.42-51.7L481.84,334.44v85.71l-35.49,54.92H361.28l15.6-23.1,69.47-31.82L412,329.3h0ZM164.1,329.3,374,30l38,299.3-83.45,78Z"/><circle id="Oval" class="cls-3" cx="372.78" cy="26" r="12"/><circle id="Oval-Copy-4" class="cls-4" cx="167.78" cy="328" r="12"/><circle id="Oval-Copy-5" class="cls-5" cx="325.78" cy="406" r="12"/><circle id="Oval-Copy-6" class="cls-6" cx="407.78" cy="326" r="12"/><circle id="Oval-Copy-7" class="cls-7" cx="443.78" cy="418" r="12"/><circle id="Oval-Copy-8" class="cls-8" cx="480.78" cy="418" r="12"/><circle id="Oval-Copy-9" class="cls-9" cx="480.78" cy="332" r="12"/><circle id="Oval-Copy-10" class="cls-10" cx="612.78" cy="308" r="12"/><circle id="Oval-Copy-16" class="cls-11" cx="554.78" cy="387.96" r="12"/><circle id="Oval-Copy-11" class="cls-12" cx="798.78" cy="326" r="12"/><circle id="Oval-Copy-12" class="cls-13" cx="678.78" cy="562" r="12"/><circle id="Oval-Copy-13" class="cls-14" cx="594.78" cy="586" r="12"/><circle id="Oval-Copy-14" class="cls-15" cx="469.78" cy="504" r="12"/><circle id="Oval-Copy-15" class="cls-16" cx="360.78" cy="474" r="12"/><circle id="Oval-Copy" class="cls-17" cx="480.78" cy="14" r="12"/><circle id="Oval-Copy-2" class="cls-18" cx="678.78" cy="78" r="12"/><circle id="Oval-Copy-3" class="cls-19" cx="762.78" cy="182" r="12"/><polygon id="Path-3" class="cls-20" points="250.91 262.7 277.01 217.88 329.27 217.88 354.78 262.7 329.27 308 277.01 308 250.91 262.7"/><path id="Path-3-2" data-name="Path-3" class="cls-21" d="M280.21,262.84l11.38-19.57h22.77l11.11,19.57-11.11,19.77H291.59Z"/><polygon id="Path-3-3" data-name="Path-3" class="cls-22" points="273.99 262.92 288.43 238.13 317.33 238.13 331.43 262.92 317.33 287.97 288.43 287.97 273.99 262.92"/></g><g id="CHAMAELEON"><path d="M51.73,736.65a51.8,51.8,0,1,1,38.9-85.92,8.6,8.6,0,0,1-.73,12.09,8.47,8.47,0,0,1-12.09-.74,34.56,34.56,0,1,0,0,45.54,8.47,8.47,0,0,1,12.09-.74A8.58,8.58,0,0,1,90.63,719,51.68,51.68,0,0,1,51.73,736.65Z"/><path d="M187.9,641.74V728.1a8.55,8.55,0,0,1-8.55,8.55,8.68,8.68,0,0,1-8.69-8.55V696.86h-47.6V728.1a8.55,8.55,0,1,1-17.1,0V641.74a8.55,8.55,0,0,1,17.1,0v38h47.6v-38a8.69,8.69,0,0,1,8.69-8.55A8.56,8.56,0,0,1,187.9,641.74Z"/><path d="M288.7,735.91a7.64,7.64,0,0,1-3.53.74,8.64,8.64,0,0,1-7.82-5.16l-8.84-20.34H226.36l-8.84,20.34a8.52,8.52,0,0,1-11.34,4.42,8.67,8.67,0,0,1-4.43-11.2l37.88-86.36a8.49,8.49,0,0,1,15.62,0l37.87,86.36A8.53,8.53,0,0,1,288.7,735.91ZM261,694.06l-13.56-30.95-13.56,30.95Z"/><path d="M393.34,736.65a8.59,8.59,0,0,1-8.55-8.7V669.74l-23.14,34.49a8.58,8.58,0,0,1-14.29,0l-23.14-34.49V728a8.55,8.55,0,1,1-17.09,0V641.59a8.52,8.52,0,0,1,6-8.1,8.39,8.39,0,0,1,9.58,3.39L354.58,684l31.68-47.16a8.39,8.39,0,0,1,9.58-3.39,8.53,8.53,0,0,1,6.05,8.1V728A8.59,8.59,0,0,1,393.34,736.65Z"/><path d="M502.69,735.91a7.65,7.65,0,0,1-3.54.74,8.64,8.64,0,0,1-7.81-5.16l-8.84-20.34H440.35l-8.84,20.34a8.53,8.53,0,0,1-11.35,4.42,8.67,8.67,0,0,1-4.42-11.2l37.88-86.36a8.49,8.49,0,0,1,15.62,0l37.87,86.36A8.54,8.54,0,0,1,502.69,735.91ZM475,694.06l-13.55-30.95-13.56,30.95Z"/><path d="M594.5,728.1a8.55,8.55,0,0,1-8.54,8.55h-56.3a8.55,8.55,0,0,1-8.55-8.55V641.74a8.68,8.68,0,0,1,8.55-8.69H586a8.68,8.68,0,0,1,8.54,8.69,8.55,8.55,0,0,1-8.54,8.55H538.21v23.87h33.3a8.63,8.63,0,0,1,0,17.25h-33.3v28H586A8.58,8.58,0,0,1,594.5,728.1Z"/><path d="M665.54,736.65H616.32a8.55,8.55,0,0,1-8.55-8.55V641.74a8.55,8.55,0,1,1,17.09,0v77.81h40.68a8.55,8.55,0,1,1,0,17.1Z"/><path d="M760.89,728.1a8.55,8.55,0,0,1-8.55,8.55H696.05a8.55,8.55,0,0,1-8.55-8.55V641.74a8.68,8.68,0,0,1,8.55-8.69h56.29a8.68,8.68,0,0,1,8.55,8.69,8.55,8.55,0,0,1-8.55,8.55H704.59v23.87H737.9a8.63,8.63,0,0,1,0,17.25H704.59v28h47.75A8.58,8.58,0,0,1,760.89,728.1Z"/><path d="M825.88,736.65a51.73,51.73,0,1,1,51.73-51.73A51.7,51.7,0,0,1,825.88,736.65Zm0-86.36a34.63,34.63,0,1,0,34.63,34.63A34.68,34.68,0,0,0,825.88,650.29Z"/><path d="M967.51,736.65a8.3,8.3,0,0,1-6.78-3.39L908,666.35V728.1a8.55,8.55,0,0,1-17.1,0V641.74a8.6,8.6,0,0,1,5.75-8.1,8.25,8.25,0,0,1,9.58,2.8L959,703.34v-61.6a8.55,8.55,0,1,1,17.09,0V728.1a8.55,8.55,0,0,1-5.74,8A6.45,6.45,0,0,1,967.51,736.65Z"/></g><g id="SOFTWARE"><path d="M61.68,833.79c-8.37,0-13.41-3.52-16.26-6.37a20,20,0,0,1-5.52-13.7,5.52,5.52,0,1,1,11,0c0,3.33,2.29,9,10.75,9s10.75-5.71,10.75-9c0-5-2.76-6.56-12.08-9.23-4.18-1.23-8.46-2.47-12-4.94a15.62,15.62,0,0,1-7.14-13.7A18.84,18.84,0,0,1,46.37,773c2.66-2.76,7.51-6,15.31-6s12.65,3.24,15.32,6a18.52,18.52,0,0,1,5.23,12.84,5.57,5.57,0,0,1-11.13,0c0-2.86-2-7.8-9.42-7.8s-9.41,4.94-9.41,7.8c0,3.71,1.42,5.13,11.13,8,4.37,1.24,8.94,2.57,12.65,5.23,4.94,3.42,7.42,8.37,7.42,14.65A20,20,0,0,1,78,827.42C75.19,830.27,70.05,833.79,61.68,833.79Z"/><path d="M184.3,833.79a33.39,33.39,0,1,1,33.39-33.39A33.37,33.37,0,0,1,184.3,833.79Zm0-55.74a22.36,22.36,0,1,0,22.35,22.35A22.38,22.38,0,0,0,184.3,778.05Z"/><path d="M333.55,772.53a5.54,5.54,0,0,1-5.61,5.52H297.21v15.41h21.41a5.6,5.6,0,0,1,5.51,5.61,5.52,5.52,0,0,1-5.51,5.52H297.21v23.68a5.6,5.6,0,0,1-5.61,5.52,5.52,5.52,0,0,1-5.52-5.52V772.53A5.53,5.53,0,0,1,291.6,767h36.34A5.54,5.54,0,0,1,333.55,772.53Z"/><path d="M454.36,772.53a5.52,5.52,0,0,1-5.52,5.52H433.72v50.22a5.57,5.57,0,0,1-11.13,0V778.05H407.46a5.52,5.52,0,0,1,0-11h41.38A5.52,5.52,0,0,1,454.36,772.53Z"/><path d="M545.11,833.79h-.19a5.6,5.6,0,0,1-5.14-4L523,774.05a5.44,5.44,0,0,1,3.71-6.85,5.52,5.52,0,0,1,6.85,3.71L545.68,811l11-29.39a5.44,5.44,0,0,1,5.14-3.62,5.65,5.65,0,0,1,5.23,3.62L578,811l12.08-40.05a5.56,5.56,0,0,1,10.66,3.14l-16.84,55.74a5.5,5.5,0,0,1-10.46.39l-11.61-30.92-11.6,30.92A5.46,5.46,0,0,1,545.11,833.79Z"/><path d="M714.43,833.31a4.81,4.81,0,0,1-2.28.48,5.57,5.57,0,0,1-5-3.33l-5.71-13.13H674.19l-5.7,13.13a5.51,5.51,0,0,1-7.33,2.85,5.59,5.59,0,0,1-2.85-7.23l24.45-55.74a5.48,5.48,0,0,1,10.08,0l24.45,55.74A5.52,5.52,0,0,1,714.43,833.31Zm-17.88-27-8.75-20-8.75,20Z"/><path d="M832,824.37a5.67,5.67,0,0,1-.19,7.9,5.44,5.44,0,0,1-3.81,1.52,5.31,5.31,0,0,1-4-1.71l-16.17-16.74H797.19v12.93a5.52,5.52,0,1,1-11,0V772.53a5.52,5.52,0,0,1,5.51-5.52h18.55a24.13,24.13,0,0,1,10.56,45.85ZM797.19,804.3h13a13.13,13.13,0,0,0,0-26.25h-13Z"/><path d="M950.15,828.27a5.52,5.52,0,0,1-5.51,5.52H908.3a5.52,5.52,0,0,1-5.52-5.52V772.53a5.6,5.6,0,0,1,5.52-5.61h36.34a5.6,5.6,0,0,1,5.51,5.61,5.52,5.52,0,0,1-5.51,5.52H913.82v15.41h21.49a5.57,5.57,0,0,1,0,11.13H913.82v18.07h30.82A5.54,5.54,0,0,1,950.15,828.27Z"/></g></g></g></svg>