<svg width="162" height="48" viewBox="0 0 162 48" fill="none" xmlns="http://www.w3.org/2000/svg">
<mask id="mask0" mask-type="alpha" maskUnits="userSpaceOnUse" x="0" y="0" width="162" height="48">
<path fill-rule="evenodd" clip-rule="evenodd" d="M0 0H162V47.9999H0V0Z" fill="white"/>
</mask>
<g mask="url(#mask0)">
<path fill-rule="evenodd" clip-rule="evenodd" d="M156 47.9999H6C2.7 47.9999 0 45.2999 0 41.9999V5.99988C0 2.69988 2.7 -0.00012207 6 -0.00012207H156C159.3 -0.00012207 162 2.69988 162 5.99988V41.9999C162 45.2999 159.3 47.9999 156 47.9999Z" fill="black"/>
</g>
<path fill-rule="evenodd" clip-rule="evenodd" d="M56.9022 12.2918C56.9022 13.2974 56.6046 14.0978 56.0082 14.6954C55.3302 15.4058 54.4482 15.761 53.3634 15.761C52.3242 15.761 51.4398 15.401 50.7138 14.6798C49.9854 13.9598 49.623 13.0658 49.623 12.0002C49.623 10.9334 49.9854 10.0406 50.7138 9.31938C51.4398 8.59938 52.3242 8.23938 53.3634 8.23938C53.8782 8.23938 54.3726 8.34018 54.8406 8.54058C55.3098 8.74218 55.6854 9.00978 55.9674 9.34458L55.3338 9.97818C54.8574 9.40938 54.201 9.12378 53.3634 9.12378C52.605 9.12378 51.9498 9.39018 51.3966 9.92298C50.8434 10.457 50.5674 11.1482 50.5674 12.0002C50.5674 12.851 50.8434 13.5434 51.3966 14.0762C51.9498 14.6102 52.605 14.8754 53.3634 14.8754C54.1674 14.8754 54.837 14.6078 55.3746 14.0714C55.7226 13.7222 55.9242 13.2374 55.977 12.6134H53.3634V11.7482H56.8518C56.8854 11.9366 56.9022 12.1166 56.9022 12.2918Z" fill="white"/>
<path fill-rule="evenodd" clip-rule="evenodd" d="M56.9022 12.2918C56.9022 13.2974 56.6046 14.0978 56.0082 14.6954C55.3302 15.4058 54.4482 15.761 53.3634 15.761C52.3242 15.761 51.4398 15.401 50.7138 14.6798C49.9854 13.9598 49.623 13.0658 49.623 12.0002C49.623 10.9334 49.9854 10.0406 50.7138 9.31938C51.4398 8.59938 52.3242 8.23938 53.3634 8.23938C53.8782 8.23938 54.3726 8.34018 54.8406 8.54058C55.3098 8.74218 55.6854 9.00978 55.9674 9.34458L55.3338 9.97818C54.8574 9.40938 54.201 9.12378 53.3634 9.12378C52.605 9.12378 51.9498 9.39018 51.3966 9.92298C50.8434 10.457 50.5674 11.1482 50.5674 12.0002C50.5674 12.851 50.8434 13.5434 51.3966 14.0762C51.9498 14.6102 52.605 14.8754 53.3634 14.8754C54.1674 14.8754 54.837 14.6078 55.3746 14.0714C55.7226 13.7222 55.9242 13.2374 55.977 12.6134H53.3634V11.7482H56.8518C56.8854 11.9366 56.9022 12.1166 56.9022 12.2918Z" stroke="white" stroke-width="0.2"/>
<path fill-rule="evenodd" clip-rule="evenodd" d="M62.4331 9.28467H59.1547V11.5671H62.1103V12.4323H59.1547V14.7147H62.4331V15.6003H58.2295V8.40027H62.4331V9.28467Z" fill="white"/>
<path fill-rule="evenodd" clip-rule="evenodd" d="M62.4331 9.28467H59.1547V11.5671H62.1103V12.4323H59.1547V14.7147H62.4331V15.6003H58.2295V8.40027H62.4331V9.28467Z" stroke="white" stroke-width="0.2"/>
<path fill-rule="evenodd" clip-rule="evenodd" d="M66.3343 15.5999H65.4091V9.2843H63.3979V8.3999H68.3455V9.2843H66.3343V15.5999Z" fill="white"/>
<path fill-rule="evenodd" clip-rule="evenodd" d="M66.3343 15.5999H65.4091V9.2843H63.3979V8.3999H68.3455V9.2843H66.3343V15.5999Z" stroke="white" stroke-width="0.2"/>
<path fill-rule="evenodd" clip-rule="evenodd" d="M71.9258 15.6H72.851V8.40002H71.9258V15.6Z" fill="white"/>
<path fill-rule="evenodd" clip-rule="evenodd" d="M71.9258 15.6H72.851V8.40002H71.9258V15.6Z" stroke="white" stroke-width="0.2"/>
<path fill-rule="evenodd" clip-rule="evenodd" d="M76.954 15.5999H76.0288V9.2843H74.0176V8.3999H78.9652V9.2843H76.954V15.5999Z" fill="white"/>
<path fill-rule="evenodd" clip-rule="evenodd" d="M76.954 15.5999H76.0288V9.2843H74.0176V8.3999H78.9652V9.2843H76.954V15.5999Z" stroke="white" stroke-width="0.2"/>
<path fill-rule="evenodd" clip-rule="evenodd" d="M83.7348 14.0666C84.2676 14.6066 84.9192 14.8754 85.6908 14.8754C86.4612 14.8754 87.114 14.6066 87.6468 14.0666C88.1796 13.5266 88.4472 12.8378 88.4472 12.0002C88.4472 11.1626 88.1796 10.4726 87.6468 9.93378C87.114 9.39378 86.4612 9.12378 85.6908 9.12378C84.9192 9.12378 84.2676 9.39378 83.7348 9.93378C83.2032 10.4726 82.9356 11.1626 82.9356 12.0002C82.9356 12.8378 83.2032 13.5266 83.7348 14.0666ZM88.3308 14.669C87.6228 15.3974 86.7432 15.761 85.6908 15.761C84.6384 15.761 83.7588 15.3974 83.052 14.669C82.344 13.9418 81.9912 13.0526 81.9912 12.0002C81.9912 10.9478 82.344 10.0574 83.052 9.33018C83.7588 8.60298 84.6384 8.23938 85.6908 8.23938C86.7372 8.23938 87.6144 8.60418 88.326 9.33498C89.0364 10.0658 89.3916 10.9538 89.3916 12.0002C89.3916 13.0526 89.0376 13.9418 88.3308 14.669Z" fill="white"/>
<path d="M83.664 9.86345L83.7347 9.93416L83.7352 9.93368L83.664 9.86345ZM87.7184 9.86345L87.6472 9.93368L87.6473 9.93376L87.7184 9.86345ZM87.7184 14.1367L87.6472 14.0665L87.7184 14.1367ZM83.664 14.1367L83.7352 14.0665L83.7352 14.0664L83.664 14.1367ZM83.6639 14.1366L83.5927 14.2068L83.5928 14.2069L83.6639 14.1366ZM83.664 9.86345L83.5933 9.79274L83.5928 9.79322L83.664 9.86345ZM83.8064 10.0039L83.7352 9.93368L83.7352 9.93368L83.8064 10.0039ZM85.6912 9.22368L85.7842 9.26041L85.8382 9.12368H85.6912V9.22368ZM83.8065 13.9963L83.7352 14.0665L83.843 14.176L83.8995 14.0331L83.8065 13.9963ZM83.1241 9.39978L83.1958 9.4695L83.1958 9.46948L83.1241 9.39978ZM83.1241 9.39984L83.1957 9.4696L83.1957 9.46956L83.1241 9.39984ZM83.1241 14.5991L83.0524 14.6689L83.0524 14.6689L83.1241 14.5991ZM83.1242 14.5992L83.1959 14.5296L83.1958 14.5295L83.1242 14.5992ZM88.2595 14.5992L88.3312 14.6689L88.3312 14.6689L88.2595 14.5992ZM88.2548 9.40465L88.3265 9.33494L88.3121 9.3202L88.2931 9.3123L88.2548 9.40465ZM82.9807 9.26035L83.0524 9.3301L83.0524 9.33004L82.9807 9.26035ZM88.398 9.26512L88.4698 9.19548L88.4697 9.19536L88.398 9.26512ZM88.3981 9.26518L88.3263 9.33482L88.3264 9.33488L88.3981 9.26518ZM88.4029 14.7386L88.3332 14.8103L88.4049 14.88L88.4746 14.8083L88.4029 14.7386ZM88.3312 14.6689L88.4009 14.5972L88.2615 14.7406L88.3312 14.6689ZM88.4029 14.7386L88.4746 14.8083L88.5443 14.7366L88.4726 14.6669L88.4029 14.7386ZM82.9806 14.7385L83.0524 14.6689L83.0523 14.6688L82.9806 14.7385ZM88.2547 9.40459L88.2163 9.49693L88.3263 9.33482L88.2547 9.40459ZM85.6912 8.92368C84.8671 8.92368 84.1639 9.21443 83.5928 9.79321L83.7352 9.93368C84.268 9.39368 84.9196 9.12368 85.6912 9.12368V8.92368ZM87.7896 9.79321C87.2185 9.2144 86.5141 8.92368 85.6912 8.92368V9.12368C86.4616 9.12368 87.1144 9.39368 87.6472 9.93368L87.7896 9.79321ZM88.6476 12.0001C88.6476 11.1159 88.3633 10.3734 87.7895 9.79314L87.6473 9.93376C88.18 10.4725 88.4476 11.1625 88.4476 12.0001H88.6476ZM87.7896 14.207C88.3632 13.6256 88.6476 12.8845 88.6476 12.0001H88.4476C88.4476 12.8377 88.18 13.5265 87.6472 14.0665L87.7896 14.207ZM85.6912 15.0753C86.5138 15.0753 87.2183 14.7859 87.7896 14.207L87.6472 14.0665C87.1144 14.6065 86.4616 14.8753 85.6912 14.8753V15.0753ZM83.5928 14.207C84.1641 14.7859 84.8673 15.0753 85.6912 15.0753V14.8753C84.9196 14.8753 84.268 14.6065 83.7352 14.0665L83.5928 14.207ZM83.5928 14.2069L83.5929 14.207L83.7352 14.0664L83.7351 14.0664L83.5928 14.2069ZM82.736 12.0001C82.736 12.8845 83.0204 13.6255 83.5927 14.2068L83.7352 14.0665C83.2036 13.5265 82.936 12.8377 82.936 12.0001H82.736ZM83.5928 9.79322C83.0203 10.3735 82.736 11.1158 82.736 12.0001H82.936C82.936 11.1625 83.2036 10.4725 83.7352 9.93368L83.5928 9.79322ZM83.5933 9.79274L83.5933 9.79274L83.7347 9.93416L83.7347 9.93416L83.5933 9.79274ZM83.8776 10.0742C84.3721 9.57293 84.9721 9.32368 85.6912 9.32368V9.12368C84.9196 9.12368 84.268 9.39368 83.7352 9.93368L83.8776 10.0742ZM83.136 12.0001C83.136 11.2091 83.3869 10.5715 83.8776 10.0742L83.7352 9.93368C83.2036 10.4725 82.936 11.1625 82.936 12.0001H83.136ZM83.8777 13.9262C83.3868 13.4275 83.136 12.7909 83.136 12.0001H82.936C82.936 12.8377 83.2036 13.5265 83.7352 14.0665L83.8777 13.9262ZM83.8995 14.0331L85.7842 9.26041L85.5982 9.18695L83.7135 13.9596L83.8995 14.0331ZM83.1958 9.46948C83.8634 8.78263 84.6905 8.43928 85.6912 8.43928V8.23928C84.6388 8.23928 83.7592 8.60288 83.0524 9.33008L83.1958 9.46948ZM83.1957 9.46956L83.1958 9.4695L83.0524 9.33006L83.0524 9.33012L83.1957 9.46956ZM82.1916 12.0001C82.1916 10.9975 82.5257 10.1578 83.1957 9.4696L83.0524 9.33008C82.3444 10.0573 81.9916 10.9477 81.9916 12.0001H82.1916ZM83.1957 14.5294C82.5256 13.8411 82.1916 13.0026 82.1916 12.0001H81.9916C81.9916 13.0525 82.3444 13.9417 83.0524 14.6689L83.1957 14.5294ZM83.1958 14.5295L83.1957 14.5293L83.0524 14.6689L83.0525 14.669L83.1958 14.5295ZM85.6912 15.5609C84.6906 15.5609 83.8635 15.2176 83.1959 14.5296L83.0524 14.6689C83.7592 15.3973 84.6388 15.7609 85.6912 15.7609V15.5609ZM88.1878 14.5295C87.519 15.2176 86.6918 15.5609 85.6912 15.5609V15.7609C86.7436 15.7609 87.6232 15.3973 88.3312 14.6689L88.1878 14.5295ZM89.192 12.0001C89.192 13.0025 88.8569 13.8411 88.1878 14.5295L88.3312 14.6689C89.038 13.9417 89.392 13.0525 89.392 12.0001H89.192ZM88.183 9.47435C88.8561 10.1667 89.192 11.0043 89.192 12.0001H89.392C89.392 10.9537 89.0368 10.0657 88.3265 9.33494L88.183 9.47435ZM88.2931 9.3123L85.7296 8.24694L85.6528 8.43163L88.2164 9.49699L88.2931 9.3123ZM85.6912 8.03928C84.5871 8.03928 83.655 8.42312 82.909 9.19065L83.0524 9.33004C83.7592 8.60287 84.6388 8.23928 85.6912 8.23928V8.03928ZM88.4697 9.19536C87.7194 8.42479 86.79 8.03928 85.6912 8.03928V8.23928C86.7376 8.23928 87.6148 8.60408 88.3264 9.33488L88.4697 9.19536ZM88.4699 9.19554L88.4698 9.19548L88.3263 9.33476L88.3263 9.33482L88.4699 9.19554ZM89.592 12.0001C89.592 10.9031 89.2175 9.96468 88.4698 9.19548L88.3264 9.33488C89.0368 10.0657 89.392 10.9537 89.392 12.0001H89.592ZM88.4746 14.8083C89.2191 14.0423 89.592 13.1025 89.592 12.0001H89.392C89.392 13.0525 89.038 13.9417 88.3312 14.6689L88.4746 14.8083ZM88.2615 14.7406L88.3332 14.8103L88.4726 14.6669L88.4009 14.5972L88.2615 14.7406ZM88.4726 14.6669L88.4009 14.5972L88.2615 14.7406L88.3332 14.8103L88.4726 14.6669ZM85.6912 15.9609C86.7954 15.9609 87.7274 15.577 88.4746 14.8083L88.3312 14.6689C87.6232 15.3973 86.7436 15.7609 85.6912 15.7609V15.9609ZM82.9089 14.8082C83.6549 15.577 84.587 15.9609 85.6912 15.9609V15.7609C84.6388 15.7609 83.7592 15.3973 83.0524 14.6689L82.9089 14.8082ZM81.7916 12.0001C81.7916 13.1023 82.1631 14.0422 82.909 14.8083L83.0523 14.6688C82.3444 13.9416 81.9916 13.0524 81.9916 12.0001H81.7916ZM82.9091 9.19059C82.1631 9.95677 81.7916 10.8979 81.7916 12.0001H81.9916C81.9916 10.9477 82.3444 10.0573 83.0524 9.3301L82.9091 9.19059ZM85.6912 8.43928C86.6852 8.43928 87.5102 8.78335 88.1831 9.47435L88.3263 9.33482C87.6148 8.60406 86.7376 8.23928 85.6912 8.23928V8.43928ZM85.6528 8.43163L88.2163 9.49693L88.2931 9.31224L85.7296 8.24694L85.6528 8.43163Z" fill="white"/>
<path fill-rule="evenodd" clip-rule="evenodd" d="M90.6899 15.5999V8.3999H91.8155L95.3147 14.0003H95.3555L95.3147 12.6131V8.3999H96.2411V15.5999H95.2751L91.6151 9.7271H91.5743L91.6151 11.1155V15.5999H90.6899Z" fill="white"/>
<path fill-rule="evenodd" clip-rule="evenodd" d="M90.6899 15.5999V8.3999H91.8155L95.3147 14.0003H95.3555L95.3147 12.6131V8.3999H96.2411V15.5999H95.2751L91.6151 9.7271H91.5743L91.6151 11.1155V15.5999H90.6899Z" stroke="white" stroke-width="0.2"/>
<path fill-rule="evenodd" clip-rule="evenodd" d="M128.323 36H130.561V20.9988H128.323V36ZM148.491 26.4024L145.925 32.9064H145.848L143.184 26.4024H140.772L144.768 35.4924L142.489 40.5492H144.824L150.981 26.4024H148.491ZM135.792 34.296C135.06 34.296 134.036 33.9288 134.036 33.0216C134.036 31.8648 135.311 31.4196 136.411 31.4196C137.394 31.4196 137.858 31.6332 138.456 31.9212C138.282 33.312 137.085 34.296 135.792 34.296ZM136.063 26.0736C134.442 26.0736 132.763 26.7888 132.068 28.3704L134.055 29.2008C134.48 28.3704 135.271 28.1004 136.101 28.1004C137.259 28.1004 138.437 28.7952 138.456 30.03V30.1848C138.05 29.9532 137.181 29.6064 136.121 29.6064C133.977 29.6064 131.797 30.7836 131.797 32.9832C131.797 34.9908 133.554 36.2844 135.522 36.2844C137.027 36.2844 137.858 35.6088 138.378 34.8168H138.456V35.9748H140.618V30.2232C140.618 27.5604 138.629 26.0736 136.063 26.0736ZM122.225 28.2288H119.04V23.0868H122.225C123.899 23.0868 124.849 24.4716 124.849 25.6572C124.849 26.82 123.899 28.2288 122.225 28.2288ZM122.167 20.9976H116.802V36H119.04V30.3168H122.167C124.649 30.3168 127.088 28.5192 127.088 25.6572C127.088 22.7952 124.649 20.9976 122.167 20.9976ZM92.9098 34.2984C91.363 34.2984 90.0682 33.0036 90.0682 31.2252C90.0682 29.4264 91.363 28.1124 92.9098 28.1124C94.4362 28.1124 95.635 29.4264 95.635 31.2252C95.635 33.0036 94.4362 34.2984 92.9098 34.2984ZM95.4802 27.2424H95.4034C94.9006 26.6436 93.9334 26.1012 92.7166 26.1012C90.1642 26.1012 87.8242 28.344 87.8242 31.2252C87.8242 34.086 90.1642 36.3096 92.7166 36.3096C93.9334 36.3096 94.9006 35.7684 95.4034 35.1492H95.4802V35.8836C95.4802 37.8372 94.4362 38.88 92.755 38.88C91.3822 38.88 90.5314 37.8948 90.1834 37.0632L88.231 37.8756C88.7914 39.228 90.2794 40.8912 92.755 40.8912C95.3842 40.8912 97.6078 39.3444 97.6078 35.574V26.4108H95.4802V27.2424ZM99.1546 36H101.396V20.9988H99.1546V36ZM104.702 31.0512C104.645 29.0784 106.23 28.074 107.37 28.074C108.26 28.074 109.014 28.5192 109.266 29.1564L104.702 31.0512ZM111.662 29.3496C111.236 28.2096 109.941 26.1012 107.293 26.1012C104.664 26.1012 102.479 28.17 102.479 31.206C102.479 34.0668 104.645 36.3096 107.544 36.3096C109.883 36.3096 111.236 34.8792 111.798 34.0476L110.058 32.8872C109.477 33.738 108.685 34.2984 107.544 34.2984C106.404 34.2984 105.591 33.7764 105.071 32.7516L111.894 29.9292L111.662 29.3496ZM57.2926 27.6684V29.8332H62.473C62.3194 31.0512 61.9126 31.9404 61.2946 32.5584C60.5398 33.3132 59.3602 34.1448 57.2926 34.1448C54.1018 34.1448 51.6082 31.5732 51.6082 28.3836C51.6082 25.194 54.1018 22.6212 57.2926 22.6212C59.0134 22.6212 60.2698 23.298 61.1974 24.1692L62.725 22.6416C61.429 21.4044 59.7094 20.4564 57.2926 20.4564C52.9222 20.4564 49.249 24.0144 49.249 28.3836C49.249 32.7516 52.9222 36.3096 57.2926 36.3096C59.6506 36.3096 61.429 35.5356 62.821 34.086C64.2514 32.6556 64.6966 30.6444 64.6966 29.0208C64.6966 28.5192 64.6582 28.0548 64.5802 27.6684H57.2926ZM70.5862 34.2984C69.0406 34.2984 67.7062 33.0228 67.7062 31.206C67.7062 29.3688 69.0406 28.1124 70.5862 28.1124C72.133 28.1124 73.4674 29.3688 73.4674 31.206C73.4674 33.0228 72.133 34.2984 70.5862 34.2984ZM70.5862 26.1012C67.7638 26.1012 65.4634 28.248 65.4634 31.206C65.4634 34.1448 67.7638 36.3096 70.5862 36.3096C73.4098 36.3096 75.7102 34.1448 75.7102 31.206C75.7102 28.248 73.4098 26.1012 70.5862 26.1012ZM81.763 34.2984C80.2162 34.2984 78.8818 33.0228 78.8818 31.206C78.8818 29.3688 80.2162 28.1124 81.763 28.1124C83.3098 28.1124 84.643 29.3688 84.643 31.206C84.643 33.0228 83.3098 34.2984 81.763 34.2984ZM81.763 26.1012C78.9406 26.1012 76.6402 28.248 76.6402 31.206C76.6402 34.1448 78.9406 36.3096 81.763 36.3096C84.5854 36.3096 86.8858 34.1448 86.8858 31.206C86.8858 28.248 84.5854 26.1012 81.763 26.1012Z" fill="white"/>
<mask id="mask1" mask-type="alpha" maskUnits="userSpaceOnUse" x="11" y="8" width="17" height="32">
<path fill-rule="evenodd" clip-rule="evenodd" d="M12.5234 9.04561C12.1742 9.41521 11.9678 9.98881 11.9678 10.7316V37.2708C11.9678 38.0148 12.1742 38.5872 12.5234 38.9556L12.611 39.0432L27.479 24.1764V24.0012V23.826L12.611 8.95801L12.5234 9.04561Z" fill="white"/>
</mask>
<g mask="url(#mask1)">
<path fill-rule="evenodd" clip-rule="evenodd" d="M12.5234 9.04561C12.1742 9.41521 11.9678 9.98881 11.9678 10.7316V37.2708C11.9678 38.0148 12.1742 38.5872 12.5234 38.9556L12.611 39.0432L27.479 24.1764V24.0012V23.826L12.611 8.95801L12.5234 9.04561Z" fill="#00D2FF"/>
</g>
<mask id="mask2" mask-type="alpha" maskUnits="userSpaceOnUse" x="27" y="18" width="13" height="12">
<path fill-rule="evenodd" clip-rule="evenodd" d="M27.479 23.826V24.0012V24.1764L32.4338 29.1336L32.5466 29.0712L38.4182 25.7352C40.0946 24.7812 40.0946 23.2212 38.4182 22.2684L32.5466 18.9324L32.435 18.8688L27.479 23.826Z" fill="white"/>
</mask>
<g mask="url(#mask2)">
<path fill-rule="evenodd" clip-rule="evenodd" d="M27.479 23.826V24.0012V24.1764L32.4338 29.1336L32.5466 29.0712L38.4182 25.7352C40.0946 24.7812 40.0946 23.2212 38.4182 22.2684L32.5466 18.9324L32.435 18.8688L27.479 23.826Z" fill="#FFC802"/>
</g>
<mask id="mask3" mask-type="alpha" maskUnits="userSpaceOnUse" x="12" y="24" width="21" height="16">
<path fill-rule="evenodd" clip-rule="evenodd" d="M12.5234 38.9556C13.0754 39.5412 13.9886 39.6144 15.017 39.03L32.5466 29.07L27.479 24.0012L12.5234 38.9556Z" fill="white"/>
</mask>
<g mask="url(#mask3)">
<path fill-rule="evenodd" clip-rule="evenodd" d="M12.5234 38.9556C13.0754 39.5412 13.9886 39.6144 15.017 39.03L32.5466 29.07L27.479 24.0012L12.5234 38.9556Z" fill="url(#paint0_linear)"/>
</g>
<mask id="mask4" mask-type="alpha" maskUnits="userSpaceOnUse" x="12" y="8" width="21" height="17">
<path fill-rule="evenodd" clip-rule="evenodd" d="M12.5234 9.04559L27.479 24.0012L32.5466 18.9324L15.017 8.97239C14.5346 8.69759 14.0774 8.56799 13.6718 8.56799C13.211 8.56799 12.8162 8.73479 12.5234 9.04559Z" fill="white"/>
</mask>
<g mask="url(#mask4)">
<path fill-rule="evenodd" clip-rule="evenodd" d="M12.5234 9.04559L27.479 24.0012L32.5466 18.9324L15.017 8.97239C14.5346 8.69759 14.0774 8.56799 13.6718 8.56799C13.211 8.56799 12.8162 8.73479 12.5234 9.04559Z" fill="#00F076"/>
</g>
<path fill-rule="evenodd" clip-rule="evenodd" d="M32.4345 28.958L15.0165 38.8556C14.0421 39.4076 13.1709 39.3716 12.6117 38.8676L12.5229 38.9576L12.6105 39.044L12.6117 39.0428C13.1709 39.5468 14.0421 39.584 15.0165 39.0308L32.5461 29.0696L32.4345 28.958Z" fill="black"/>
<path fill-rule="evenodd" clip-rule="evenodd" d="M12.5224 38.7819C12.1732 38.4123 11.9668 37.8387 11.9668 37.0959V37.2711C11.9668 38.0139 12.1732 38.5875 12.5224 38.9571L12.6112 38.8683L12.5224 38.7819Z" fill="black"/>
<path fill-rule="evenodd" clip-rule="evenodd" d="M38.4173 25.5585L32.4341 28.9581L32.5457 29.0697L38.4173 25.7337C39.2561 25.2573 39.6749 24.6297 39.6749 24.0021C39.6041 24.5697 39.1781 25.1265 38.4173 25.5585Z" fill="black"/>
<path fill-rule="evenodd" clip-rule="evenodd" d="M15.016 9.14747L38.4172 22.4435C39.178 22.8755 39.604 23.4323 39.6748 24.0011C39.676 23.3735 39.256 22.7447 38.4172 22.2683L15.016 8.97227C13.3384 8.01947 11.9668 8.81147 11.9668 10.7315V10.9067C11.9668 8.98667 13.3384 8.19467 15.016 9.14747Z" fill="white"/>
<defs>
<linearGradient id="paint0_linear" x1="12.0751" y1="16.2312" x2="-7.03871" y2="48.4096" gradientUnits="userSpaceOnUse">
<stop stop-color="#FF3A44"/>
<stop offset="1" stop-color="#C31162"/>
</linearGradient>
</defs>
</svg>
