<svg width="633" height="478" viewBox="0 0 633 478" fill="none" xmlns="http://www.w3.org/2000/svg">
<path d="M332.601 455.019C454.299 455.019 552.955 356.452 552.955 234.863C552.955 113.275 454.299 14.7077 332.601 14.7077C210.903 14.7077 112.247 113.275 112.247 234.863C112.247 356.452 210.903 455.019 332.601 455.019Z" fill="#FAEFE9"/>
<path d="M171.572 53.6101H143.818C138.396 53.6101 134 58.0059 134 63.4284V91.1816C134 96.6042 138.396 101 143.818 101H171.572C176.994 101 181.39 96.6042 181.39 91.1816V63.4284C181.39 58.0059 176.994 53.6101 171.572 53.6101Z" fill="#F8DA96"/>
<path d="M178.796 66.4088C184.431 66.4088 189 61.8401 189 56.2044C189 50.5687 184.431 46 178.796 46C173.16 46 168.591 50.5687 168.591 56.2044C168.591 61.8401 173.16 66.4088 178.796 66.4088Z" fill="#AB94DC"/>
<path d="M181.837 58.0135C181.837 59.5604 180.486 60.6224 178.585 60.6224C177.353 60.6224 176.395 60.163 175.753 59.2325L177.038 58.1443C177.457 58.6036 177.89 58.8783 178.491 58.8783C179.317 58.8783 179.841 58.4459 179.841 57.8302C179.841 57.2006 179.304 56.7419 178.491 56.7419H177.707V55.3126H178.048C179.005 55.3126 179.516 54.8145 179.464 54.2645C179.425 53.8314 179.018 53.5561 178.454 53.5561C177.93 53.5561 177.354 53.8051 177.026 54.2119L176.029 52.9667C176.698 52.2845 177.563 51.7864 178.716 51.7864C180.239 51.7864 181.484 52.7045 181.444 54.1857C181.444 54.8775 181.011 55.5001 180.29 55.8633C181.233 56.2175 181.837 57.0041 181.837 58.0135Z" fill="white"/>
<g clip-path="url(#clip0)">
<path d="M382.421 138.207H40.8052V362.774H382.421V138.207Z" stroke="black" stroke-miterlimit="10"/>
<path d="M40.8052 150.145H382.421" stroke="black" stroke-miterlimit="10"/>
<path d="M168.346 170.15H65.6675V272.753H168.346V170.15Z" stroke="black" stroke-miterlimit="10"/>
<path d="M188.042 179.184H344.966" stroke="black" stroke-miterlimit="10"/>
<path d="M188.042 194.671H344.966" stroke="black" stroke-miterlimit="10"/>
<path d="M188.042 210.159H344.966" stroke="black" stroke-miterlimit="10"/>
<path d="M188.042 225.646H344.966" stroke="black" stroke-miterlimit="10"/>
<path opacity="0.44" d="M117.007 197.253L89.0444 245.651H144.969L117.007 197.253Z" fill="#50B89D"/>
<path d="M48.2317 147.242C49.8366 147.242 51.1377 145.941 51.1377 144.338C51.1377 142.734 49.8366 141.434 48.2317 141.434C46.6267 141.434 45.3257 142.734 45.3257 144.338C45.3257 145.941 46.6267 147.242 48.2317 147.242Z" fill="#AB8DE5"/>
<path d="M58.241 147.242C59.8459 147.242 61.147 145.941 61.147 144.338C61.147 142.734 59.8459 141.434 58.241 141.434C56.636 141.434 55.335 142.734 55.335 144.338C55.335 145.941 56.636 147.242 58.241 147.242Z" fill="#73E5E2"/>
<path d="M68.2507 147.242C69.8557 147.242 71.1567 145.941 71.1567 144.338C71.1567 142.734 69.8557 141.434 68.2507 141.434C66.6458 141.434 65.3447 142.734 65.3447 144.338C65.3447 145.941 66.6458 147.242 68.2507 147.242Z" fill="#50B89D"/>
</g>
<g clip-path="url(#clip1)">
<path d="M407.261 0.212494H278.574C268.524 0.212494 260.376 8.35958 260.376 18.4095V316.403C260.376 326.453 268.524 334.6 278.574 334.6H407.261C417.311 334.6 425.458 326.453 425.458 316.403V18.4095C425.458 8.35958 417.311 0.212494 407.261 0.212494Z" fill="#AB8FE2"/>
<path d="M403.417 9.92056H283.685C276.408 9.92056 270.509 15.8193 270.509 23.0958V312.134C270.509 319.411 276.408 325.31 283.685 325.31H403.417C410.694 325.31 416.593 319.411 416.593 312.134V23.0958C416.593 15.8193 410.694 9.92056 403.417 9.92056Z" fill="white"/>
<path d="M343.551 123.286C366.987 123.286 385.985 104.287 385.985 80.852C385.985 57.4166 366.987 38.4184 343.551 38.4184C320.116 38.4184 301.118 57.4166 301.118 80.852C301.118 104.287 320.116 123.286 343.551 123.286Z" fill="#E2E2E2"/>
<path d="M287.611 153.685V135.95H437.706V153.685H287.611Z" fill="#F8DA96"/>
<path d="M364.194 184.084H287.611V175.215" stroke="black" stroke-width="1.31" stroke-miterlimit="10"/>
<path d="M364.194 236.013H287.611V227.148" stroke="black" stroke-width="1.31" stroke-miterlimit="10"/>
<path d="M287.611 166.349H437.706V175.215" stroke="black" stroke-width="1.31" stroke-miterlimit="10"/>
<path d="M287.611 248.681H437.706V257.547" stroke="black" stroke-width="1.31" stroke-miterlimit="10"/>
<path d="M437.706 196.749H287.611V214.48H437.706V196.749Z" fill="#F8DA96"/>
<path d="M308.507 319.613H378.596" stroke="#E2E2E2" stroke-width="6.79" stroke-linecap="round" stroke-linejoin="round"/>
</g>
<g clip-path="url(#clip2)">
<path d="M178.876 414.93V414.333L177.435 412.54L174.133 408.506L170.59 404.239C170.59 404.239 167.18 401.89 166.303 401.484C163.109 400.014 159.963 398.89 156.204 398.89C153.892 398.89 145.252 399.237 145.234 400.683C145.234 402.829 157.333 410.95 166.207 414.894C170.074 414.93 178.876 414.93 178.876 414.93Z" fill="#1F161E"/>
<path d="M177.044 414.93C164.729 405.518 139.596 354.064 146.038 335C159.764 341.962 174.822 365.968 181.925 386.239C182.301 387.558 182.602 388.897 182.826 390.249L185.708 403.396L186.429 414.93H177.044Z" fill="#FBDC8E"/>
<path d="M185.45 414.93C181.295 411.572 179.968 401.627 179.932 397.916C179.866 390.99 180.935 385.886 186.885 378.267C192.835 370.647 191.232 358.002 199.157 349.48C207.083 340.958 212.295 338.586 221.673 338.586C231.052 338.586 234.024 353.717 234 357.524C233.892 372.871 224.171 375.04 218.251 382.373C213.946 387.691 213.609 392.042 212.307 394.528C205.306 407.908 199.638 412.964 195.435 414.93" fill="#73E5E2"/>
<path d="M187.72 413.819C187.84 387.626 215.573 348.285 221.499 342.386" stroke="white" stroke-width="0.4" stroke-linecap="round" stroke-linejoin="round"/>
<path d="M189.239 401.932C186.171 398.604 183.379 389.167 183.799 386.717" stroke="white" stroke-width="0.4" stroke-linecap="round" stroke-linejoin="round"/>
<path d="M181.379 412.689C177.032 405.004 156.408 367.618 148.692 340.074" stroke="white" stroke-width="0.4" stroke-linecap="round" stroke-linejoin="round"/>
<path d="M195.435 414.93H208.344L197.536 455H168.638L158.005 414.93H195.435Z" fill="#B37361"/>
<path d="M149.431 401.502C155.73 401.932 163.655 402.219 169.275 406.014" stroke="white" stroke-width="0.4" stroke-linecap="round" stroke-linejoin="round"/>
</g>
<g clip-path="url(#clip3)">
<path d="M609.393 283.174C609.908 284.643 614.901 291.526 616.775 294.57C618.648 297.614 621.792 306.569 619.034 308.038C616.276 309.508 611.653 308.432 610.189 303.718C608.726 299.003 603.756 288.378 602.019 286.049C600.283 283.72 609.393 283.174 609.393 283.174Z" fill="#F8CDBA"/>
<path d="M421.934 143.3C419.514 141.003 399.918 120.419 399.725 120.419C397.899 120.861 396.701 121.744 398.028 123.632C398.543 124.363 401.647 127.792 405.265 131.663C404.183 132.574 403.408 133.795 403.044 135.161C402.681 136.527 402.746 137.972 403.233 139.3C403.719 140.627 404.602 141.773 405.763 142.582C406.923 143.391 408.304 143.824 409.72 143.822C410.281 143.817 410.84 143.744 411.384 143.606L414.496 147.292L419.12 145.413L418.5 144.73L421.934 143.3Z" fill="#F8CDBA"/>
<path d="M452.425 381.613C452.481 382.641 454.331 391.082 453.511 392.142C452.023 394.07 439.166 393.909 438.53 393.339C437.895 392.769 437.469 391.532 437.984 391.146C438.498 390.761 443.548 389.452 444.207 388.938C444.867 388.424 445.695 385.83 445.261 384.48" fill="#1F161E"/>
<path d="M541.535 260.477C547.164 264.428 603.45 430.62 602.534 433.254C601.617 435.889 595.2 437.35 592.885 435.889C590.569 434.427 546.85 355.343 544.502 352.998C542.154 350.652 507.843 314.929 503.156 300.866C498.468 286.804 541.535 260.477 541.535 260.477Z" fill="#1F161E"/>
<path d="M533.695 251.032C537.258 252.896 547.606 263.079 547.606 273.913C547.606 304.521 519.463 310.697 509.428 310.52C499.393 310.343 457.926 312.07 442.23 306.794C442.905 312.729 448.172 366.281 453.093 381.878C451.903 384.079 445.711 386.022 444.602 385.091C435.692 377.863 409.406 301.501 409.913 296.136C411.055 284.025 527.174 252.606 533.695 251.032Z" fill="#73E5E2"/>
<path d="M499.521 197.793C499.015 199.993 511.124 202.973 511.679 200.604L515.105 185.842L502.947 183.063L499.521 197.793Z" fill="#F8CDBA"/>
<path d="M513.054 194.661C513.36 193.343 511.406 188.123 508.913 188.356C512.001 188.003 514.22 184.895 515.105 185.842L513.054 194.661Z" fill="black"/>
<path d="M506.139 188.589C515.092 188.589 522.349 181.34 522.349 172.398C522.349 163.456 515.092 156.207 506.139 156.207C497.186 156.207 489.928 163.456 489.928 172.398C489.928 181.34 497.186 188.589 506.139 188.589Z" fill="#F8CDBA"/>
<path d="M492.314 171.427C492.49 170.671 491.453 169.785 490 169.449C488.546 169.112 487.226 169.453 487.05 170.209C486.875 170.965 487.911 171.851 489.364 172.187C490.818 172.524 492.139 172.184 492.314 171.427Z" fill="#FA9E9F"/>
<path d="M508.869 175.258C509.045 174.501 508.009 173.616 506.555 173.279C505.101 172.943 503.781 173.283 503.605 174.039C503.43 174.795 504.466 175.681 505.92 176.017C507.373 176.354 508.694 176.014 508.869 175.258Z" fill="#FA9E9F"/>
<path d="M496.771 169.466C496.112 170.053 492.903 172.414 495.292 174.229" stroke="#1F161E" stroke-width="0.69" stroke-miterlimit="10" stroke-linecap="round"/>
<path d="M499.803 178.903C500.607 179.056 502.046 178.381 502.899 177.65" stroke="#1F161E" stroke-width="0.69" stroke-miterlimit="10" stroke-linecap="round"/>
<path d="M514.059 169.98C514.099 166.326 501.274 157.893 495.099 160.52C497.955 157.895 501.66 156.381 505.539 156.253C509.418 156.125 513.215 157.391 516.238 159.822C519.262 162.253 521.312 165.687 522.016 169.499C522.72 173.312 522.031 177.25 520.074 180.598C518.337 179.048 514.059 173.426 514.059 169.98Z" fill="black"/>
<path d="M517.42 177.723C519.392 177.723 520.99 176.126 520.99 174.157C520.99 172.187 519.392 170.591 517.42 170.591C515.449 170.591 513.85 172.187 513.85 174.157C513.85 176.126 515.449 177.723 517.42 177.723Z" fill="#F8CDBA"/>
<path d="M420.632 142.104C422.352 143.614 456.494 177.329 462.26 178.726C481.687 183.433 544.551 202.234 565.988 219.445C588.374 233.211 612.143 281.712 611.283 283.431C610.422 285.149 600.926 289.245 598.988 288.386C597.05 287.526 570.515 250.839 566.414 248.502C562.313 246.165 530.399 230.432 530.399 230.432C531.902 234.094 536.22 249.611 535.569 251.763C534.918 253.915 521.015 263.256 495.67 265.553C493.081 264.043 485.53 220.313 485.53 220.313C480.135 217.903 444.433 198.925 436.569 189.071C433.521 185.248 410.468 149.862 410.468 148.111C410.468 146.36 420.632 142.104 420.632 142.104Z" fill="#55B79D"/>
<path d="M502.392 228.729C500.148 227.814 485.667 220.272 485.667 220.272" stroke="#1F161E" stroke-width="0.55" stroke-miterlimit="10" stroke-linecap="round"/>
<path d="M515.531 195.761C517.059 197.616 527.882 220.007 530.398 230.705" stroke="#1F161E" stroke-width="0.55" stroke-miterlimit="10" stroke-linecap="round"/>
<path d="M601.32 433.094C602.196 433.897 604.319 437.455 604.423 438.78C604.946 445.125 598.071 455.011 596.961 455.019C593.745 455.019 592.081 453.317 592.081 451.325C592.081 449.333 594.493 446.9 594.493 445.566C594.493 444.233 594.195 436.266 593.97 435.085" fill="#1F161E"/>
</g>
<defs>
<clipPath id="clip0">
<rect width="342.262" height="225.212" fill="white" transform="translate(40.4824 137.885)"/>
</clipPath>
<clipPath id="clip1">
<rect width="177.571" height="334.6" fill="white" transform="translate(260.376)"/>
</clipPath>
<clipPath id="clip2">
<rect width="89" height="120" fill="white" transform="translate(145 335)"/>
</clipPath>
<clipPath id="clip3">
<rect width="222.654" height="334.6" fill="white" transform="translate(397.465 120.419)"/>
</clipPath>
</defs>
</svg>
